<?xml version="1.0" encoding="utf-8"?>
<!-- Generator: Adobe Illustrator 27.8.0, SVG Export Plug-In . SVG Version: 6.00 Build 0)  -->
<svg version="1.1" id="Layer_1" xmlns="http://www.w3.org/2000/svg" xmlns:xlink="http://www.w3.org/1999/xlink" x="0px" y="0px"
	 viewBox="0 0 1920 1080" style="enable-background:new 0 0 1920 1080;" xml:space="preserve">
<style type="text/css">
	.st0{fill:#EBF7F6;}
	.st1{fill-rule:evenodd;clip-rule:evenodd;fill:#006BB6;}
	.st2{fill-rule:evenodd;clip-rule:evenodd;fill:#58595B;}
	.st3{opacity:0.04;clip-path:url(#SVGID_00000016041648488768824890000009624626243515723160_);}
	.st4{fill-rule:evenodd;clip-rule:evenodd;fill:#73CEE1;}
	.st5{fill-rule:evenodd;clip-rule:evenodd;fill:#00B9F2;}
	.st6{fill:#7F1416;}
	.st7{fill-rule:evenodd;clip-rule:evenodd;fill:#FFFFFF;}
	.st8{fill:#616E7D;}
	.st9{fill:#AAD3C7;}
	.st10{fill:#485156;}
	.st11{fill-rule:evenodd;clip-rule:evenodd;fill:#E6E7E8;}
	.st12{fill:none;stroke:#000000;stroke-width:0.5;stroke-miterlimit:10;}
	.st13{fill:#006BB6;}
	.st14{fill:#73CEE1;}
	.st15{fill:#2B3990;stroke:#21409A;stroke-width:0.75;stroke-miterlimit:10;}
	.st16{fill:url(#SVGID_00000127723851878489846520000010027069965638177420_);}
	.st17{opacity:0.08;clip-path:url(#SVGID_00000057848004866000308400000005898770766751739832_);}
	.st18{fill:#FFFFFF;}
	.st19{fill:none;stroke:#000000;stroke-width:0.6;stroke-linecap:round;stroke-linejoin:round;stroke-miterlimit:10;}
	.st20{fill:#F04B4C;}
	.st21{opacity:0.04;clip-path:url(#SVGID_00000099661758650797193520000018419187856050883210_);}
	.st22{fill:url(#SVGID_00000161596392993236661990000007243142438084464046_);}
	.st23{opacity:0.08;clip-path:url(#SVGID_00000171705057117791202390000006632683911850142621_);}
	.st24{fill:url(#SVGID_00000127747813064784304390000005928806740884210586_);}
	.st25{opacity:0.08;clip-path:url(#SVGID_00000111162511658990702280000014222286430862299778_);}
	.st26{opacity:0.04;clip-path:url(#SVGID_00000067200173956395970810000007518636221090454958_);}
	.st27{fill:#7F1416;stroke:#BE1E2D;stroke-miterlimit:10;}
	.st28{fill:#7F1416;stroke:#FFFFFF;stroke-miterlimit:10;}
</style>
<rect y="-0.5" class="st0" width="439" height="1081"/>
<g>
	<defs>
		<rect id="SVGID_00000004534682521658917700000007312808115267607221_" y="-0.5" width="441.35" height="1081"/>
	</defs>
	<clipPath id="SVGID_00000139276386579813373580000006857754255849346968_">
		<use xlink:href="#SVGID_00000004534682521658917700000007312808115267607221_"  style="overflow:visible;"/>
	</clipPath>
	<g style="opacity:0.04;clip-path:url(#SVGID_00000139276386579813373580000006857754255849346968_);">
		<path class="st4" d="M156.7,1037.09c40.72,67.74,33.21,149.52-12.29,208.65l-32.79-18.18c39.17-48.17,46.32-116.25,12.55-172.43
			c-6.91-11.49-15.12-21.81-24.35-30.87c10.12-6.96,19.63-14.89,28.36-23.74C138.95,1011.34,148.56,1023.55,156.7,1037.09
			L156.7,1037.09z M68.98,1000.66c-18.83-11.07-39.82-18.27-61.53-21.25c18.81-3.67,36.63-11.74,51.66-23.77
			c14.26,5.52,27.9,12.63,40.59,21.27C90.41,986.12,80.07,994.07,68.98,1000.66L68.98,1000.66z"/>
		<path class="st4" d="M86.17,1076.21c25.65,42.68,18.84,94.8-13.07,129.98l-32.91-18.25c26.07-23.91,32.81-62.67,13.98-93.99
			c-10.74-17.86-27.81-30.01-46.92-35.36c17.89-2.02,35.42-6.36,52.08-12.89C69.83,1054.02,78.97,1064.24,86.17,1076.21
			L86.17,1076.21z"/>
		<path class="st5" d="M156.06,964.6c-40.72,67.74-118.2,102.38-194.26,94.11v-36.37c63.01,8.5,127.97-19.59,161.74-75.77
			c6.91-11.49,12.1-23.48,15.66-35.7c11.33,4.94,23.24,8.88,35.58,11.72C170.41,936.95,164.2,951.06,156.06,964.6L156.06,964.6z
			 M145.05,873.4c0.56-21.2-3.43-42.26-11.61-61.81c12.71,13.82,28.9,24.6,47.26,31.1c2.16,14.62,2.56,29.53,1.12,44.4
			C168.87,883.97,156.54,879.34,145.05,873.4L145.05,873.4z"/>
		<path class="st5" d="M85.53,925.48C59.87,968.16,9.48,988.55-38.2,979.6v-36.5c34.6,9.73,72.91-4.04,91.73-35.36
			c10.74-17.86,13.16-38.14,8.42-56.71c10.76,13.87,23.44,26.28,37.66,36.88C97.36,900.79,92.72,913.51,85.53,925.48L85.53,925.48z"
			/>
		<path class="st1" d="M221.1,927.81c-81.44,0-151.4-47.14-181.97-114.55l32.79-18.18c23.84,56.67,81.65,96.66,149.18,96.66
			c13.81,0,27.22-1.68,40.01-4.82c1.21,11.9,3.61,23.77,7.23,35.46C253.2,925.93,237.38,927.81,221.1,927.81L221.1,927.81z
			 M297.81,873.06c19.4-10.13,36.38-23.99,49.92-40.56c-6.1,17.48-7.73,36.35-4.4,54.86c-12.11,9.11-25.34,16.89-39.47,23.13
			C300.2,898.15,298.21,885.58,297.81,873.06L297.81,873.06z"/>
		<path class="st1" d="M221.1,849.58c-51.3,0-94.88-31.73-110.65-75.87l32.91-18.25c8.52,33.65,40.09,58.63,77.75,58.63
			c21.47,0,40.96-8.13,55.34-21.35c-7.12,15.89-11.98,32.64-14.42,49.77C249.28,847.08,235.49,849.58,221.1,849.58L221.1,849.58z"/>
		<path class="st4" d="M286.78,963.53c-40.72-67.75-33.21-149.52,12.29-208.65l32.79,18.18c-39.17,48.17-46.32,116.25-12.55,172.43
			c6.91,11.49,15.12,21.81,24.35,30.87c-10.12,6.96-19.63,14.89-28.36,23.74C304.53,989.29,294.92,977.07,286.78,963.53
			L286.78,963.53z M374.51,999.96c18.83,11.07,39.82,18.27,61.53,21.25c-18.81,3.67-36.63,11.74-51.66,23.77
			c-14.26-5.52-27.9-12.63-40.59-21.27C353.07,1014.5,363.41,1006.56,374.51,999.96L374.51,999.96z"/>
		<path class="st4" d="M357.32,924.41c-25.65-42.68-18.84-94.8,13.07-129.98l32.91,18.25c-26.07,23.91-32.81,62.67-13.98,93.99
			c10.74,17.86,27.81,30.01,46.92,35.36c-17.89,2.02-35.42,6.36-52.08,12.89C373.66,946.6,364.51,936.39,357.32,924.41
			L357.32,924.41z"/>
		<path class="st1" d="M221.58,975.15c14.75,0,26.71,11.48,26.71,25.65c0,14.17-11.96,25.65-26.71,25.65
			c-14.75,0-26.71-11.49-26.71-25.65C194.87,986.63,206.83,975.15,221.58,975.15L221.58,975.15z"/>
		<path class="st5" d="M287.42,1036.02c40.72-67.75,118.2-102.38,194.26-94.11v36.37c-63.01-8.5-127.97,19.59-161.73,75.77
			c-6.91,11.49-12.1,23.48-15.66,35.7c-11.33-4.94-23.24-8.88-35.58-11.72C273.08,1063.67,279.29,1049.57,287.42,1036.02
			L287.42,1036.02z M298.44,1127.22c-0.56,21.2,3.43,42.26,11.61,61.81c-12.71-13.82-28.9-24.6-47.26-31.1
			c-2.16-14.62-2.56-29.53-1.12-44.4C274.62,1116.66,286.95,1121.28,298.44,1127.22L298.44,1127.22z"/>
		<path class="st5" d="M357.96,1075.14c25.65-42.68,76.05-63.07,123.73-54.12v36.5c-34.6-9.73-72.91,4.04-91.73,35.36
			c-10.74,17.86-13.16,38.14-8.42,56.71c-10.76-13.87-23.44-26.28-37.66-36.88C346.12,1099.83,350.76,1087.12,357.96,1075.14
			L357.96,1075.14z"/>
		<path class="st1" d="M222.38,1072.81c81.44,0,151.4,47.14,181.97,114.55l-32.79,18.19c-23.84-56.67-81.65-96.66-149.18-96.66
			c-13.81,0-27.22,1.68-40.01,4.82c-1.21-11.9-3.61-23.77-7.23-35.46C190.29,1074.69,206.11,1072.81,222.38,1072.81L222.38,1072.81z
			 M145.67,1127.57c-19.4,10.13-36.38,23.99-49.92,40.56c6.1-17.48,7.73-36.35,4.4-54.86c12.11-9.11,25.34-16.89,39.47-23.13
			C143.29,1102.47,145.28,1115.04,145.67,1127.57L145.67,1127.57z"/>
		<path class="st1" d="M503.51,989.03c6.44-10.71,20.69-14.38,31.84-8.19c11.15,6.18,14.97,19.87,8.53,30.58
			c-6.44,10.71-20.69,14.38-31.84,8.19C500.89,1013.43,497.07,999.74,503.51,989.03L503.51,989.03z"/>
		<path class="st1" d="M352.46,760.28c-6.44-10.71-2.62-24.4,8.53-30.58c11.15-6.18,25.4-2.51,31.84,8.19
			c6.44,10.71,2.62,24.4-8.53,30.58C373.15,774.65,358.89,770.99,352.46,760.28L352.46,760.28z"/>
		<path class="st1" d="M70.69,771.55c-12.87,0-23.31-10.02-23.31-22.39s10.43-22.39,23.31-22.39c12.87,0,23.3,10.02,23.3,22.39
			S83.56,771.55,70.69,771.55L70.69,771.55z"/>
	</g>
</g>
<g>
	
		<linearGradient id="SVGID_00000182513218367221914390000003637877428113702051_" gradientUnits="userSpaceOnUse" x1="1179.5" y1="916.8625" x2="1179.5" y2="-131.9129">
		<stop  offset="0" style="stop-color:#FFFFFF"/>
		<stop  offset="0.3414" style="stop-color:#D6EDF5"/>
		<stop  offset="0.9704" style="stop-color:#A4D9EB"/>
	</linearGradient>
	
		<rect x="439" y="-0.5" style="fill:url(#SVGID_00000182513218367221914390000003637877428113702051_);" width="1481" height="1081"/>
	<g>
		<defs>
			<rect id="SVGID_00000178885801198153182840000009743341154183200167_" x="439" y="-0.5" width="1481" height="1081"/>
		</defs>
		<clipPath id="SVGID_00000029041928938395246460000005510365063812937607_">
			<use xlink:href="#SVGID_00000178885801198153182840000009743341154183200167_"  style="overflow:visible;"/>
		</clipPath>
		<g style="opacity:0.08;clip-path:url(#SVGID_00000029041928938395246460000005510365063812937607_);">
			<path class="st4" d="M957.25,780.09c128.85,214.37,105.07,473.12-38.88,660.25l-103.76-57.54
				c123.95-152.42,146.57-367.85,39.72-545.63c-21.86-36.36-47.85-69-77.06-97.69c32.02-22.01,62.1-47.11,89.74-75.12
				C901.09,698.59,931.5,737.24,957.25,780.09L957.25,780.09z M679.66,664.8c-59.6-35.03-125.99-57.83-194.7-67.23
				c59.52-11.6,115.92-37.16,163.48-75.21c45.14,17.46,88.29,39.97,128.44,67.29C747.49,618.81,714.77,643.94,679.66,664.8
				L679.66,664.8z"/>
			<path class="st4" d="M734.06,903.87c81.17,135.04,59.61,299.97-41.37,411.32l-104.13-57.75
				c82.51-75.67,103.82-198.3,44.25-297.41c-33.97-56.52-88-94.98-148.46-111.89c56.59-6.39,112.08-20.12,164.81-40.78
				C682.35,833.65,711.29,865.98,734.06,903.87L734.06,903.87z"/>
			<path class="st5" d="M955.22,550.69C826.37,765.06,581.2,874.66,340.51,848.47V733.38c199.39,26.9,404.92-61.99,511.78-239.78
				c21.85-36.36,38.28-74.3,49.54-112.95c35.86,15.64,73.52,28.11,112.6,37.09C1000.63,463.21,980.98,507.84,955.22,550.69
				L955.22,550.69z M920.37,262.12c1.78-67.09-10.86-133.72-36.74-195.58c40.22,43.72,91.46,77.85,149.55,98.4
				c6.83,46.28,8.1,93.43,3.55,140.49C995.74,295.55,956.73,280.9,920.37,262.12L920.37,262.12z"/>
			<path class="st5" d="M732.03,426.91c-81.17,135.04-240.64,199.57-391.52,171.24v-115.5c109.48,30.8,230.7-12.78,290.27-111.9
				c33.97-56.52,41.63-120.69,26.64-179.44c34.06,43.88,74.17,83.17,119.18,116.7C769.48,348.78,754.8,389.02,732.03,426.91
				L732.03,426.91z"/>
			<path class="st1" d="M1161.03,434.3c-257.7,0-479.09-149.15-575.83-362.47l103.76-57.54
				c75.44,179.32,258.36,305.85,472.07,305.85c43.71,0,86.13-5.3,126.61-15.26c3.83,37.65,11.42,75.22,22.87,112.22
				C1262.6,428.33,1212.54,434.3,1161.03,434.3L1161.03,434.3z M1403.78,261.03c61.38-32.06,115.13-75.9,157.96-128.36
				c-19.31,55.32-24.46,115.01-13.94,173.61c-38.31,28.82-80.19,53.46-124.89,73.2C1411.32,340.44,1405.02,300.66,1403.78,261.03
				L1403.78,261.03z"/>
			<path class="st1" d="M1161.03,186.74c-162.33,0-300.24-100.4-350.15-240.07l104.13-57.75
				C941.98-4.61,1041.89,74.44,1161.03,74.44c67.95,0,129.63-25.71,175.1-67.55c-22.54,50.27-37.9,103.29-45.63,157.49
				C1250.2,178.83,1206.58,186.74,1161.03,186.74L1161.03,186.74z"/>
			<path class="st4" d="M1368.87,547.31c-128.85-214.37-105.08-473.12,38.88-660.25l103.76,57.54
				c-123.95,152.41-146.57,367.84-39.72,545.63c21.86,36.36,47.85,69,77.06,97.69c-32.02,22.01-62.1,47.11-89.74,75.12
				C1425.04,628.82,1394.63,590.16,1368.87,547.31L1368.87,547.31z M1646.46,662.6c59.6,35.03,125.99,57.83,194.7,67.23
				c-59.52,11.6-115.92,37.16-163.48,75.21c-45.14-17.46-88.29-39.97-128.44-67.29C1578.64,708.59,1611.35,683.46,1646.46,662.6
				L1646.46,662.6z"/>
			<path class="st4" d="M1592.07,423.53c-81.17-135.04-59.61-299.97,41.37-411.32l104.13,57.75
				c-82.51,75.67-103.82,198.3-44.25,297.41c33.97,56.52,88,94.98,148.46,111.89c-56.59,6.39-112.08,20.12-164.81,40.78
				C1643.78,493.75,1614.84,461.42,1592.07,423.53L1592.07,423.53z"/>
			<path class="st1" d="M1162.54,584.07c46.67,0,84.51,36.34,84.51,81.18c0,44.83-37.83,81.18-84.51,81.18
				c-46.67,0-84.5-36.34-84.5-81.18C1078.04,620.42,1115.87,584.07,1162.54,584.07L1162.54,584.07z"/>
			<path class="st5" d="M1370.91,776.71c128.85-214.37,374.02-323.96,614.71-297.78v115.09c-199.39-26.9-404.92,61.99-511.78,239.77
				c-21.85,36.36-38.28,74.3-49.54,112.96c-35.86-15.64-73.52-28.11-112.6-37.09C1325.5,864.19,1345.15,819.56,1370.91,776.71
				L1370.91,776.71z M1405.75,1065.28c-1.78,67.09,10.86,133.72,36.74,195.58c-40.22-43.72-91.46-77.86-149.55-98.4
				c-6.83-46.28-8.11-93.43-3.55-140.49C1330.38,1031.85,1369.39,1046.5,1405.75,1065.28L1405.75,1065.28z"/>
			<path class="st5" d="M1594.1,900.49c81.17-135.04,240.64-199.57,391.52-171.24v115.5c-109.48-30.8-230.7,12.79-290.27,111.9
				c-33.97,56.52-41.63,120.69-26.64,179.44c-34.06-43.89-74.17-83.17-119.18-116.7C1556.64,978.63,1571.32,938.38,1594.1,900.49
				L1594.1,900.49z"/>
			<path class="st1" d="M1165.1,893.1c257.7,0,479.09,149.15,575.83,362.47l-103.76,57.55
				c-75.44-179.32-258.36-305.85-472.07-305.85c-43.71,0-86.13,5.3-126.61,15.26c-3.83-37.65-11.42-75.22-22.86-112.22
				C1063.53,899.07,1113.58,893.1,1165.1,893.1L1165.1,893.1z M922.35,1066.38c-61.38,32.06-115.13,75.9-157.96,128.36
				c19.3-55.32,24.46-115.01,13.94-173.61c38.31-28.82,80.18-53.46,124.89-73.2C914.81,986.96,921.1,1026.74,922.35,1066.38
				L922.35,1066.38z"/>
			<path class="st1" d="M271.46,699.39c-20.36,33.88-65.46,45.49-100.74,25.93c-35.27-19.56-47.36-62.88-26.99-96.76
				c20.36-33.88,65.46-45.49,100.74-25.93C279.74,622.18,291.82,665.51,271.46,699.39L271.46,699.39z"/>
		</g>
	</g>
</g>
<g>
	<g>
		<defs>
			<rect id="SVGID_00000183226874563025848480000008499868141864229249_" x="-1501.97" y="-1" width="1481" height="1081"/>
		</defs>
		<clipPath id="SVGID_00000037664216241409479710000003239668054392345275_">
			<use xlink:href="#SVGID_00000183226874563025848480000008499868141864229249_"  style="overflow:visible;"/>
		</clipPath>
		<g style="opacity:0.08;clip-path:url(#SVGID_00000037664216241409479710000003239668054392345275_);">
			<path class="st5" d="M-570.06,776.21c128.85-214.37,374.02-323.96,614.71-297.78v115.09c-199.39-26.9-404.92,61.99-511.78,239.77
				c-21.85,36.36-38.28,74.3-49.54,112.96c-35.86-15.64-73.52-28.11-112.6-37.09C-615.47,863.69-595.82,819.06-570.06,776.21
				L-570.06,776.21z M-535.21,1064.78c-1.78,67.09,10.86,133.72,36.74,195.58c-40.22-43.72-91.46-77.86-149.55-98.4
				c-6.83-46.28-8.11-93.43-3.55-140.49C-610.59,1031.35-571.57,1046-535.21,1064.78L-535.21,1064.78z"/>
			<path class="st5" d="M-346.87,899.99c81.17-135.04,240.64-199.57,391.52-171.24v115.5c-109.48-30.8-230.7,12.79-290.27,111.9
				c-33.97,56.52-41.63,120.69-26.64,179.44c-34.06-43.89-74.17-83.17-119.18-116.7C-384.32,978.13-369.64,937.88-346.87,899.99
				L-346.87,899.99z"/>
			<path class="st1" d="M113.7,627.52c20.36-33.88,65.46-45.49,100.74-25.93c35.27,19.56,47.36,62.88,26.99,96.77
				c-20.36,33.88-65.46,45.49-100.74,25.93C105.42,704.72,93.34,661.4,113.7,627.52L113.7,627.52z"/>
		</g>
	</g>
</g>
</svg>
