<?xml version="1.0" encoding="UTF-8"?>
<svg id="Layer_1" data-name="Layer 1" xmlns="http://www.w3.org/2000/svg" version="1.1" viewBox="0 0 297 182">
  <defs>
    <style>
      .cls-1, .cls-2 {
        fill: #6d1b1d;
        stroke-width: 0px;
      }

      .cls-2 {
        fill-rule: evenodd;
      }
    </style>
  </defs>
  <g>
    <path class="cls-2" d="M148.31,60.13h0c-.38,0-.7-.31-.7-.69l-.04-3.74c0-.39.31-.7.69-.7h0c.39,0,.7.31.7.69l.04,3.74c0,.38-.31.7-.69.7Z"/>
    <path class="cls-2" d="M156.25,61.46h0c-.36-.13-.55-.53-.43-.89l.67-1.89c.13-.36.53-.55.89-.43h0c.36.13.55.53.43.89l-.67,1.89c-.13.36-.53.55-.89.43Z"/>
    <path class="cls-2" d="M163.24,65.42h0c-.3-.25-.34-.69-.09-.98l2.38-2.89c.24-.3.68-.34.98-.09h0c.3.25.34.69.09.98l-2.38,2.89c-.24.3-.68.34-.98.09Z"/>
    <path class="cls-2" d="M168.46,71.54h0c-.2-.33-.08-.76.25-.96l1.52-.9c.33-.2.76-.08.95.25h0c.2.33.08.76-.25.96l-1.52.9c-.33.2-.76.08-.95-.25Z"/>
    <path class="cls-2" d="M171.27,79.07h0c-.07-.38.18-.74.56-.81l3.68-.68c.38-.07.74.18.81.56h0c.07.38-.18.74-.56.81l-3.68.68c-.38.07-.74-.18-.81-.56Z"/>
    <path class="cls-2" d="M173.06,88.11l-1.16-.2c-.38-.06-.64-.42-.57-.8h0c.06-.38.42-.64.8-.57l1.16.2c.38.06.64.42.57.8h0c-.06.38-.42.64-.8.57Z"/>
    <path class="cls-2" d="M172.15,97.49l-3.25-1.85c-.33-.19-.45-.62-.26-.95.19-.33.62-.45.95-.26l3.25,1.85c.33.19.45.62.26.95s-.62.45-.95.26Z"/>
    <path class="cls-2" d="M164.4,103.01l-.97-1.15c-.25-.29-.21-.73.08-.98h0c.29-.25.73-.21.98.08l.97,1.15c.25.29.21.73-.08.98h0c-.29.25-.73.21-.98-.08Z"/>
    <path class="cls-2" d="M131.79,103.4h0c-.3-.25-.34-.69-.09-.98l1.07-1.28c.25-.3.69-.34.98-.09h0c.3.25.34.69.09.98l-1.07,1.28c-.25.3-.69.34-.98.09Z"/>
    <path class="cls-2" d="M124.11,97.5h0c-.19-.33-.08-.76.25-.96l3.23-1.89c.33-.19.76-.08.95.25h0c.19.33.08.76-.25.95l-3.23,1.89c-.33.19-.76.08-.95-.25Z"/>
    <path class="cls-2" d="M122.15,88.02h0c-.07-.38.18-.74.56-.81l2.25-.41c.38-.07.74.18.81.56h0c.07.38-.18.74-.56.81l-2.25.41c-.38.07-.74-.18-.81-.56Z"/>
    <path class="cls-2" d="M124.93,79.9l-3.69-.64c-.38-.07-.63-.43-.57-.81h0c.07-.38.43-.63.81-.57l3.69.64c.38.07.63.43.57.81h0c-.07.38-.43.63-.81.57Z"/>
    <path class="cls-2" d="M127.51,72.02l-1.64-.94c-.33-.19-.45-.62-.26-.95h0c.19-.33.62-.45.95-.26l1.65.94c.33.19.45.62.26.95h0c-.19.33-.62.45-.95.26Z"/>
    <path class="cls-2" d="M132.63,65.5l-2.41-2.86c-.25-.29-.21-.73.08-.98h0c.29-.25.73-.21.98.08l2.41,2.86c.25.29.21.73-.08.98h0c-.29.25-.73.21-.98-.08Z"/>
    <path class="cls-2" d="M139.71,61.07l-.51-1.79c-.1-.37.11-.76.48-.86.37-.11.76.11.86.48l.51,1.79c.11.37-.11.76-.48.86h0c-.37.11-.76-.11-.86-.48Z"/>
  </g>
  <path class="cls-2" d="M140.12,112.32s-.57-6.4-4.46-11.62c0,0-10.83-7.2-6.76-24.53,0,0,4.07-14.13,19.34-14.65,15.28.24,19.61,14.28,19.61,14.28,4.39,17.25-6.3,24.66-6.3,24.66-3.79,5.29-4.25,11.7-4.25,11.7l-17.18.16Z"/>
  <path class="cls-2" d="M142.76,124.01c.02,1.66,1.11,3,2.44,2.99l7.23-.07c1.33-.01,2.39-1.37,2.38-3.03l-.05-5.41-12.04.11.05,5.41Z"/>
  <path class="cls-2" d="M139.73,120.77c.02,1.66,1.38,3,3.04,2.98l12.03-.11c1.66-.02,3-1.38,2.98-3.04l-.08-8.77-18.05.17.08,8.77Z"/>
  <path class="cls-2" d="M157.97,113.61l-18.52,1.61c-.23.02-.41.23-.41.47v.75c0,.24.2.42.42.4l18.52-1.61c.23-.02.41-.23.41-.47v-.75c0-.24-.2-.42-.42-.4Z"/>
  <path class="cls-2" d="M157.99,116.19l-18.52,1.61c-.23.02-.41.23-.41.47v.75c0,.24.2.42.42.4l18.52-1.61c.23-.02.41-.23.41-.47v-.75c0-.24-.19-.42-.42-.4Z"/>
  <path class="cls-2" d="M158.06,118.78l-18.52,1.61c-.23.02-.41.23-.41.47v.75c0,.24.2.42.42.4l18.52-1.61c.23-.02.41-.23.41-.47v-.75c0-.24-.2-.42-.42-.4Z"/>
  <path class="cls-1" d="M139.81,111.42h17.8c.42,0,.75.34.75.75v.17c0,.42-.34.76-.76.76h-17.8c-.42,0-.76-.34-.76-.76v-.17c0-.42.34-.76.76-.76Z" transform="translate(-1.04 1.4) rotate(-.54)"/>
</svg>