<?xml version="1.0" encoding="UTF-8"?>
<svg id="Layer_1" data-name="Layer 1" xmlns="http://www.w3.org/2000/svg" version="1.1" viewBox="0 0 297 182">
  <defs>
    <style>
      .cls-1 {
        fill: #802023;
        stroke-width: 0px;
      }
    </style>
  </defs>
  <path class="cls-1" d="M69.37,84.57c.22-.09.44-.08.66.02.22.1.37.26.44.48.07.22.07.43-.02.64-2.93,6.27-5.85,11.6-8.75,16s-5.69,7.72-8.37,9.98-5.16,3.38-7.45,3.38c-.67,0-1.33-.1-1.98-.31-2.08-.65-3.76-2.28-5.03-4.9s-2.03-5.93-2.26-9.93.04-8.55.84-13.65c.85-5.33,2.3-10.84,4.35-16.53,2.4-6.68,5.01-11.71,7.82-15.08,2.29-2.73,4.25-3.69,5.89-2.9,1.14.56,1.91,1.88,2.31,3.98.4,2.1.46,4.73.2,7.89s-.66,6.34-1.19,9.52-1.2,6.62-2.02,10.31c-.06.21-.19.37-.4.51s-.42.17-.64.11c-.22-.06-.4-.18-.53-.37s-.17-.4-.11-.64c.88-3.93,1.58-7.52,2.11-10.79.53-3.27.87-6,1.03-8.2.16-2.2.2-4.09.11-5.67-.09-1.58-.27-2.78-.55-3.58-.28-.81-.64-1.31-1.08-1.52-.41-.2-.95-.09-1.63.35-.67.44-1.41,1.13-2.2,2.07-2.61,3.14-5.01,7.7-7.21,13.69s-3.74,11.7-4.62,17.12c-1.17,7.21-1.22,13.32-.13,18.33.5,2.29,1.22,4.14,2.15,5.56.94,1.42,2.04,2.32,3.3,2.7,2.78.88,6.14-.73,10.07-4.83,4.63-4.83,9.43-12.6,14.42-23.3.1-.21.25-.36.47-.44Z"/>
  <path class="cls-1" d="M83.59,85.09c.23-.03.45.03.64.18s.3.34.33.57-.03.44-.18.62c-1.2,1.55-2.64,2.77-4.31,3.65s-3.24,1.16-4.7.83c-.41,1-.98,1.78-1.71,2.35-.73.57-1.49.86-2.29.86h-.04c-.79-.03-1.49-.3-2.09-.81s-1.02-1.22-1.25-2.13c-.38-1.44-.31-2.81.2-4.11.51-1.3,1.25-2.26,2.22-2.88.21-.15.44-.18.7-.09.26-.64.64-1.14,1.12-1.49s.99-.48,1.52-.4c.29.06.56.18.81.37s.5.49.75.9.43,1.04.55,1.89c.12.85.15,1.86.09,3.03-.03.29-.07.59-.13.88,1.11.23,2.35-.04,3.71-.84,1.36-.79,2.53-1.82,3.49-3.08.14-.16.34-.27.57-.3ZM71.37,92.43c.41,0,.84-.19,1.3-.57.45-.38.83-.89,1.12-1.54-1.91-1.05-2.9-2.49-2.99-4.31-.59.56-.99,1.3-1.21,2.24s-.21,1.76.02,2.46c.32,1.15.91,1.72,1.76,1.72ZM74.23,88.35c.06-.7.07-1.31.02-1.82s-.1-.93-.15-1.25c-.06-.32-.13-.59-.22-.79s-.17-.35-.24-.44-.12-.13-.15-.13h-.04c-.12,0-.26.1-.44.29-.18.19-.31.45-.4.77-.18.62-.15,1.25.09,1.89.23.65.75,1.23,1.54,1.76-.01-.11-.01-.2-.01-.28Z"/>
  <path class="cls-1" d="M99.41,84.96c.23-.06.45-.03.66.09.2.12.34.29.4.51s.03.43-.09.64c-1,1.76-1.86,3.15-2.59,4.18s-1.48,1.83-2.24,2.42c-.76.59-1.51.84-2.24.75-1.47-.18-2.62-1.76-3.47-4.75-.62-2.02-1.14-3.03-1.58-3.03-.09-.03-.21.01-.37.11-.16.1-.42.37-.77.79s-.74,1-1.17,1.74c-.42.73-.98,1.82-1.67,3.25-.69,1.44-1.43,3.14-2.22,5.1-.15.35-.41.53-.79.53-.06,0-.12-.02-.18-.04-.5-.12-.72-.43-.66-.92.29-2.4,1.39-6.87,3.3-13.41.21-.67.35-1.19.44-1.54.09-.23.23-.4.44-.51.21-.1.42-.12.64-.07.22.06.39.19.51.4s.13.42.04.66c-.06.21-.21.72-.44,1.54-.65,2.26-1.14,4.02-1.5,5.27.94-1.76,1.76-2.97,2.46-3.65.7-.67,1.38-1,2.02-.97.76.03,1.37.42,1.82,1.19.45.76.89,1.8,1.3,3.12.64,2.26,1.33,3.43,2.07,3.52.35.06.78-.14,1.3-.59.51-.45,1.06-1.11,1.65-1.98.59-.86,1.03-1.55,1.34-2.04.31-.5.67-1.13,1.08-1.89.1-.23.28-.36.51-.42Z"/>
  <path class="cls-1" d="M117.68,84.74c.22.06.4.18.53.37s.18.4.13.64c-.04.23-.17.41-.37.53-5.27,3.43-9.42,6.43-12.44,9.01-1.85,11.13-4,19.6-6.46,25.41-2.46,5.8-4.86,9.02-7.21,9.67-.32.09-.63.13-.92.13-.94,0-1.74-.41-2.42-1.23-1.26-1.58-1.71-4.12-1.36-7.6.41-3.75,1.69-7.59,3.82-11.52,3.14-5.66,7.46-10.9,12.97-15.74.41-2.49.79-5.1,1.14-7.82-.94,1.41-1.8,2.64-2.59,3.69-1.23,1.61-2.29,2.29-3.17,2.02-.7-.2-1.11-.85-1.23-1.93-.09-1.03.07-2.35.46-3.98.4-1.63,1.05-3.23,1.96-4.81s1.9-2.64,2.99-3.17c1.49-.76,2.95-.51,4.35.75.18.18.27.37.29.59,0,.22-.06.42-.22.59s-.36.27-.59.29c-.24.02-.44-.05-.62-.2-1.05-.97-2.12-.97-3.21,0-1.23,1.11-2.21,2.88-2.94,5.3-.73,2.42-.97,4.04-.7,4.86.32-.2.75-.64,1.28-1.32,1.88-2.46,3.38-4.7,4.53-6.73.23-.38.57-.51,1.01-.37s.63.43.57.9c-.41,3.37-.85,6.59-1.32,9.67,2.72-2.23,6.43-4.85,11.12-7.87.18-.14.4-.19.62-.13ZM91.37,128.74c.79-.21,1.65-.91,2.57-2.11.92-1.2,1.93-2.96,3.01-5.27,1.08-2.32,2.2-5.57,3.36-9.76s2.22-9.01,3.19-14.46c-4.63,4.28-8.31,8.89-11.03,13.85-.88,1.58-1.6,3.17-2.18,4.75-.57,1.58-.97,3.02-1.21,4.31-.23,1.29-.35,2.48-.35,3.58s.1,2.03.31,2.79c.21.76.47,1.36.79,1.8.44.52.95.7,1.54.52Z"/>
  <path class="cls-1" d="M134.82,84.85c.22-.07.43-.06.64.04.2.1.35.26.44.48s.07.43-.04.64c-.79,1.7-1.69,3.44-2.68,5.23-1,1.79-2.09,3.6-3.27,5.43s-2.37,3.33-3.54,4.48c-1.17,1.16-2.17,1.74-2.99,1.74-.21,0-.4-.04-.57-.13-1.2-.47-1.58-2.29-1.14-5.45.41-2.96,1.49-7.15,3.25-12.57-.03,0-.05.01-.07.02,0,.02-.04.02-.07.02-.65.44-1.18.78-1.6,1.01-.42.23-1,.5-1.71.79-.72.29-1.4.42-2.04.4-.65-.03-1.25-.23-1.8-.62-1.11-.79-1.68-1.89-1.71-3.3-.03-1.41.5-2.94,1.58-4.62.67-1.05,1.49-1.98,2.44-2.77.95-.79,1.77-.97,2.44-.53.41.23.65.62.73,1.14.07.53-.18,1.55-.77,3.05-.59,1.51-1.57,3.48-2.94,5.91.91.12,2.4-.51,4.48-1.89.38-.26.67-.45.86-.55.19-.1.41-.21.66-.33s.46-.16.64-.13.35.1.53.22c.44.35.51.97.22,1.85-2.93,9.08-4.09,14.59-3.47,16.53.06.12.1.21.13.26.23.03.59-.16,1.08-.57.48-.41,1.08-1.05,1.8-1.93s1.49-1.93,2.33-3.17c.83-1.23,1.76-2.74,2.77-4.53,1.01-1.79,1.98-3.69,2.92-5.71.08-.21.25-.36.47-.44ZM117.74,81.89c-.26,1.03-.21,1.85.18,2.46,2.14-3.72,3.28-6.24,3.43-7.56-.35.21-.75.54-1.21,1.01-.45.47-.92,1.08-1.41,1.82s-.81,1.5-.99,2.27Z"/>
  <path class="cls-1" d="M151.48,85.03c.22-.07.43-.06.64.04.2.1.34.26.42.48s.07.43-.02.64c-3.14,6.48-5.93,9.71-8.4,9.71-.15,0-.31-.02-.48-.04-1.96-.38-3.18-3.02-3.65-7.91-1.44,1.93-2.71,3.52-3.82,4.75-1,1.06-1.85,1.42-2.55,1.1-.7-.26-1.04-1.03-1.01-2.29,0-1.06.23-2.31.7-3.78.47-1.46,1.16-2.89,2.07-4.26.91-1.38,1.89-2.24,2.95-2.59,1.55-.56,2.99-.04,4.31,1.54.15.18.21.38.2.62,0,.23-.11.43-.29.57s-.38.21-.62.2c-.24-.01-.43-.11-.57-.29-1.03-1.23-2.07-1.46-3.12-.7-1.2.85-2.21,2.38-3.01,4.59-.81,2.21-1.12,3.79-.95,4.73.18-.15.38-.34.62-.57,1.17-1.26,2.61-3.06,4.31-5.41.38-.53.64-.89.79-1.1.23-.29.54-.39.92-.29s.59.36.62.77c.06,1.44.18,2.71.35,3.82.18,1.11.35,1.96.53,2.53s.38,1.05.62,1.43c.23.38.42.62.55.73.13.1.27.15.42.15.41.09.93-.11,1.56-.59s1.44-1.42,2.42-2.81c.98-1.39,1.99-3.16,3.01-5.3.09-.24.26-.4.48-.47Z"/>
  <path class="cls-1" d="M187.14,68.92c.15.18.21.38.18.62-.03.23-.15.43-.35.57-.35.23-.69.22-1.01-.04-1.41-.5-11.28-.54-29.62-.13-1.91,8-3.84,16.67-5.8,26.02-2.34,11.28-3.76,19.03-4.26,23.25.06,0,.12.01.18.04.24.06.4.2.48.42s.09.43,0,.64c-.15.47-.27.81-.37,1.03-.1.22-.26.44-.46.66-.2.22-.42.33-.66.33-.09,0-.19-.02-.31-.04-.38-.12-.61-.43-.68-.92-.07-.5-.04-1.17.11-2.02.12-1.23.38-3,.79-5.32.73-4.4,1.83-10.11,3.3-17.14,1.96-9.49,3.94-18.46,5.93-26.9-1.99.03-4.47.09-7.43.18-4.69.12-7.44.18-8.26.18-.23,0-.43-.08-.59-.24s-.24-.36-.24-.59c0-.15.04-.29.11-.42s.18-.23.31-.31.27-.11.42-.11c.82,0,3.56-.07,8.22-.22,2.9-.06,5.54-.12,7.91-.18.94-3.87,1.77-7.15,2.51-9.85.06-.23.19-.41.4-.53.2-.12.42-.15.64-.09s.39.19.51.4.15.43.09.66c-.7,2.61-1.51,5.73-2.42,9.36,8.79-.23,15.43-.32,19.91-.26s7.3.15,8.46.29c1.12.11,1.8.34,2,.66Z"/>
  <path class="cls-1" d="M172.77,85.25c.23-.04.45-.01.64.11s.31.29.37.53c.06.23.03.44-.09.62-.35.56-.73,1.15-1.14,1.78s-1.02,1.49-1.82,2.57c-.81,1.08-1.58,2.03-2.31,2.84s-1.52,1.52-2.37,2.13c-.85.62-1.58.92-2.2.92-.24,0-.44-.04-.62-.13-1.41-.53-1.8-2.77-1.19-6.73-.97,1.32-1.85,2.31-2.64,2.99-1.14.97-2.14,1.08-2.99.35-.79-.64-1.15-1.79-1.08-3.43.07-1.64.55-3.22,1.43-4.75.12-.2.29-.34.53-.4.23-.06.45-.03.66.09s.34.29.4.51.03.43-.09.64c-.5.82-.84,1.69-1.03,2.59-.19.91-.25,1.66-.18,2.26s.21.99.42,1.17c.15.15.42.04.83-.31.76-.64,1.71-1.8,2.86-3.47.21-.26.36-.46.46-.59s.23-.29.37-.48c.15-.19.26-.31.35-.37.09-.06.19-.12.31-.2.12-.07.23-.1.35-.09.12.02.25.05.4.11.38.15.58.48.62.99.03.51-.04,1.18-.22,2-.32,1.61-.45,2.84-.37,3.69.07.85.14,1.37.2,1.56s.13.29.22.29c.09.06.24.04.46-.07.22-.1.48-.27.79-.51.31-.23.65-.53,1.03-.9s.81-.81,1.3-1.34.97-1.11,1.47-1.74,1.04-1.36,1.63-2.2c.59-.83,1.16-1.72,1.71-2.66.12-.2.29-.33.53-.37Z"/>
  <path class="cls-1" d="M184.29,53.67c.62.91.31,3.05-.9,6.44-1.22,3.38-3.19,7.25-5.91,11.58l-.09.09c-1.85,7.38-3.61,15.08-5.3,23.1s-2.76,13.72-3.23,17.12h.09c.23.09.4.23.5.44.1.2.11.42.02.66-.18.5-.31.87-.42,1.12-.1.25-.26.49-.46.73-.2.23-.42.35-.66.35-.09,0-.19-.02-.31-.04-.41-.15-.63-.55-.66-1.21s.18-2.28.62-4.86c.53-3.17,1.32-7.3,2.37-12.4,2.43-11.6,4.85-21.95,7.25-31.03.21-.76.42-1.56.66-2.4.23-.83.57-1.88,1.01-3.14.44-1.26.87-2.37,1.3-3.32.42-.95.9-1.8,1.43-2.55s1.03-1.15,1.49-1.21c.51-.09.9.09,1.2.53ZM178.92,65.89c2.34-4.42,3.66-7.9,3.96-10.42-1.29,1.93-2.61,5.41-3.96,10.42Z"/>
  <path class="cls-1" d="M195.82,85.03c.22-.07.43-.06.64.04.2.1.34.26.42.48s.07.43-.02.64c-3.14,6.48-5.93,9.71-8.4,9.71-.15,0-.31-.02-.48-.04-1.96-.38-3.18-3.02-3.65-7.91-1.44,1.93-2.71,3.52-3.82,4.75-1,1.06-1.85,1.42-2.55,1.1-.7-.26-1.04-1.03-1.01-2.29,0-1.06.23-2.31.7-3.78.47-1.46,1.16-2.89,2.07-4.26.91-1.38,1.89-2.24,2.95-2.59,1.55-.56,2.99-.04,4.31,1.54.15.18.21.38.2.62,0,.23-.11.43-.29.57s-.38.21-.62.2c-.24-.01-.43-.11-.57-.29-1.03-1.23-2.07-1.46-3.12-.7-1.2.85-2.21,2.38-3.01,4.59-.81,2.21-1.12,3.79-.95,4.73.18-.15.38-.34.62-.57,1.17-1.26,2.61-3.06,4.31-5.41.38-.53.64-.89.79-1.1.23-.29.54-.39.92-.29s.59.36.62.77c.06,1.44.18,2.71.35,3.82.18,1.11.35,1.96.53,2.53s.38,1.05.62,1.43c.23.38.42.62.55.73.13.1.27.15.42.15.41.09.93-.11,1.56-.59s1.44-1.42,2.42-2.81c.98-1.39,1.99-3.16,3.01-5.3.09-.24.26-.4.48-.47Z"/>
  <path class="cls-1" d="M231.49,68.92c.15.18.21.38.18.62-.03.23-.15.43-.35.57-.35.23-.69.22-1.01-.04-1.41-.5-11.28-.54-29.62-.13-1.91,8-3.84,16.67-5.8,26.02-2.34,11.28-3.76,19.03-4.26,23.25.06,0,.12.01.18.04.24.06.4.2.48.42s.09.43,0,.64c-.15.47-.27.81-.37,1.03-.1.22-.26.44-.46.66-.2.22-.42.33-.66.33-.09,0-.19-.02-.31-.04-.38-.12-.61-.43-.68-.92-.07-.5-.04-1.17.11-2.02.12-1.23.38-3,.79-5.32.73-4.4,1.83-10.11,3.3-17.14,1.96-9.49,3.94-18.46,5.93-26.9-1.99.03-4.47.09-7.43.18-4.69.12-7.44.18-8.26.18-.23,0-.43-.08-.59-.24s-.24-.36-.24-.59c0-.15.04-.29.11-.42s.18-.23.31-.31.27-.11.42-.11c.82,0,3.56-.07,8.22-.22,2.9-.06,5.54-.12,7.91-.18.94-3.87,1.77-7.15,2.51-9.85.06-.23.19-.41.4-.53.2-.12.42-.15.64-.09s.39.19.51.4.15.43.09.66c-.7,2.61-1.51,5.73-2.42,9.36,8.79-.23,15.43-.32,19.91-.26s7.3.15,8.46.29c1.12.11,1.8.34,2,.66Z"/>
  <path class="cls-1" d="M212.48,84.74c.22-.06.43-.03.64.09.2.12.33.29.37.53.04.23.01.45-.11.66-.82,1.29-1.81,2.63-2.97,4.02-1.16,1.39-2.46,2.65-3.91,3.76-1.45,1.11-2.67,1.67-3.67,1.67-.35,0-.66-.06-.92-.18-1.96-.85-2.17-4.29-.62-10.33.06-.23.19-.41.4-.53s.42-.15.64-.09.39.19.51.4.15.41.09.62c-.35,1.41-.61,2.65-.77,3.71-.16,1.07-.24,1.88-.22,2.44.01.56.07,1.02.18,1.38.1.37.19.59.26.66s.14.12.2.15c.76.32,2.15-.44,4.15-2.29,2.01-1.85,3.74-3.96,5.21-6.33.14-.16.32-.28.54-.34ZM202.75,81.31c-.85-.06-1.11-.41-.79-1.06.29-.53.67-.88,1.14-1.05.73-.23,1.17-.04,1.32.57.15.59-.07,1.03-.66,1.32-.3.15-.63.22-1.01.22Z"/>
  <path class="cls-1" d="M226.13,85.09c.23-.03.45.03.64.18s.3.34.33.57-.03.44-.18.62c-1.2,1.55-2.64,2.77-4.31,3.65-1.67.88-3.24,1.16-4.7.83-.41,1-.98,1.78-1.71,2.35-.73.57-1.49.86-2.29.86h-.04c-.79-.03-1.49-.3-2.09-.81s-1.02-1.22-1.25-2.13c-.38-1.44-.31-2.81.2-4.11s1.25-2.26,2.22-2.88c.21-.15.44-.18.7-.09.26-.64.64-1.14,1.12-1.49s.99-.48,1.52-.4c.29.06.56.18.81.37s.5.49.75.9.43,1.04.55,1.89.15,1.86.09,3.03c-.03.29-.07.59-.13.88,1.11.23,2.35-.04,3.71-.84,1.36-.79,2.53-1.82,3.49-3.08.14-.16.33-.27.57-.3ZM213.91,92.43c.41,0,.84-.19,1.3-.57.45-.38.83-.89,1.12-1.54-1.91-1.05-2.9-2.49-2.99-4.31-.59.56-.99,1.3-1.21,2.24s-.21,1.76.02,2.46c.32,1.15.91,1.72,1.76,1.72ZM216.77,88.35c.06-.7.07-1.31.02-1.82s-.1-.93-.15-1.25c-.06-.32-.13-.59-.22-.79s-.17-.35-.24-.44c-.07-.09-.12-.13-.15-.13h-.04c-.12,0-.26.1-.44.29s-.31.45-.4.77c-.18.62-.15,1.25.09,1.89.23.65.75,1.23,1.54,1.76-.01-.11-.01-.2-.01-.28Z"/>
  <path class="cls-1" d="M241.95,84.96c.23-.06.45-.03.66.09.2.12.34.29.4.51s.03.43-.09.64c-1,1.76-1.86,3.15-2.59,4.18s-1.48,1.83-2.24,2.42c-.76.59-1.51.84-2.24.75-1.47-.18-2.62-1.76-3.47-4.75-.62-2.02-1.14-3.03-1.58-3.03-.09-.03-.21.01-.37.11-.16.1-.42.37-.77.79s-.74,1-1.17,1.74c-.42.73-.98,1.82-1.67,3.25-.69,1.44-1.43,3.14-2.22,5.1-.15.35-.41.53-.79.53-.06,0-.12-.02-.18-.04-.5-.12-.72-.43-.66-.92.29-2.4,1.39-6.87,3.3-13.41.21-.67.35-1.19.44-1.54.09-.23.23-.4.44-.51.21-.1.42-.12.64-.07.22.06.39.19.51.4s.13.42.04.66c-.06.21-.21.72-.44,1.54-.65,2.26-1.14,4.02-1.5,5.27.94-1.76,1.76-2.97,2.46-3.65.7-.67,1.38-1,2.02-.97.76.03,1.37.42,1.82,1.19.45.76.89,1.8,1.3,3.12.64,2.26,1.33,3.43,2.07,3.52.35.06.78-.14,1.3-.59.51-.45,1.06-1.11,1.65-1.98.59-.86,1.03-1.55,1.34-2.04.31-.5.67-1.13,1.08-1.89.1-.23.28-.36.51-.42Z"/>
  <path class="cls-1" d="M259.53,84.57c.23-.03.44.04.62.2s.28.36.31.59-.04.44-.22.62c-5.69,6.62-8.94,10.45-9.76,11.47-.5.64-.98,1.27-1.45,1.89.41,1.67.44,3.28.09,4.83s-.85,2.89-1.5,4c-.64,1.11-1.41,2.02-2.29,2.73-.82.7-1.58,1.06-2.29,1.06-.44,0-.81-.15-1.1-.44-1.55-1.49.19-5.67,5.23-12.53-.32-1.11-.83-2.2-1.54-3.25-1.47-2.2-2.55-4.03-3.25-5.49s-1.03-2.8-.97-4c.06-1.17.37-2.23.95-3.17.57-.94,1.34-1.7,2.31-2.29.82-.5,1.68-.79,2.59-.88s1.74.04,2.51.4c.2.12.34.29.42.51s.06.43-.04.64c-.1.21-.26.34-.48.42-.22.07-.43.07-.64-.02-1.06-.5-2.21-.37-3.47.4-1.52.91-2.33,2.27-2.42,4.09-.06.97.25,2.12.92,3.45.67,1.33,1.67,3,2.99,4.99.56.85,1.01,1.71,1.36,2.59.23-.29.48-.62.75-.97.82-1.03,4.09-4.86,9.8-11.52.15-.19.34-.29.57-.32ZM245.86,107.77c1.29-1.96,1.86-4.12,1.71-6.46-1.23,1.76-2.22,3.33-2.97,4.7s-1.2,2.37-1.36,2.97c-.16.6-.21,1.02-.15,1.25.26-.03.66-.26,1.19-.68.53-.42,1.06-1.01,1.58-1.78Z"/>
</svg>