<?xml version="1.0" encoding="utf-8"?>
<!-- Generator: Adobe Illustrator 27.8.0, SVG Export Plug-In . SVG Version: 6.00 Build 0)  -->
<svg version="1.1" id="Layer_1" xmlns="http://www.w3.org/2000/svg" xmlns:xlink="http://www.w3.org/1999/xlink" x="0px" y="0px"
	 viewBox="0 0 442.35 1080" style="enable-background:new 0 0 442.35 1080;" xml:space="preserve">
<style type="text/css">
	.st0{fill-rule:evenodd;clip-rule:evenodd;fill:#006BB6;}
	.st1{fill-rule:evenodd;clip-rule:evenodd;fill:#58595B;}
	.st2{fill:#485156;}
	.st3{fill-rule:evenodd;clip-rule:evenodd;fill:#73CEE1;}
	.st4{fill-rule:evenodd;clip-rule:evenodd;fill:#00B9F2;}
	.st5{fill-rule:evenodd;clip-rule:evenodd;fill:#FFFFFF;}
	.st6{fill:#006BB6;}
	.st7{fill:#7F1416;}
	.st8{fill-rule:evenodd;clip-rule:evenodd;fill:#7F1416;}
	.st9{fill:#616E7D;}
	.st10{fill:#AAD3C7;}
	.st11{fill:#EBF7F6;}
	.st12{opacity:0.04;clip-path:url(#SVGID_00000023277156475196893510000009091403614428919186_);}
	.st13{fill:#FFFFFF;}
	.st14{clip-path:url(#SVGID_00000034775665319908891410000004584481310521955232_);}
	.st15{opacity:0.12;clip-path:url(#SVGID_00000131359978213818410470000015633276457776361630_);}
	.st16{clip-path:url(#SVGID_00000084511998052052388860000001964934120433313425_);}
	.st17{opacity:0.12;clip-path:url(#SVGID_00000083779785287505834070000013760748974292051605_);}
	.st18{fill:none;stroke:#616E7D;stroke-width:0.6;stroke-linecap:round;stroke-linejoin:round;stroke-miterlimit:10;}
	.st19{fill:#F04B4C;}
</style>
<g>
	<rect x="1" class="st11" width="441.35" height="1081"/>
	<g>
		<defs>
			<rect id="SVGID_1_" width="441.35" height="1081"/>
		</defs>
		<clipPath id="SVGID_00000153682317450244523260000006110054148857640840_">
			<use xlink:href="#SVGID_1_"  style="overflow:visible;"/>
		</clipPath>
		<g style="opacity:0.04;clip-path:url(#SVGID_00000153682317450244523260000006110054148857640840_);">
			<path class="st3" d="M156.7,1037.59c40.72,67.74,33.21,149.52-12.29,208.65l-32.79-18.18c39.17-48.17,46.32-116.25,12.55-172.43
				c-6.91-11.49-15.12-21.81-24.35-30.87c10.12-6.96,19.63-14.89,28.36-23.74C138.95,1011.84,148.56,1024.05,156.7,1037.59
				L156.7,1037.59z M68.98,1001.16c-18.83-11.07-39.82-18.27-61.53-21.25c18.81-3.67,36.63-11.74,51.66-23.77
				c14.26,5.52,27.9,12.63,40.59,21.27C90.41,986.62,80.07,994.57,68.98,1001.16L68.98,1001.16z"/>
			<path class="st3" d="M86.17,1076.71c25.65,42.68,18.84,94.8-13.07,129.98l-32.91-18.25c26.07-23.91,32.81-62.67,13.98-93.99
				c-10.74-17.86-27.81-30.01-46.92-35.36c17.89-2.02,35.42-6.36,52.08-12.89C69.83,1054.52,78.97,1064.74,86.17,1076.71
				L86.17,1076.71z"/>
			<path class="st4" d="M156.06,965.1c-40.72,67.74-118.2,102.38-194.26,94.11v-36.37c63.01,8.5,127.97-19.59,161.74-75.77
				c6.91-11.49,12.1-23.48,15.66-35.7c11.33,4.94,23.24,8.88,35.58,11.72C170.41,937.45,164.2,951.56,156.06,965.1L156.06,965.1z
				 M145.05,873.9c0.56-21.2-3.43-42.26-11.61-61.81c12.71,13.82,28.9,24.6,47.26,31.1c2.16,14.62,2.56,29.53,1.12,44.4
				C168.87,884.47,156.54,879.84,145.05,873.9L145.05,873.9z"/>
			<path class="st4" d="M85.53,925.98C59.87,968.66,9.48,989.05-38.2,980.1v-36.5c34.6,9.73,72.91-4.04,91.73-35.36
				c10.74-17.86,13.16-38.14,8.42-56.71c10.76,13.87,23.44,26.28,37.66,36.88C97.36,901.29,92.72,914.01,85.53,925.98L85.53,925.98z
				"/>
			<path class="st0" d="M221.1,928.31c-81.44,0-151.4-47.14-181.97-114.55l32.79-18.18c23.84,56.67,81.65,96.66,149.18,96.66
				c13.81,0,27.22-1.68,40.01-4.82c1.21,11.9,3.61,23.77,7.23,35.46C253.2,926.43,237.38,928.31,221.1,928.31L221.1,928.31z
				 M297.81,873.56c19.4-10.13,36.38-23.99,49.92-40.56c-6.1,17.48-7.73,36.35-4.4,54.86c-12.11,9.11-25.34,16.89-39.47,23.13
				C300.2,898.65,298.21,886.08,297.81,873.56L297.81,873.56z"/>
			<path class="st0" d="M221.1,850.08c-51.3,0-94.88-31.73-110.65-75.87l32.91-18.25c8.52,33.65,40.09,58.63,77.75,58.63
				c21.47,0,40.96-8.13,55.34-21.35c-7.12,15.89-11.98,32.64-14.42,49.77C249.28,847.58,235.49,850.08,221.1,850.08L221.1,850.08z"
				/>
			<path class="st3" d="M286.78,964.03c-40.72-67.75-33.21-149.52,12.29-208.65l32.79,18.18c-39.17,48.17-46.32,116.25-12.55,172.43
				c6.91,11.49,15.12,21.81,24.35,30.87c-10.12,6.96-19.63,14.89-28.36,23.74C304.53,989.79,294.92,977.57,286.78,964.03
				L286.78,964.03z M374.51,1000.46c18.83,11.07,39.82,18.27,61.53,21.25c-18.81,3.67-36.63,11.74-51.66,23.77
				c-14.26-5.52-27.9-12.63-40.59-21.27C353.07,1015,363.41,1007.06,374.51,1000.46L374.51,1000.46z"/>
			<path class="st3" d="M357.32,924.91c-25.65-42.68-18.84-94.8,13.07-129.98l32.91,18.25c-26.07,23.91-32.81,62.67-13.98,93.99
				c10.74,17.86,27.81,30.01,46.92,35.36c-17.89,2.02-35.42,6.36-52.08,12.89C373.66,947.1,364.51,936.89,357.32,924.91
				L357.32,924.91z"/>
			<path class="st0" d="M221.58,975.65c14.75,0,26.71,11.48,26.71,25.65c0,14.17-11.96,25.65-26.71,25.65
				c-14.75,0-26.71-11.49-26.71-25.65C194.87,987.13,206.83,975.65,221.58,975.65L221.58,975.65z"/>
			<path class="st4" d="M287.42,1036.52c40.72-67.75,118.2-102.38,194.26-94.11v36.37c-63.01-8.5-127.97,19.59-161.73,75.77
				c-6.91,11.49-12.1,23.48-15.66,35.7c-11.33-4.94-23.24-8.88-35.58-11.72C273.08,1064.17,279.29,1050.07,287.42,1036.52
				L287.42,1036.52z M298.44,1127.72c-0.56,21.2,3.43,42.26,11.61,61.81c-12.71-13.82-28.9-24.6-47.26-31.1
				c-2.16-14.62-2.56-29.53-1.12-44.4C274.62,1117.16,286.95,1121.78,298.44,1127.72L298.44,1127.72z"/>
			<path class="st4" d="M357.96,1075.64c25.65-42.68,76.05-63.07,123.73-54.12v36.5c-34.6-9.73-72.91,4.04-91.73,35.36
				c-10.74,17.86-13.16,38.14-8.42,56.71c-10.76-13.87-23.44-26.28-37.66-36.88C346.12,1100.33,350.76,1087.62,357.96,1075.64
				L357.96,1075.64z"/>
			<path class="st0" d="M222.38,1073.31c81.44,0,151.4,47.14,181.97,114.55l-32.79,18.19c-23.84-56.67-81.65-96.66-149.18-96.66
				c-13.81,0-27.22,1.68-40.01,4.82c-1.21-11.9-3.61-23.77-7.23-35.46C190.29,1075.19,206.11,1073.31,222.38,1073.31L222.38,1073.31
				z M145.67,1128.07c-19.4,10.13-36.38,23.99-49.92,40.56c6.1-17.48,7.73-36.35,4.4-54.86c12.11-9.11,25.34-16.89,39.47-23.13
				C143.29,1102.97,145.28,1115.54,145.67,1128.07L145.67,1128.07z"/>
			<path class="st0" d="M352.46,760.78c-6.44-10.71-2.62-24.4,8.53-30.58c11.15-6.18,25.4-2.51,31.84,8.19
				c6.44,10.71,2.62,24.4-8.53,30.58C373.15,775.15,358.89,771.49,352.46,760.78L352.46,760.78z"/>
			<path class="st0" d="M70.69,772.05c-12.87,0-23.31-10.02-23.31-22.39s10.43-22.39,23.31-22.39c12.87,0,23.3,10.02,23.3,22.39
				S83.56,772.05,70.69,772.05L70.69,772.05z"/>
		</g>
	</g>
</g>
</svg>
