<?xml version="1.0" encoding="utf-8"?>
<!-- Generator: Adobe Illustrator 27.8.0, SVG Export Plug-In . SVG Version: 6.00 Build 0)  -->
<svg version="1.1" id="Layer_1" xmlns="http://www.w3.org/2000/svg" xmlns:xlink="http://www.w3.org/1999/xlink" x="0px" y="0px"
	 viewBox="0 0 438 111" style="enable-background:new 0 0 438 111;" xml:space="preserve">
<style type="text/css">
	.st0{fill-rule:evenodd;clip-rule:evenodd;fill:#006BB6;}
	.st1{fill-rule:evenodd;clip-rule:evenodd;fill:#58595B;}
	.st2{fill:#485156;}
	.st3{fill-rule:evenodd;clip-rule:evenodd;fill:#73CEE1;}
	.st4{fill-rule:evenodd;clip-rule:evenodd;fill:#00B9F2;}
	.st5{fill-rule:evenodd;clip-rule:evenodd;fill:#FFFFFF;}
	.st6{fill:#006BB6;}
	.st7{fill:#7F1416;}
	.st8{fill-rule:evenodd;clip-rule:evenodd;fill:#7F1416;}
	.st9{fill:#616E7D;}
	.st10{fill:#AAD3C7;}
	.st11{fill:#EBF7F6;}
	.st12{opacity:0.04;clip-path:url(#SVGID_00000095317677031420197540000015434012898763072428_);}
	.st13{fill:#FFFFFF;}
	.st14{clip-path:url(#SVGID_00000176041949071603656680000014504135314873291148_);}
	.st15{opacity:0.12;clip-path:url(#SVGID_00000060746298587939881070000016724940786487017135_);}
	.st16{clip-path:url(#SVGID_00000055665581890644390250000015556348857709179288_);}
	.st17{opacity:0.12;clip-path:url(#SVGID_00000109029447194365152390000010820019490807610267_);}
	.st18{fill:none;stroke:#616E7D;stroke-width:0.6;stroke-linecap:round;stroke-linejoin:round;stroke-miterlimit:10;}
	.st19{fill:#F04B4C;}
</style>
<g>
	<g>
		<g>
			<path class="st0" d="M39.02,42.79c-0.3,0.72-0.69,1.38-1.25,1.89c-2.52,2.29-7.39,1.6-11.56,1.57l-0.05-5.05h0.6
				c0,3.01,5.41,5.2,8.39,2.36c2.12-2.02,0.73-4.69-1.85-6.2l-4.3-2.51c-1.14-0.65-1.96-1.39-2.47-2.24
				c-0.51-0.85-0.76-1.78-0.76-2.79c0-0.83,0.15-1.57,0.46-2.23c2.01-4.26,8.1-3.05,11.83-2.79v4.36h-0.6
				c-0.08-2.45-3.1-3.67-5.46-3.16c-2.25,0.49-3.61,2.89-2.25,4.91c0.34,0.5,0.9,0.99,1.67,1.45c0.86,0.5,1.7,0.99,2.52,1.47
				c0.83,0.47,1.47,0.85,1.93,1.14c1.15,0.69,2.28,1.64,2.93,2.85C39.62,39.39,39.71,41.13,39.02,42.79z"/>
			<path class="st0" d="M62.34,46.18h-6.99v-0.45c0.22-0.04,0.44-0.11,0.66-0.2c0.22-0.09,0.42-0.23,0.6-0.41
				c0.18-0.18,0.32-0.42,0.43-0.71c0.11-0.29,0.16-0.67,0.16-1.14v-6.51c0-0.3,0.06-0.53,0.18-0.68c0.12-0.15,0.26-0.23,0.42-0.23
				v-0.15H47.34v0.15c0.16,0,0.3,0.08,0.42,0.24c0.12,0.16,0.18,0.38,0.18,0.67v6.54c0,0.44,0.05,0.81,0.16,1.11
				c0.11,0.29,0.25,0.53,0.43,0.71c0.18,0.18,0.38,0.32,0.6,0.41c0.22,0.09,0.44,0.16,0.66,0.2v0.45H42.8v-0.45
				c0.22-0.04,0.44-0.11,0.66-0.2c0.22-0.09,0.42-0.23,0.6-0.41c0.18-0.18,0.32-0.42,0.43-0.71c0.11-0.29,0.16-0.67,0.16-1.14V27.88
				c0-0.44-0.05-0.82-0.16-1.12c-0.11-0.3-0.25-0.55-0.43-0.73c-0.18-0.18-0.38-0.32-0.6-0.41c-0.22-0.09-0.44-0.16-0.66-0.2v-0.45
				h6.99v0.45c-0.22,0.04-0.44,0.11-0.66,0.2c-0.22,0.09-0.42,0.23-0.6,0.41c-0.18,0.18-0.32,0.42-0.43,0.73
				c-0.11,0.3-0.16,0.68-0.16,1.12v5.09c0,0.61-0.2,0.91-0.6,0.91v0.15H57.8v-0.15c-0.16,0-0.3-0.08-0.42-0.23
				c-0.12-0.15-0.18-0.38-0.18-0.68v-5.09c0-0.44-0.05-0.82-0.16-1.12c-0.11-0.3-0.25-0.55-0.43-0.73c-0.18-0.18-0.38-0.32-0.6-0.41
				c-0.22-0.09-0.44-0.16-0.66-0.2v-0.45h6.99v0.45c-0.22,0.04-0.44,0.11-0.66,0.2c-0.22,0.09-0.42,0.23-0.6,0.41
				c-0.18,0.18-0.32,0.42-0.43,0.73c-0.11,0.3-0.16,0.68-0.16,1.12V43.3c0,0.44,0.05,0.81,0.16,1.11c0.11,0.29,0.25,0.53,0.43,0.71
				c0.18,0.18,0.38,0.32,0.6,0.41c0.22,0.09,0.44,0.16,0.66,0.2V46.18z"/>
			<path class="st0" d="M72.81,46.18h-6.99v-0.45c0.22-0.04,0.44-0.11,0.66-0.2c0.22-0.09,0.42-0.23,0.6-0.41
				c0.18-0.18,0.32-0.42,0.43-0.71c0.11-0.29,0.16-0.67,0.16-1.14V27.88c0-0.44-0.05-0.82-0.16-1.12c-0.11-0.3-0.25-0.55-0.43-0.73
				c-0.18-0.18-0.38-0.32-0.6-0.41c-0.22-0.09-0.44-0.16-0.66-0.2v-0.45h6.99v0.45c-0.22,0.04-0.44,0.11-0.66,0.2
				c-0.22,0.09-0.42,0.23-0.6,0.41c-0.18,0.18-0.32,0.42-0.43,0.73c-0.11,0.3-0.16,0.68-0.16,1.12V43.3c0,0.44,0.05,0.81,0.16,1.11
				c0.11,0.29,0.25,0.53,0.43,0.71c0.18,0.18,0.38,0.32,0.6,0.41c0.22,0.09,0.44,0.16,0.66,0.2V46.18z"/>
			<path class="st0" d="M95.95,25.43c-0.76,0.2-1.31,0.5-1.66,0.89c-0.35,0.39-0.63,0.88-0.85,1.47l-6.72,18.39h-1.88l-6.99-18.72
				c-0.22-0.59-0.51-1.03-0.88-1.33c-0.37-0.3-0.84-0.54-1.42-0.7v-0.45h6.72v0.45c-0.44,0.02-0.77,0.16-1,0.42
				c-0.23,0.26-0.23,0.67-0.01,1.21l5.56,15.18l0.09-0.3c-0.08-0.22-0.11-0.43-0.09-0.62c0.02-0.19,0.08-0.42,0.18-0.68l4.9-13.48
				c0.2-0.51,0.19-0.89-0.01-1.17c-0.21-0.27-0.55-0.46-1.03-0.56v-0.45h5.11V25.43z"/>
		</g>
		<path class="st0" d="M125.26,24.9c-0.74,0.16-1.23,0.44-1.48,0.83c-0.25,0.39-0.37,0.85-0.37,1.38V46.1l-14.58-18.24v0.3
			c0.14,0.16,0.24,0.35,0.3,0.56c0.06,0.21,0.09,0.52,0.09,0.92v13.33c0,0.55,0.13,1.02,0.4,1.42c0.27,0.4,0.76,0.67,1.48,0.79v0.45
			h-5.38v-0.45c0.74-0.16,1.23-0.44,1.48-0.83c0.25-0.39,0.37-0.85,0.37-1.38V26.32c-0.28-0.4-0.56-0.72-0.84-0.95
			c-0.28-0.23-0.62-0.39-1.02-0.47v-0.45h4.51l11.95,14.9v-0.33c-0.16-0.18-0.27-0.38-0.33-0.59c-0.06-0.21-0.09-0.49-0.09-0.83
			V27.11c0-0.55-0.13-1.02-0.4-1.42c-0.27-0.4-0.76-0.67-1.48-0.79v-0.45h5.38V24.9L125.26,24.9z M147.12,45.65h-6.72v-0.45
			c0.3-0.04,0.57-0.12,0.82-0.24c0.25-0.12,0.37-0.37,0.37-0.76c0-0.16-0.05-0.36-0.15-0.61l-1.61-4.06
			c-0.16-0.36-0.06-0.62,0.3-0.76l-0.06-0.18h-8.96l-0.03,0.15c0.3,0.14,0.37,0.4,0.21,0.79l-1.55,3.97
			c-0.04,0.1-0.07,0.2-0.09,0.29c-0.02,0.09-0.03,0.19-0.03,0.29c0,0.34,0.12,0.6,0.37,0.77c0.25,0.17,0.52,0.29,0.82,0.35v0.45
			h-5.11v-0.45c0.62-0.14,1.13-0.4,1.54-0.79c0.41-0.38,0.72-0.86,0.94-1.42l6.48-16.54c-0.22-0.5-0.46-0.87-0.72-1.09
			c-0.26-0.22-0.63-0.37-1.11-0.45v-0.45h4.48l7.56,18.75c0.22,0.55,0.5,0.97,0.85,1.27c0.35,0.3,0.81,0.55,1.39,0.73V45.65
			L147.12,45.65z M139.32,36.77l-0.06-0.15c-0.22-0.04-0.4-0.11-0.54-0.2c-0.14-0.09-0.26-0.27-0.36-0.53l-3.05-7.82l-0.09,0.21
			c0.18,0.36,0.17,0.79-0.03,1.27l-2.48,6.33c-0.14,0.38-0.39,0.63-0.75,0.73l-0.06,0.15H139.32L139.32,36.77z M168.8,35.05
			c0,1.53-0.28,2.95-0.85,4.24c-0.57,1.29-1.34,2.41-2.33,3.35c-0.99,0.94-2.14,1.68-3.47,2.21c-1.32,0.54-2.74,0.8-4.26,0.8h-8.55
			v-0.45c0.22-0.04,0.44-0.11,0.66-0.2c0.22-0.09,0.42-0.23,0.6-0.41c0.18-0.18,0.32-0.42,0.43-0.71c0.11-0.29,0.16-0.67,0.16-1.14
			V27.32c0-0.44-0.05-0.82-0.16-1.12c-0.11-0.3-0.25-0.55-0.43-0.73c-0.18-0.18-0.38-0.31-0.6-0.39c-0.22-0.08-0.44-0.14-0.66-0.18
			v-0.45h8.55c1.51,0,2.93,0.27,4.26,0.8c1.32,0.53,2.48,1.27,3.47,2.21c0.99,0.94,1.76,2.05,2.33,3.35
			C168.52,32.1,168.8,33.51,168.8,35.05L168.8,35.05z M165.1,35.05c0-1.29-0.22-2.48-0.66-3.57c-0.44-1.09-1.05-2.03-1.82-2.83
			c-0.78-0.8-1.7-1.42-2.78-1.86c-1.08-0.44-2.25-0.67-3.53-0.67h-2.42v0.15c0.16,0,0.3,0.08,0.42,0.23
			c0.12,0.15,0.18,0.38,0.18,0.68v15.75c0,0.3-0.06,0.53-0.18,0.68c-0.12,0.15-0.26,0.23-0.42,0.23v0.15h2.42
			c1.27,0,2.45-0.22,3.53-0.67c1.08-0.44,2-1.07,2.78-1.86c0.78-0.8,1.38-1.74,1.82-2.83C164.88,37.53,165.1,36.34,165.1,35.05
			L165.1,35.05z M190.8,45.65h-6.72v-0.45c0.3-0.04,0.57-0.12,0.82-0.24c0.25-0.12,0.37-0.37,0.37-0.76c0-0.16-0.05-0.36-0.15-0.61
			l-1.61-4.06c-0.16-0.36-0.06-0.62,0.3-0.76l-0.06-0.18h-8.96l-0.03,0.15c0.3,0.14,0.37,0.4,0.21,0.79l-1.55,3.97
			c-0.04,0.1-0.07,0.2-0.09,0.29c-0.02,0.09-0.03,0.19-0.03,0.29c0,0.34,0.12,0.6,0.37,0.77c0.25,0.17,0.52,0.29,0.82,0.35v0.45
			h-5.11v-0.45c0.62-0.14,1.13-0.4,1.54-0.79c0.41-0.38,0.72-0.86,0.94-1.42l6.48-16.54c-0.22-0.5-0.46-0.87-0.72-1.09
			c-0.26-0.22-0.63-0.37-1.11-0.45v-0.45H181l7.56,18.75c0.22,0.55,0.5,0.97,0.85,1.27c0.35,0.3,0.81,0.55,1.39,0.73V45.65
			L190.8,45.65z M183,36.77l-0.06-0.15c-0.22-0.04-0.4-0.11-0.54-0.2c-0.14-0.09-0.26-0.27-0.36-0.53L179,28.08l-0.09,0.21
			c0.18,0.36,0.17,0.79-0.03,1.27l-2.48,6.33c-0.14,0.38-0.39,0.63-0.75,0.73l-0.06,0.15H183L183,36.77z M211.68,45.65
			c-0.52,0.26-1.14,0.39-1.85,0.39c-1.59,0-2.65-0.75-3.17-2.24c-0.26-0.75-0.51-1.49-0.76-2.24c-0.25-0.75-0.47-1.41-0.67-2
			c-0.28-0.79-0.59-1.42-0.94-1.89c-0.35-0.47-0.73-0.84-1.15-1.11c-0.42-0.26-0.87-0.44-1.36-0.53c-0.49-0.09-1-0.14-1.54-0.14
			h-2.66v0.15c0.16,0,0.3,0.08,0.42,0.23c0.12,0.15,0.18,0.38,0.18,0.68v5.79c0,0.58,0.12,1.11,0.37,1.58
			c0.25,0.46,0.74,0.76,1.48,0.88v0.45h-6.99v-0.45c0.22-0.04,0.44-0.11,0.66-0.2c0.22-0.09,0.42-0.23,0.6-0.41
			c0.18-0.18,0.32-0.42,0.43-0.71c0.11-0.29,0.16-0.67,0.16-1.14V27.35c0-0.48-0.06-0.88-0.18-1.2c-0.12-0.31-0.27-0.56-0.46-0.74
			c-0.19-0.18-0.39-0.31-0.61-0.38c-0.22-0.07-0.42-0.12-0.6-0.14v-0.45h10.31c0.86,0,1.66,0.14,2.41,0.42
			c0.75,0.28,1.4,0.68,1.96,1.2c0.56,0.51,1,1.13,1.33,1.83c0.33,0.71,0.49,1.49,0.49,2.36c0,0.57-0.09,1.13-0.27,1.7
			c-0.18,0.57-0.45,1.1-0.81,1.59c-0.36,0.49-0.81,0.93-1.34,1.3c-0.54,0.37-1.16,0.65-1.85,0.83c0.7,0.24,1.31,0.63,1.85,1.17
			c0.54,0.54,0.97,1.27,1.28,2.2c0.12,0.36,0.26,0.78,0.43,1.24c0.17,0.46,0.33,0.92,0.48,1.38c0.15,0.45,0.29,0.87,0.43,1.26
			c0.14,0.38,0.24,0.68,0.3,0.88c0.2,0.53,0.44,0.9,0.73,1.14c0.29,0.23,0.59,0.32,0.91,0.26V45.65L211.68,45.65z M205.82,30.23
			c0-0.63-0.11-1.19-0.34-1.7c-0.23-0.5-0.55-0.94-0.96-1.3c-0.41-0.36-0.89-0.64-1.43-0.83c-0.55-0.19-1.14-0.29-1.78-0.29h-3.71
			v0.15c0.16,0,0.29,0.08,0.4,0.23c0.11,0.15,0.16,0.38,0.16,0.68v6.15c0,0.3-0.06,0.53-0.18,0.68c-0.12,0.15-0.26,0.23-0.42,0.23
			v0.15h3.73c0.62,0,1.2-0.09,1.75-0.27c0.55-0.18,1.03-0.45,1.43-0.8c0.41-0.35,0.73-0.79,0.97-1.3
			C205.7,31.49,205.82,30.9,205.82,30.23z"/>
	</g>
	<path class="st1" d="M98.98,83.87c0-1.47-1.13-2.58-2.75-2.58H94.3v5.18h1.93C97.86,86.47,98.98,85.33,98.98,83.87L98.98,83.87z
		 M98.03,83.88c0,1.02-0.71,1.76-1.8,1.76h-1.02v-3.52h1.02C97.32,82.11,98.03,82.86,98.03,83.88L98.03,83.88z M104.78,81.28h-3.84
		v5.18h3.88v-0.81h-2.97v-1.39h2.6v-0.81h-2.6V82.1h2.93V81.28L104.78,81.28z M106.75,86.47h3.64v-0.83h-2.72v-4.35h-0.91V86.47
		L106.75,86.47z M115.57,84.28v2.18h0.91v-5.18h-0.91v2.15h-2.47v-2.15h-0.91v5.18h0.91v-2.18H115.57L115.57,84.28z M118.72,81.28
		v5.18h0.91v-5.18H118.72L118.72,81.28z M129.33,84.87l-2.78-3.58h-0.84v5.18h0.9v-3.69l2.86,3.69h0.76v-5.18h-0.9V84.87
		L129.33,84.87z M136.92,85.64l-0.58-0.59c-0.44,0.41-0.85,0.67-1.49,0.67c-0.99,0-1.71-0.83-1.71-1.85c0-1.02,0.72-1.84,1.71-1.84
		c0.59,0,1.04,0.26,1.45,0.64l0.58-0.67c-0.5-0.47-1.07-0.81-2.03-0.81c-1.57,0-2.67,1.21-2.67,2.69c0,1.5,1.13,2.67,2.64,2.67
		C135.79,86.56,136.38,86.2,136.92,85.64L136.92,85.64z M143.13,86.47l-1.4-1.96c0.73-0.2,1.24-0.72,1.24-1.58
		c0-1.01-0.73-1.64-1.93-1.64h-2.31v5.18h0.91v-1.81h1.14l1.27,1.81H143.13L143.13,86.47z M142.04,82.98c0,0.53-0.41,0.87-1.07,0.87
		h-1.33v-1.74h1.33C141.64,82.11,142.04,82.41,142.04,82.98z"/>
	<path class="st1" d="M33.82,53.25v4.5h0.51v-4.5H33.82L33.82,53.25z M39.61,56.86l-2.84-3.6H36.3v4.5h0.49v-3.69l2.91,3.69h0.4
		v-4.5h-0.49V56.86L39.61,56.86z M42.42,54.38c0-0.41,0.37-0.73,0.96-0.73c0.46,0,0.88,0.15,1.3,0.49l0.3-0.39
		c-0.46-0.37-0.93-0.55-1.58-0.55c-0.85,0-1.48,0.51-1.48,1.23c0,0.74,0.48,1.08,1.51,1.3c0.95,0.2,1.17,0.44,1.17,0.86
		c0,0.46-0.4,0.77-1,0.77c-0.62,0-1.07-0.21-1.54-0.64l-0.32,0.37c0.54,0.48,1.13,0.72,1.84,0.72c0.89,0,1.54-0.5,1.54-1.28
		c0-0.69-0.46-1.06-1.47-1.28C42.65,55.04,42.42,54.81,42.42,54.38L42.42,54.38z M48.4,53.72h1.51v-0.47h-3.54v0.47h1.51v4.03h0.51
		V53.72L48.4,53.72z M51.56,53.25v4.5h0.51v-4.5H51.56L51.56,53.25z M55.74,53.72h1.51v-0.47h-3.54v0.47h1.51v4.03h0.51V53.72
		L55.74,53.72z M62.54,53.25h-0.51v2.61c0,0.98-0.53,1.48-1.36,1.48c-0.86,0-1.38-0.55-1.38-1.52v-2.58h-0.51v2.61
		c0,1.27,0.76,1.95,1.87,1.95c1.13,0,1.88-0.68,1.88-1.99V53.25L62.54,53.25z M66.09,53.72h1.51v-0.47h-3.54v0.47h1.51v4.03h0.51
		V53.72L66.09,53.72z M69.25,53.25v4.5h0.51v-4.5H69.25L69.25,53.25z M76.12,55.49c0-1.25-0.92-2.32-2.29-2.32
		c-1.37,0-2.3,1.09-2.3,2.33c0,1.25,0.92,2.32,2.29,2.32C75.19,57.82,76.12,56.74,76.12,55.49L76.12,55.49z M75.59,55.51
		c0,1.03-0.73,1.85-1.76,1.85c-1.03,0-1.77-0.83-1.77-1.86c0-1.03,0.73-1.85,1.76-1.85C74.85,53.64,75.59,54.48,75.59,55.51
		L75.59,55.51z M81.16,56.86l-2.84-3.6h-0.48v4.5h0.5v-3.69l2.91,3.69h0.41v-4.5h-0.49V56.86L81.16,56.86z M91.64,55.49
		c0-1.25-0.92-2.32-2.29-2.32c-1.37,0-2.3,1.09-2.3,2.33c0,1.25,0.92,2.32,2.29,2.32C90.71,57.82,91.64,56.74,91.64,55.49
		L91.64,55.49z M91.11,55.51c0,1.03-0.73,1.85-1.76,1.85c-1.03,0-1.77-0.83-1.77-1.86c0-1.03,0.73-1.85,1.76-1.85
		C90.37,53.64,91.11,54.48,91.11,55.51L91.11,55.51z M96.6,53.25h-3.23v4.5h0.51v-1.96h2.44v-0.46h-2.44v-1.61h2.73V53.25
		L96.6,53.25z M105.05,53.25h-3.25v4.5h3.29v-0.46h-2.78v-1.57h2.46v-0.46h-2.46v-1.53h2.74V53.25L105.05,53.25z M110.55,54.11v3.64
		h0.51v-4.5h-0.51l-1.64,2.45l-1.64-2.45h-0.51v4.5h0.5v-3.63l1.64,2.4h0.03L110.55,54.11L110.55,54.11z M113.03,53.25v4.5h0.51
		v-4.5H113.03L113.03,53.25z M118.82,56.86l-2.83-3.6h-0.48v4.5H116v-3.69l2.91,3.69h0.41v-4.5h-0.5V56.86L118.82,56.86z
		 M124.49,53.25h-3.25v4.5h3.28v-0.46h-2.78v-1.57h2.46v-0.46h-2.46v-1.53h2.74V53.25L124.49,53.25z M129.51,56.86l-2.83-3.6h-0.48
		v4.5h0.5v-3.69l2.91,3.69H130v-4.5h-0.5V56.86L129.51,56.86z M135.79,57.03l-0.33-0.33c-0.43,0.41-0.84,0.65-1.45,0.65
		c-0.99,0-1.74-0.82-1.74-1.86c0-1.05,0.75-1.85,1.74-1.85c0.61,0,1.04,0.26,1.41,0.62l0.35-0.37c-0.45-0.42-0.94-0.71-1.76-0.71
		c-1.32,0-2.28,1.05-2.28,2.33c0,1.3,0.96,2.32,2.26,2.32C134.8,57.82,135.32,57.51,135.79,57.03L135.79,57.03z M140.58,53.25h-3.25
		v4.5h3.28v-0.46h-2.78v-1.57h2.46v-0.46h-2.46v-1.53h2.74V53.25L140.58,53.25z M150.09,55.49c0-1.27-0.98-2.24-2.39-2.24h-1.56v4.5
		h1.56C149.12,57.75,150.09,56.77,150.09,55.49L150.09,55.49z M149.57,55.51c0,1-0.73,1.77-1.86,1.77h-1.05v-3.56h1.05
		C148.84,53.72,149.57,54.5,149.57,55.51L149.57,55.51z M155.07,53.25h-3.25v4.5h3.28v-0.46h-2.78v-1.57h2.46v-0.46h-2.46v-1.53
		h2.74V53.25L155.07,53.25z M160.03,53.25h-3.25v4.5h3.28v-0.46h-2.78v-1.57h2.46v-0.46h-2.46v-1.53h2.74V53.25L160.03,53.25z
		 M165.54,54.11v3.64h0.51v-4.5h-0.51l-1.64,2.45l-1.64-2.45h-0.51v4.5h0.49v-3.63l1.64,2.4h0.03L165.54,54.11L165.54,54.11z
		 M171.22,53.25h-3.25v4.5h3.29v-0.46h-2.78v-1.57h2.46v-0.46h-2.46v-1.53h2.74V53.25L171.22,53.25z M176.88,55.49
		c0-1.27-0.98-2.24-2.39-2.24h-1.56v4.5h1.56C175.9,57.75,176.88,56.77,176.88,55.49L176.88,55.49z M176.35,55.51
		c0,1-0.73,1.77-1.86,1.77h-1.05v-3.56h1.05C175.63,53.72,176.35,54.5,176.35,55.51L176.35,55.51z M183.17,53.72h1.51v-0.47h-3.54
		v0.47h1.51v4.03h0.51V53.72L183.17,53.72z M190.37,55.49c0-1.25-0.92-2.32-2.29-2.32c-1.37,0-2.3,1.09-2.3,2.33
		c0,1.25,0.92,2.32,2.29,2.32C189.43,57.82,190.37,56.74,190.37,55.49L190.37,55.49z M189.84,55.51c0,1.03-0.73,1.85-1.76,1.85
		c-1.03,0-1.77-0.83-1.77-1.86c0-1.03,0.73-1.85,1.76-1.85C189.09,53.64,189.84,54.48,189.84,55.51L189.84,55.51z M196.94,53.25
		h-1.92v4.5h2c0.98,0,1.63-0.46,1.63-1.23c0-0.62-0.43-0.93-0.96-1.09c0.35-0.15,0.71-0.46,0.71-1.05
		C198.41,53.69,197.83,53.25,196.94,53.25L196.94,53.25L196.94,53.25z M196.86,55.26h-1.33v-1.55h1.37c0.64,0,1,0.29,1,0.74
		C197.89,54.98,197.47,55.26,196.86,55.26L196.86,55.26z M197.04,57.29h-1.51v-1.59h1.42c0.78,0,1.2,0.28,1.2,0.78
		C198.14,56.99,197.72,57.29,197.04,57.29L197.04,57.29L197.04,57.29z M203.57,53.25h-3.25v4.5h3.28v-0.46h-2.78v-1.57h2.46v-0.46
		h-2.46v-1.53h2.74V53.25z"/>
	<path class="st1" d="M26.74,52.76v22.39c-0.35,0-0.91-0.19-0.91-0.78V53.54C25.83,52.95,26.39,52.76,26.74,52.76z"/>
	<g>
		<path class="st0" d="M70.22,64.68h1.27v5.46c0,1.36-0.39,2.41-1.07,3.13c-0.71,0.76-1.74,1.15-2.98,1.15
			c-1.22,0-2.24-0.39-2.96-1.13c-0.68-0.71-1.07-1.74-1.07-3.06v-5.54h1.52v5.47c0,0.91,0.23,1.62,0.67,2.1
			c0.43,0.47,1.07,0.72,1.87,0.72c0.78,0,1.42-0.24,1.85-0.71c0.42-0.46,0.65-1.14,0.65-2.05v-5.54H70.22L70.22,64.68z M78.42,64.77
			l5.29,6.73v-6.83h1.49v9.59h-1.19l-5.51-7v7h-1.49v-9.59h1.33L78.42,64.77L78.42,64.77z M90.95,74.03v-9.35h1.52v9.59h-1.52V74.03
			L90.95,74.03z M99.06,64.83l3.01,7.29l3.09-7.44h1.64c-1.37,3.22-2.74,6.44-4.12,9.66h-1.23l-4.12-9.66H99L99.06,64.83
			L99.06,64.83z M111.8,64.68h6.82v1.43h-5.55v2.61h4.97v1.43h-4.97v2.69h5.62v1.43h-7.13v-9.59H111.8L111.8,64.68z M129.24,70.46
			l2.86,3.81h-1.88l-2.64-3.54h-2.23v3.54h-1.52v-9.59H128c1.06,0,1.93,0.29,2.55,0.8c0.63,0.52,0.99,1.27,0.99,2.17
			c0,0.79-0.26,1.43-0.71,1.92C130.42,69.99,129.88,70.29,129.24,70.46L129.24,70.46z M129.46,68.86c0.34-0.28,0.54-0.68,0.54-1.18
			c0-0.49-0.18-0.87-0.52-1.13c-0.35-0.28-0.88-0.43-1.56-0.43h-2.56v3.2h2.55C128.55,69.32,129.09,69.16,129.46,68.86L129.46,68.86
			z M138.55,66.33c-0.29,0.22-0.45,0.53-0.45,0.87c0,0.36,0.09,0.64,0.39,0.86c0.34,0.26,0.92,0.47,1.89,0.68
			c1.05,0.23,1.83,0.54,2.35,0.99c0.55,0.47,0.81,1.06,0.81,1.84c0,0.85-0.35,1.56-0.95,2.06c-0.6,0.5-1.43,0.78-2.41,0.78
			c-0.75,0-1.44-0.13-2.08-0.38c-0.64-0.25-1.23-0.63-1.8-1.14l-0.18-0.16l0.95-1.13l0.19,0.17c0.45,0.41,0.9,0.72,1.37,0.92
			c0.47,0.2,0.98,0.3,1.58,0.3c0.55,0,1.01-0.14,1.32-0.38c0.3-0.23,0.46-0.55,0.46-0.94c0-0.35-0.09-0.63-0.37-0.85
			c-0.32-0.25-0.88-0.46-1.8-0.65c-1.09-0.24-1.88-0.53-2.42-0.98c-0.56-0.46-0.83-1.07-0.83-1.9c0-0.8,0.35-1.49,0.93-1.98
			c0.58-0.48,1.38-0.76,2.3-0.76c0.69,0,1.29,0.1,1.83,0.3c0.55,0.2,1.04,0.49,1.52,0.88l0.19,0.15l-0.89,1.19l-0.2-0.16
			c-0.4-0.33-0.8-0.56-1.21-0.71c-0.41-0.15-0.82-0.22-1.26-0.22C139.27,65.97,138.84,66.1,138.55,66.33L138.55,66.33z M148.8,74.03
			v-9.35h1.52v9.59h-1.52V74.03L148.8,74.03z M162.82,66.12h-2.81v8.15h-1.53v-8.15h-3.05v-1.44h7.64v1.44H162.82L162.82,66.12z
			 M176.2,65.07l-3.74,5.42v3.78h-1.53V70.5l-4-5.82h1.85l2.94,4.36l2.96-4.36h1.79L176.2,65.07z"/>
		<g>
			<g>
				<path class="st0" d="M58.85,69.68H33.79c3.46,0.28,14.88,0.66,24.75,0.54C58.59,70.08,58.79,69.82,58.85,69.68z"/>
				<path class="st0" d="M58.86,69.29H33.79c3.46-0.28,14.88-0.66,24.75-0.54C58.59,68.89,58.8,69.15,58.86,69.29z"/>
				<polygon class="st0" points="58.54,70.23 57.78,70.23 58.4,69.47 59.15,69.47 				"/>
				<polygon class="st0" points="58.54,68.74 57.78,68.74 58.4,69.48 59.15,69.48 				"/>
			</g>
			<g>
				<path class="st0" d="M178.58,69.68h25.06c-3.46,0.28-14.88,0.66-24.75,0.54C178.83,70.08,178.64,69.82,178.58,69.68z"/>
				<path class="st0" d="M178.57,69.29h25.07c-3.46-0.28-14.88-0.66-24.75-0.54C178.83,68.89,178.63,69.15,178.57,69.29z"/>
				<polygon class="st0" points="178.89,70.23 179.64,70.23 179.03,69.47 178.27,69.47 				"/>
				<polygon class="st0" points="178.89,68.74 179.64,68.74 179.03,69.48 178.27,69.48 				"/>
			</g>
		</g>
	</g>
	<path class="st1" d="M210.77,52.76v22.39c0.35,0,0.91-0.19,0.91-0.78V53.54C211.68,52.95,211.12,52.76,210.77,52.76z"/>
</g>
<g>
	<polygon class="st2" points="351.46,34.34 348.61,34.34 347.16,40.19 345.37,34.34 343.44,34.34 341.65,40.19 340.21,34.34 
		337.36,34.34 340.41,45.42 342.62,45.42 344.41,39.96 346.2,45.42 348.42,45.42 351.46,34.34 	"/>
	<path class="st2" d="M360.53,39.88c0-0.73-0.01-1.28-0.02-1.66c-0.02-0.38-0.05-0.75-0.12-1.09c-0.06-0.34-0.16-0.65-0.3-0.93
		c-0.14-0.27-0.34-0.54-0.6-0.8c-0.77-0.77-1.71-1.15-2.83-1.15c-1.12,0-2.06,0.38-2.83,1.15c-0.26,0.26-0.46,0.53-0.6,0.8
		c-0.14,0.27-0.24,0.58-0.3,0.92c-0.06,0.34-0.1,0.7-0.12,1.09c-0.02,0.39-0.02,0.95-0.02,1.67c0,0.73,0.01,1.28,0.02,1.66
		c0.02,0.38,0.05,0.75,0.12,1.09c0.06,0.34,0.16,0.65,0.3,0.93c0.14,0.27,0.34,0.54,0.6,0.8c0.77,0.77,1.71,1.15,2.83,1.15
		c1.12,0,2.06-0.38,2.83-1.15c0.26-0.26,0.46-0.53,0.6-0.81c0.14-0.28,0.24-0.59,0.3-0.93c0.06-0.34,0.1-0.7,0.12-1.08
		C360.52,41.16,360.53,40.6,360.53,39.88L360.53,39.88z M359.35,39.88c0,0.63-0.01,1.14-0.02,1.53c-0.02,0.39-0.05,0.72-0.1,0.98
		c-0.05,0.26-0.13,0.5-0.23,0.7c-0.1,0.2-0.24,0.39-0.42,0.57c-0.24,0.25-0.53,0.44-0.86,0.58c-0.34,0.14-0.69,0.21-1.05,0.21
		c-0.36,0-0.71-0.07-1.04-0.21c-0.33-0.14-0.62-0.33-0.87-0.58c-0.18-0.19-0.32-0.38-0.42-0.58c-0.1-0.2-0.18-0.43-0.23-0.7
		c-0.05-0.27-0.09-0.6-0.1-0.98c-0.02-0.38-0.02-0.89-0.02-1.52c0-0.64,0.01-1.16,0.02-1.54c0.02-0.38,0.05-0.71,0.1-0.97
		c0.05-0.26,0.13-0.5,0.23-0.7c0.1-0.2,0.24-0.39,0.42-0.57c0.25-0.25,0.54-0.44,0.87-0.58c0.33-0.14,0.68-0.21,1.04-0.21
		c0.36,0,0.71,0.07,1.05,0.21c0.34,0.14,0.62,0.33,0.86,0.58c0.18,0.19,0.32,0.38,0.42,0.58c0.1,0.2,0.18,0.43,0.23,0.7
		c0.05,0.27,0.09,0.59,0.1,0.97C359.34,38.72,359.35,39.23,359.35,39.88L359.35,39.88z"/>
	<polygon class="st2" points="372.96,45.42 372.96,34.34 371.78,34.34 368.27,42.2 364.66,34.34 363.47,34.34 363.47,45.42 
		364.66,45.42 364.66,37 367.74,43.67 368.75,43.67 371.78,37 371.78,45.42 372.96,45.42 	"/>
	<polygon class="st2" points="347.71,62.08 347.71,59.65 342.9,59.65 342.9,57.71 347.01,57.71 347.01,55.28 342.9,55.28 
		342.9,53.43 347.71,53.43 347.71,51 340.18,51 340.18,62.08 347.71,62.08 	"/>
	<polygon class="st2" points="357.46,62.08 354.04,56.4 357.23,51 355.86,51 353.4,55.37 350.94,51 349.57,51 352.74,56.4 
		349.35,62.08 350.69,62.08 353.4,57.43 356.09,62.08 357.46,62.08 	"/>
	<path class="st2" d="M367.11,58.87h-1.18c-0.15,0.68-0.45,1.23-0.93,1.63c-0.47,0.4-1.05,0.61-1.73,0.61
		c-0.36,0-0.71-0.07-1.05-0.2c-0.34-0.13-0.62-0.33-0.86-0.58c-0.18-0.19-0.32-0.38-0.42-0.58c-0.1-0.2-0.18-0.43-0.23-0.71
		c-0.05-0.27-0.09-0.6-0.1-0.98c-0.02-0.38-0.02-0.89-0.02-1.53c0-0.64,0.01-1.16,0.02-1.54c0.02-0.38,0.05-0.71,0.1-0.98
		c0.05-0.27,0.13-0.51,0.23-0.71c0.1-0.2,0.24-0.39,0.42-0.57c0.24-0.25,0.53-0.44,0.86-0.58c0.34-0.14,0.69-0.2,1.05-0.2
		c0.68,0,1.26,0.2,1.72,0.6c0.46,0.4,0.76,0.95,0.91,1.64h1.21c-0.19-1.04-0.62-1.85-1.31-2.43c-0.68-0.58-1.53-0.87-2.54-0.87
		c-0.54,0-1.05,0.1-1.54,0.3c-0.49,0.2-0.92,0.48-1.29,0.86c-0.26,0.26-0.46,0.53-0.6,0.8c-0.14,0.27-0.24,0.58-0.3,0.92
		c-0.06,0.34-0.1,0.7-0.12,1.09c-0.02,0.39-0.02,0.95-0.02,1.67c0,0.73,0.01,1.28,0.02,1.66c0.02,0.38,0.05,0.75,0.12,1.09
		c0.06,0.34,0.16,0.65,0.3,0.93c0.14,0.27,0.34,0.54,0.6,0.8c0.37,0.37,0.8,0.66,1.29,0.86c0.49,0.2,1,0.3,1.54,0.3
		c1,0,1.84-0.29,2.54-0.88C366.49,60.71,366.93,59.9,367.11,58.87L367.11,58.87z"/>
	<path class="st2" d="M348.46,75.94c0-0.36-0.05-0.68-0.14-0.96c-0.09-0.27-0.21-0.51-0.35-0.69c-0.14-0.19-0.28-0.33-0.42-0.44
		c-0.14-0.11-0.29-0.22-0.46-0.32c0.29-0.2,0.57-0.47,0.82-0.83c0.26-0.36,0.39-0.81,0.39-1.36c0-0.97-0.31-1.75-0.92-2.33
		c-0.61-0.58-1.48-0.87-2.61-0.87h-4.59v11.08h4.82c1.02,0,1.85-0.29,2.49-0.86C348.14,77.77,348.46,76.97,348.46,75.94
		L348.46,75.94z M345.58,71.48c0,0.25-0.08,0.46-0.23,0.64c-0.16,0.18-0.4,0.26-0.75,0.26h-1.7v-1.8h1.7c0.34,0,0.59,0.09,0.75,0.26
		C345.5,71.02,345.58,71.23,345.58,71.48L345.58,71.48z M345.74,75.79c0,0.27-0.08,0.5-0.24,0.69c-0.16,0.19-0.41,0.29-0.75,0.29
		h-1.84v-1.94h1.84c0.34,0,0.59,0.09,0.75,0.28C345.66,75.29,345.74,75.52,345.74,75.79L345.74,75.79z"/>
	<path class="st2" d="M358.8,73.67c0-0.73-0.01-1.28-0.02-1.66c-0.02-0.38-0.05-0.75-0.12-1.09c-0.06-0.34-0.16-0.65-0.3-0.93
		c-0.14-0.27-0.34-0.54-0.6-0.8c-0.77-0.77-1.71-1.15-2.83-1.15c-1.12,0-2.06,0.38-2.83,1.15c-0.26,0.26-0.46,0.53-0.6,0.8
		c-0.14,0.27-0.24,0.58-0.3,0.92c-0.06,0.34-0.1,0.7-0.12,1.09c-0.02,0.39-0.02,0.95-0.02,1.67c0,0.73,0.01,1.28,0.02,1.66
		c0.02,0.38,0.05,0.75,0.12,1.09c0.06,0.34,0.16,0.65,0.3,0.93c0.14,0.27,0.34,0.54,0.6,0.8c0.77,0.77,1.71,1.15,2.83,1.15
		c1.12,0,2.06-0.38,2.83-1.15c0.26-0.26,0.46-0.53,0.6-0.81c0.14-0.28,0.24-0.59,0.3-0.93c0.06-0.34,0.1-0.7,0.12-1.08
		C358.79,74.95,358.8,74.4,358.8,73.67L358.8,73.67z M357.61,73.67c0,0.63-0.01,1.14-0.02,1.53c-0.02,0.39-0.05,0.72-0.1,0.98
		c-0.05,0.26-0.13,0.5-0.23,0.7c-0.1,0.2-0.24,0.39-0.42,0.57c-0.24,0.25-0.53,0.44-0.86,0.58c-0.34,0.14-0.69,0.21-1.05,0.21
		s-0.71-0.07-1.04-0.21c-0.33-0.14-0.62-0.33-0.87-0.58c-0.18-0.19-0.32-0.38-0.42-0.58c-0.1-0.2-0.18-0.43-0.23-0.7
		c-0.05-0.27-0.09-0.6-0.1-0.98c-0.02-0.38-0.02-0.89-0.02-1.52c0-0.64,0.01-1.16,0.02-1.54c0.02-0.38,0.05-0.71,0.1-0.97
		c0.05-0.26,0.13-0.5,0.23-0.7c0.1-0.2,0.24-0.39,0.42-0.57c0.25-0.25,0.54-0.44,0.87-0.58c0.33-0.14,0.68-0.21,1.04-0.21
		s0.71,0.07,1.05,0.21c0.34,0.14,0.62,0.33,0.86,0.58c0.18,0.19,0.32,0.38,0.42,0.58c0.1,0.2,0.18,0.43,0.23,0.7
		c0.05,0.27,0.09,0.59,0.1,0.97C357.61,72.52,357.61,73.03,357.61,73.67L357.61,73.67z"/>
	<path class="st2" d="M369.86,79.21l-4.06-11.08h-1l-4.08,11.08h1.26l0.89-2.5h4.84l0.89,2.5H369.86L369.86,79.21z M367.37,75.68
		h-4.14l2.09-5.85L367.37,75.68L367.37,75.68z"/>
	<g>
		<path class="st3" d="M289.1,59.69c4.46,7.72,3.64,17.05-1.35,23.79l-3.59-2.07c4.29-5.49,5.07-13.25,1.37-19.66
			c-0.76-1.31-1.66-2.49-2.67-3.52c1.11-0.79,2.15-1.7,3.11-2.71C287.15,56.76,288.2,58.15,289.1,59.69L289.1,59.69z M279.49,55.54
			c-2.06-1.26-4.36-2.08-6.74-2.42c2.06-0.42,4.01-1.34,5.66-2.71c1.56,0.63,3.06,1.44,4.45,2.42
			C281.84,53.88,280.7,54.79,279.49,55.54L279.49,55.54z"/>
		<path class="st3" d="M281.37,64.15c2.81,4.87,2.06,10.81-1.43,14.82l-3.6-2.08c2.86-2.73,3.59-7.14,1.53-10.72
			c-1.18-2.04-3.05-3.42-5.14-4.03c1.96-0.23,3.88-0.72,5.7-1.47C279.58,61.62,280.58,62.79,281.37,64.15L281.37,64.15z"/>
		<path class="st4" d="M289.02,51.43c-4.46,7.72-12.94,11.67-21.27,10.73v-4.15c6.9,0.97,14.01-2.23,17.71-8.64
			c0.76-1.31,1.32-2.68,1.71-4.07c1.24,0.56,2.54,1.01,3.9,1.34C290.6,48.28,289.92,49.88,289.02,51.43L289.02,51.43z M287.82,41.03
			c0.06-2.42-0.38-4.82-1.27-7.05c1.39,1.58,3.17,2.8,5.18,3.55c0.24,1.67,0.28,3.37,0.12,5.06
			C290.43,42.24,289.08,41.71,287.82,41.03L287.82,41.03z"/>
		<path class="st4" d="M281.3,46.97c-2.81,4.87-8.33,7.19-13.55,6.17v-4.16c3.79,1.11,7.98-0.46,10.05-4.03
			c1.18-2.04,1.44-4.35,0.92-6.46c1.18,1.58,2.57,3,4.12,4.2C282.6,44.15,282.09,45.6,281.3,46.97L281.3,46.97z"/>
		<path class="st0" d="M296.15,47.24c-8.92,0-16.58-5.37-19.93-13.06l3.59-2.07c2.61,6.46,8.94,11.02,16.34,11.02
			c1.51,0,2.98-0.19,4.38-0.55c0.13,1.36,0.4,2.71,0.79,4.04C299.66,47.02,297.93,47.24,296.15,47.24L296.15,47.24z M304.55,40.99
			c2.12-1.16,3.98-2.73,5.47-4.62c-0.67,1.99-0.85,4.14-0.48,6.25c-1.33,1.04-2.77,1.93-4.32,2.64
			C304.81,43.85,304.59,42.42,304.55,40.99L304.55,40.99z"/>
		<path class="st0" d="M296.15,38.32c-5.62,0-10.39-3.62-12.12-8.65l3.6-2.08c0.93,3.84,4.39,6.68,8.51,6.68
			c2.35,0,4.49-0.93,6.06-2.43c-0.78,1.81-1.31,3.72-1.58,5.67C299.23,38.03,297.72,38.32,296.15,38.32L296.15,38.32z"/>
		<path class="st3" d="M303.34,51.31c-4.46-7.72-3.64-17.05,1.35-23.79l3.59,2.07c-4.29,5.49-5.07,13.25-1.37,19.66
			c0.76,1.31,1.66,2.49,2.67,3.52c-1.11,0.79-2.15,1.7-3.11,2.71C305.28,54.24,304.23,52.85,303.34,51.31L303.34,51.31z
			 M312.95,55.46c2.06,1.26,4.36,2.08,6.74,2.42c-2.06,0.42-4.01,1.34-5.66,2.71c-1.56-0.63-3.06-1.44-4.45-2.42
			C310.6,57.12,311.73,56.21,312.95,55.46L312.95,55.46z"/>
		<path class="st3" d="M311.06,46.85c-2.81-4.87-2.06-10.81,1.43-14.82l3.6,2.08c-2.86,2.73-3.59,7.14-1.53,10.72
			c1.18,2.04,3.05,3.42,5.14,4.03c-1.96,0.23-3.88,0.72-5.7,1.47C312.85,49.38,311.85,48.21,311.06,46.85L311.06,46.85z"/>
		<path class="st0" d="M296.2,52.63c1.62,0,2.92,1.31,2.92,2.92c0,1.62-1.31,2.92-2.92,2.92c-1.62,0-2.92-1.31-2.92-2.92
			C293.28,53.94,294.58,52.63,296.2,52.63L296.2,52.63z"/>
		<path class="st0" d="M312.76,81.58c1.41,0,2.55,1.14,2.55,2.55c0,1.41-1.14,2.55-2.55,2.55c-1.41,0-2.55-1.14-2.55-2.55
			C310.21,82.72,311.35,81.58,312.76,81.58L312.76,81.58z"/>
		<path class="st4" d="M303.41,59.57c4.46-7.72,12.94-11.67,21.27-10.73v4.15c-6.9-0.97-14.01,2.23-17.71,8.64
			c-0.76,1.31-1.32,2.68-1.71,4.07c-1.24-0.56-2.54-1.01-3.9-1.34C301.84,62.72,302.52,61.12,303.41,59.57L303.41,59.57z
			 M304.62,69.97c-0.06,2.42,0.38,4.82,1.27,7.05c-1.39-1.58-3.17-2.8-5.18-3.55c-0.24-1.67-0.28-3.37-0.12-5.06
			C302.01,68.76,303.36,69.29,304.62,69.97L304.62,69.97z"/>
		<path class="st4" d="M311.13,64.03c2.81-4.87,8.33-7.19,13.55-6.17v4.16c-3.79-1.11-7.98,0.46-10.05,4.03
			c-1.18,2.04-1.44,4.35-0.92,6.46c-1.18-1.58-2.57-3-4.12-4.2C309.84,66.85,310.35,65.4,311.13,64.03L311.13,64.03z"/>
		<path class="st0" d="M296.29,63.76c8.92,0,16.58,5.37,19.93,13.06l-3.59,2.07c-2.61-6.46-8.94-11.02-16.34-11.02
			c-1.51,0-2.98,0.19-4.38,0.55c-0.13-1.36-0.4-2.71-0.79-4.04C292.77,63.98,294.51,63.76,296.29,63.76L296.29,63.76z M287.89,70.01
			c-2.12,1.16-3.98,2.73-5.47,4.62c0.67-1.99,0.85-4.14,0.48-6.25c1.33-1.04,2.77-1.93,4.32-2.64
			C287.63,67.15,287.84,68.58,287.89,70.01L287.89,70.01z"/>
		<path class="st0" d="M296.29,72.68c5.62,0,10.39,3.62,12.12,8.65l-3.6,2.08c-0.93-3.84-4.39-6.68-8.51-6.68
			c-2.35,0-4.49,0.93-6.06,2.43c0.78-1.81,1.31-3.72,1.58-5.67C293.2,72.97,294.71,72.68,296.29,72.68L296.29,72.68z M287.76,83.46
			l0,0.02l-0.01,0L287.76,83.46L287.76,83.46z"/>
		<path class="st0" d="M327.07,54.21c0.7-1.22,2.27-1.64,3.49-0.93c1.22,0.7,1.64,2.27,0.93,3.49c-0.7,1.22-2.27,1.64-3.49,0.93
			C326.79,57,326.37,55.44,327.07,54.21L327.07,54.21z"/>
		<path class="st0" d="M310.53,28.14c-0.7-1.22-0.29-2.78,0.93-3.49c1.22-0.7,2.78-0.29,3.49,0.93c0.7,1.22,0.29,2.78-0.93,3.49
			C312.8,29.77,311.24,29.36,310.53,28.14L310.53,28.14z"/>
		<path class="st0" d="M279.68,29.42c-1.41,0-2.55-1.14-2.55-2.55c0-1.41,1.14-2.55,2.55-2.55c1.41,0,2.55,1.14,2.55,2.55
			C282.23,28.28,281.09,29.42,279.68,29.42L279.68,29.42z"/>
		<path class="st0" d="M265.36,56.79c-0.7,1.22-2.27,1.64-3.49,0.93c-1.22-0.7-1.64-2.27-0.93-3.49c0.7-1.22,2.27-1.64,3.49-0.93
			C265.65,54,266.07,55.57,265.36,56.79L265.36,56.79z"/>
		<path class="st0" d="M281.9,82.86c0.7,1.22,0.29,2.78-0.93,3.49c-1.22,0.7-2.78,0.29-3.49-0.93c-0.7-1.22-0.29-2.78,0.93-3.49
			C279.64,81.23,281.2,81.64,281.9,82.86L281.9,82.86z"/>
	</g>
	<polygon class="st2" points="383.21,45.42 383.21,44.36 377.51,44.36 377.51,40.36 382.37,40.36 382.37,39.3 377.51,39.3 
		377.51,35.4 383.21,35.4 383.21,34.34 376.33,34.34 376.33,45.42 383.21,45.42 	"/>
	<polygon class="st2" points="394.01,45.42 394.01,34.34 392.82,34.34 392.82,43.19 390.46,39.63 386.94,34.34 385.82,34.34 
		385.82,45.42 387.01,45.42 387.01,36.53 389.31,40.02 392.89,45.42 394.01,45.42 	"/>
	<polygon class="st2" points="377.27,62.08 377.27,61.02 371.57,61.02 371.57,57.02 376.43,57.02 376.43,55.96 371.57,55.96 
		371.57,52.06 377.27,52.06 377.27,51 370.39,51 370.39,62.08 377.27,62.08 	"/>
	<polygon class="st2" points="387.24,62.08 387.24,61.02 381.58,61.02 381.58,51 380.4,51 380.4,62.08 387.24,62.08 	"/>
	<path class="st2" d="M401.03,57.54c0-0.73-0.01-1.28-0.02-1.66c-0.02-0.38-0.05-0.75-0.12-1.09c-0.06-0.34-0.16-0.65-0.3-0.93
		c-0.14-0.27-0.34-0.54-0.6-0.8c-0.77-0.77-1.71-1.15-2.83-1.15c-1.12,0-2.06,0.38-2.83,1.15c-0.26,0.26-0.46,0.53-0.6,0.8
		c-0.14,0.27-0.24,0.58-0.3,0.92c-0.06,0.34-0.1,0.7-0.12,1.09c-0.02,0.39-0.02,0.95-0.02,1.67c0,0.73,0.01,1.28,0.02,1.66
		c0.02,0.38,0.05,0.75,0.12,1.09c0.06,0.34,0.16,0.65,0.3,0.93c0.14,0.27,0.34,0.54,0.6,0.8c0.77,0.77,1.71,1.15,2.83,1.15
		c1.12,0,2.06-0.38,2.83-1.15c0.26-0.26,0.46-0.53,0.6-0.81c0.14-0.28,0.24-0.59,0.3-0.93c0.06-0.34,0.1-0.7,0.12-1.08
		C401.02,58.82,401.03,58.26,401.03,57.54L401.03,57.54z M399.85,57.54c0,0.63-0.01,1.14-0.02,1.53c-0.02,0.39-0.05,0.72-0.1,0.98
		c-0.05,0.26-0.13,0.5-0.23,0.7c-0.1,0.2-0.24,0.39-0.42,0.57c-0.24,0.25-0.53,0.44-0.86,0.58c-0.34,0.14-0.69,0.21-1.05,0.21
		c-0.36,0-0.71-0.07-1.04-0.21c-0.33-0.14-0.62-0.33-0.87-0.58c-0.18-0.19-0.32-0.38-0.42-0.58c-0.1-0.2-0.18-0.43-0.23-0.7
		c-0.05-0.27-0.09-0.6-0.1-0.98c-0.02-0.38-0.02-0.89-0.02-1.52c0-0.64,0.01-1.16,0.02-1.54c0.02-0.38,0.05-0.71,0.1-0.97
		c0.05-0.26,0.13-0.5,0.23-0.7c0.1-0.2,0.24-0.39,0.42-0.57c0.25-0.25,0.54-0.44,0.87-0.58c0.33-0.14,0.68-0.21,1.04-0.21
		c0.36,0,0.71,0.07,1.05,0.21c0.34,0.14,0.62,0.33,0.86,0.58c0.18,0.19,0.32,0.38,0.42,0.58c0.1,0.2,0.18,0.43,0.23,0.7
		c0.05,0.27,0.09,0.59,0.1,0.97C399.84,56.39,399.85,56.9,399.85,57.54L399.85,57.54z"/>
	<polygon class="st2" points="412.25,63.08 412.25,52 411.07,52 411.07,60.85 408.7,57.29 405.19,52 404.07,52 404.07,63.08 
		405.25,63.08 405.25,54.19 407.55,57.68 411.13,63.08 412.25,63.08 	"/>
	<path class="st2" d="M380.12,79.21l-2.63-5.03c0.74-0.16,1.32-0.49,1.76-1.01c0.44-0.52,0.65-1.17,0.65-1.96
		c0-0.94-0.3-1.69-0.91-2.25c-0.61-0.56-1.4-0.83-2.37-0.83h-4.25v11.08h1.18v-4.92h2.66l2.52,4.92H380.12L380.12,79.21z
		 M378.72,71.23c0,0.65-0.2,1.15-0.61,1.5c-0.4,0.35-0.94,0.52-1.6,0.52h-2.96v-4.06h2.96c0.66,0,1.2,0.18,1.6,0.53
		C378.52,70.07,378.72,70.57,378.72,71.23L378.72,71.23z"/>
	<path class="st2" d="M390.99,73.55c0-1.14-0.06-2.04-0.19-2.7c-0.12-0.66-0.43-1.22-0.9-1.69c-0.68-0.68-1.62-1.03-2.8-1.03h-3.8
		v11.08h3.8c1.18,0,2.12-0.34,2.8-1.03c0.47-0.47,0.77-1.06,0.89-1.77C390.92,75.69,390.99,74.74,390.99,73.55L390.99,73.55z
		 M389.81,73.55c0,1.01-0.04,1.81-0.13,2.4c-0.09,0.6-0.29,1.06-0.6,1.39c-0.28,0.28-0.6,0.48-0.96,0.61
		c-0.36,0.13-0.77,0.19-1.21,0.19h-2.41v-8.96h2.41c0.45,0,0.85,0.06,1.21,0.19c0.36,0.12,0.68,0.33,0.96,0.62
		c0.32,0.33,0.52,0.76,0.61,1.3C389.77,71.83,389.81,72.58,389.81,73.55L389.81,73.55z"/>
	<path class="st2" d="M401.17,77.16c0-0.93-0.31-1.66-0.93-2.19c-0.24-0.21-0.51-0.37-0.81-0.49c-0.3-0.12-0.71-0.22-1.21-0.29
		l-0.59-0.09L397,74c-0.29-0.05-0.57-0.13-0.84-0.23c-0.27-0.1-0.49-0.23-0.65-0.37c-0.33-0.29-0.5-0.72-0.5-1.28
		c0-0.62,0.21-1.12,0.62-1.49c0.41-0.37,0.99-0.56,1.71-0.56c0.57,0,1.06,0.08,1.45,0.23c0.4,0.16,0.78,0.39,1.13,0.72l0.76-0.76
		c-0.48-0.44-0.97-0.75-1.48-0.93c-0.51-0.19-1.12-0.28-1.82-0.28c-1.09,0-1.95,0.28-2.59,0.85c-0.64,0.57-0.96,1.33-0.96,2.28
		c0,0.88,0.28,1.57,0.84,2.07c0.48,0.41,1.16,0.69,2.04,0.84l0.64,0.09l0.65,0.11c0.41,0.06,0.72,0.13,0.9,0.19
		c0.19,0.07,0.37,0.18,0.54,0.33c0.35,0.31,0.53,0.77,0.53,1.38c0,0.64-0.23,1.15-0.7,1.51c-0.47,0.36-1.1,0.54-1.91,0.54
		c-0.63,0-1.18-0.09-1.65-0.27c-0.47-0.18-0.92-0.5-1.37-0.94l-0.81,0.81c0.52,0.52,1.07,0.89,1.66,1.12
		c0.59,0.23,1.3,0.34,2.13,0.34c1.16,0,2.09-0.28,2.79-0.85C400.82,78.89,401.17,78.12,401.17,77.16L401.17,77.16z"/>
</g>
</svg>
