<?xml version="1.0" encoding="utf-8"?>
<!-- Generator: Adobe Illustrator 27.8.0, SVG Export Plug-In . SVG Version: 6.00 Build 0)  -->
<svg version="1.1" id="Layer_1" xmlns="http://www.w3.org/2000/svg" xmlns:xlink="http://www.w3.org/1999/xlink" x="0px" y="0px"
	 viewBox="0 0 101 111" style="enable-background:new 0 0 101 111;" xml:space="preserve">
<style type="text/css">
	.st0{fill-rule:evenodd;clip-rule:evenodd;fill:#006BB6;}
	.st1{fill-rule:evenodd;clip-rule:evenodd;fill:#58595B;}
	.st2{fill:#485156;}
	.st3{fill-rule:evenodd;clip-rule:evenodd;fill:#73CEE1;}
	.st4{fill-rule:evenodd;clip-rule:evenodd;fill:#00B9F2;}
	.st5{fill-rule:evenodd;clip-rule:evenodd;fill:#FFFFFF;}
	.st6{fill:#006BB6;}
	.st7{fill:#7F1416;}
	.st8{fill-rule:evenodd;clip-rule:evenodd;fill:#7F1416;}
	.st9{fill:#616E7D;}
	.st10{fill:#AAD3C7;}
	.st11{fill:#EBF7F6;}
	.st12{opacity:0.04;clip-path:url(#SVGID_00000003074884838357321350000001627376887273751431_);}
	.st13{fill:#FFFFFF;}
	.st14{clip-path:url(#SVGID_00000074425267170161640890000001926299120391232149_);}
	.st15{opacity:0.12;clip-path:url(#SVGID_00000066479284350168063040000005562176894600052868_);}
	.st16{clip-path:url(#SVGID_00000129196842376699460940000001089463746175734449_);}
	.st17{opacity:0.12;clip-path:url(#SVGID_00000180331785364758006990000000554865321609567915_);}
	.st18{fill:none;stroke:#616E7D;stroke-width:0.6;stroke-linecap:round;stroke-linejoin:round;stroke-miterlimit:10;}
	.st19{fill:#F04B4C;}
</style>
<g>
	<g id="_x31_908_x2C__Business_x2C__Businessman_x2C__Conference_x2C__Discussion_x2C__Meeting">
		<g>
			<circle class="st6" cx="64.97" cy="43.06" r="2.92"/>
			<circle class="st6" cx="51.05" cy="37.97" r="2.92"/>
			<circle class="st6" cx="37.2" cy="43.06" r="2.92"/>
			<path class="st6" d="M54.1,67.21c-0.18,0-0.29-0.06-0.41-0.12c-0.35-0.23-0.41-0.7-0.18-0.99l5.44-7.6
				c0-0.06,0.06-0.06,0.06-0.12c0.41-0.41,0.99-0.64,1.58-0.64h2.22v-3.86c-0.23,0.06-0.47,0.12-0.76,0.12h-3.68
				c-0.41,0-0.76-0.35-0.76-0.76c0-0.41,0.35-0.76,0.76-0.76h3.68c0.12,0,0.23-0.06,0.35-0.12l0.7-0.41c0.23-0.12,0.53-0.12,0.76,0
				c0.23,0.12,0.35,0.35,0.35,0.64v5.73c0,0.41-0.35,0.76-0.76,0.76h-2.92c-0.18,0-0.35,0.06-0.47,0.18l-5.38,7.54
				C54.56,67.09,54.33,67.21,54.1,67.21z"/>
			<path class="st6" d="M56.14,69.25c-0.12,0-0.29-0.06-0.41-0.12c-0.35-0.23-0.41-0.7-0.18-0.99l5.03-7.25
				c0.12-0.18,0.35-0.29,0.58-0.29h4.5c0.82,0,1.46-0.64,1.46-1.46v-8.77c0-0.76-0.64-1.4-1.4-1.46c0,0,0,0-0.06,0l0,0l0,0
				c0,0,0,0-0.06,0l0,0c-0.41,0-0.76,0.18-1.05,0.47c-0.06,0.06-0.12,0.12-0.18,0.12l-2.4,1.46c-0.12,0.06-0.23,0.12-0.35,0.12
				h-3.98c-0.41,0-0.76,0.35-0.76,0.76s0.35,0.76,0.76,0.76c0.41,0,0.76,0.35,0.76,0.76c0,0.41-0.35,0.76-0.76,0.76
				c-1.23,0-2.22-0.99-2.22-2.22s0.99-2.22,2.22-2.22h3.8l2.16-1.29c0.53-0.53,1.23-0.88,1.99-0.88l0,0l0,0c0.06,0,0.12,0,0.18,0
				l0,0c1.58,0.06,2.81,1.34,2.81,2.92v8.77c0,1.64-1.29,2.92-2.92,2.92h-4.15l-4.79,6.84C56.61,69.13,56.38,69.25,56.14,69.25z"/>
			<path class="st6" d="M64.97,46.74c-1.99,0-3.68-1.64-3.68-3.68s1.64-3.68,3.68-3.68s3.68,1.64,3.68,3.68S66.96,46.74,64.97,46.74
				z M64.97,40.9c-1.23,0-2.22,0.99-2.22,2.22c0,1.23,0.99,2.22,2.22,2.22c1.23,0,2.22-0.99,2.22-2.22
				C67.19,41.89,66.14,40.9,64.97,40.9z"/>
			<path class="st6" d="M48.02,67.21c-0.23,0-0.47-0.12-0.58-0.29l-5.38-7.54c-0.12-0.12-0.29-0.18-0.47-0.18h-2.92
				c-0.41,0-0.76-0.35-0.76-0.76v-5.73c0-0.29,0.12-0.53,0.35-0.64c0.23-0.12,0.53-0.12,0.76,0l0.7,0.41
				c0.12,0.06,0.23,0.12,0.35,0.12h3.68c0.41,0,0.76,0.35,0.76,0.76c0,0.41-0.35,0.76-0.76,0.76h-3.68c-0.23,0-0.47-0.06-0.76-0.12
				v3.8h2.22c0.58,0,1.17,0.23,1.58,0.64c0,0,0.06,0.06,0.06,0.12l5.44,7.6c0.23,0.35,0.18,0.76-0.18,0.99
				C48.31,67.15,48.13,67.21,48.02,67.21z"/>
			<path class="st6" d="M45.97,69.25c-0.23,0-0.47-0.12-0.58-0.29l-4.79-6.9h-4.15c-1.64,0-2.92-1.29-2.92-2.92v-8.77
				c0-1.58,1.23-2.86,2.81-2.92l0,0c0.06,0,0.12,0,0.18,0l0,0l0,0c0.76,0,1.46,0.35,1.99,0.88l2.16,1.29h3.8
				c1.23,0,2.22,0.99,2.22,2.22s-0.99,2.22-2.22,2.22c-0.41,0-0.76-0.35-0.76-0.76c0-0.41,0.35-0.76,0.76-0.76
				c0.41,0,0.76-0.35,0.76-0.76c0-0.41-0.35-0.76-0.76-0.76h-3.98c-0.12,0-0.23-0.06-0.35-0.12l-2.4-1.46
				c-0.06-0.06-0.12-0.06-0.18-0.12c-0.29-0.29-0.64-0.47-1.05-0.47l0,0c0,0,0,0-0.06,0l0,0l0,0c0,0,0,0-0.06,0
				c-0.82,0.12-1.4,0.76-1.4,1.52v8.77c0,0.82,0.64,1.46,1.46,1.46h4.5c0.23,0,0.47,0.12,0.58,0.29l4.97,7.19
				c0.23,0.35,0.18,0.76-0.18,0.99C46.2,69.19,46.09,69.25,45.97,69.25z"/>
			<path class="st6" d="M37.2,46.74c-1.99,0-3.68-1.64-3.68-3.68s1.64-3.68,3.68-3.68c2.05,0,3.68,1.64,3.68,3.68
				S39.19,46.74,37.2,46.74z M37.2,40.9c-1.23,0-2.22,0.99-2.22,2.22c0,1.23,0.99,2.22,2.22,2.22c1.23,0,2.22-0.99,2.22-2.22
				C39.42,41.89,38.37,40.9,37.2,40.9z"/>
			<path class="st6" d="M58.36,54.05H43.75c-0.41,0-0.76-0.35-0.76-0.76c0-0.41,0.35-0.76,0.76-0.76h14.62
				c0.41,0,0.76,0.35,0.76,0.76C59.12,53.7,58.77,54.05,58.36,54.05z"/>
			<path class="st6" d="M51.05,69.37c-0.41,0-0.76-0.35-0.76-0.76V53.29c0-0.41,0.35-0.76,0.76-0.76c0.41,0,0.76,0.35,0.76,0.76
				v15.38C51.82,69.02,51.46,69.37,51.05,69.37z"/>
			<path class="st6" d="M51.05,41.6c-1.99,0-3.68-1.64-3.68-3.68s1.64-3.68,3.68-3.68c2.05,0,3.68,1.64,3.68,3.68
				S53.04,41.6,51.05,41.6z M51.05,35.75c-1.23,0-2.22,0.99-2.22,2.22c0,1.23,0.99,2.22,2.22,2.22c1.23,0,2.22-0.99,2.22-2.22
				C53.28,36.75,52.28,35.75,51.05,35.75z"/>
			<path class="st6" d="M56.9,51.13c-0.41,0-0.76-0.35-0.76-0.76v-2.22c0-1.17-0.53-2.22-1.46-3.04c-0.99-0.88-2.28-1.34-3.62-1.34
				c-2.81,0-5.14,1.99-5.14,4.38c0,0.41-0.35,0.76-0.76,0.76c-0.41,0-0.76-0.35-0.76-0.76c0-3.22,2.92-5.85,6.61-5.85
				c1.75,0,3.39,0.58,4.62,1.7c1.29,1.11,1.99,2.57,1.99,4.15v2.22C57.66,50.78,57.31,51.13,56.9,51.13z"/>
		</g>
	</g>
</g>
</svg>
