<?xml version="1.0" encoding="utf-8"?>
<!-- Generator: Adobe Illustrator 27.8.0, SVG Export Plug-In . SVG Version: 6.00 Build 0)  -->
<svg version="1.1" id="Layer_1" xmlns="http://www.w3.org/2000/svg" xmlns:xlink="http://www.w3.org/1999/xlink" x="0px" y="0px"
	 viewBox="0 0 1481 1081" enable-background="new 0 0 1481 1081" xml:space="preserve">
<g>
	<linearGradient id="SVGID_1_" gradientUnits="userSpaceOnUse" x1="740.5" y1="917.3625" x2="740.5" y2="-131.4129">
		<stop  offset="0" style="stop-color:#FFFFFF"/>
		<stop  offset="0.3414" style="stop-color:#D6EDF5"/>
		<stop  offset="0.9704" style="stop-color:#A4D9EB"/>
	</linearGradient>
	<rect fill="url(#SVGID_1_)" width="1481" height="1081"/>
	<g>
		<defs>
			<rect id="SVGID_00000078735540700122616210000014621943200506149043_" width="1481" height="1081"/>
		</defs>
		<clipPath id="SVGID_00000173148016128794072410000016964630823655344535_">
			<use xlink:href="#SVGID_00000078735540700122616210000014621943200506149043_"  overflow="visible"/>
		</clipPath>
		<g opacity="0.08" clip-path="url(#SVGID_00000173148016128794072410000016964630823655344535_)">
			<path fill-rule="evenodd" clip-rule="evenodd" fill="#73CEE1" d="M518.25,780.59c128.85,214.37,105.07,473.12-38.88,660.25
				l-103.76-57.54c123.95-152.42,146.57-367.85,39.72-545.63c-21.86-36.36-47.85-69-77.06-97.69c32.02-22.01,62.1-47.11,89.74-75.12
				C462.09,699.09,492.5,737.74,518.25,780.59L518.25,780.59z M240.66,665.3c-59.6-35.03-125.99-57.83-194.7-67.23
				c59.52-11.6,115.92-37.16,163.48-75.21c45.14,17.46,88.29,39.97,128.44,67.29C308.49,619.31,275.77,644.44,240.66,665.3
				L240.66,665.3z"/>
			<path fill-rule="evenodd" clip-rule="evenodd" fill="#73CEE1" d="M295.06,904.37c81.17,135.04,59.61,299.97-41.37,411.32
				l-104.13-57.75c82.51-75.67,103.82-198.3,44.25-297.41c-33.97-56.52-88-94.98-148.46-111.89
				c56.59-6.39,112.08-20.12,164.81-40.78C243.35,834.15,272.29,866.48,295.06,904.37L295.06,904.37z"/>
			<path fill-rule="evenodd" clip-rule="evenodd" fill="#00B9F2" d="M516.22,551.19C387.37,765.56,142.2,875.16-98.49,848.97V733.88
				c199.39,26.9,404.92-61.99,511.78-239.78c21.85-36.36,38.28-74.3,49.54-112.95c35.86,15.64,73.52,28.11,112.6,37.09
				C561.63,463.71,541.98,508.34,516.22,551.19L516.22,551.19z M481.37,262.62c1.78-67.09-10.86-133.72-36.74-195.58
				c40.22,43.72,91.46,77.85,149.55,98.4c6.83,46.28,8.1,93.43,3.55,140.49C556.74,296.05,517.73,281.4,481.37,262.62L481.37,262.62
				z"/>
			<path fill-rule="evenodd" clip-rule="evenodd" fill="#00B9F2" d="M293.03,427.41C211.86,562.45,52.39,626.98-98.49,598.66v-115.5
				c109.48,30.8,230.7-12.78,290.27-111.9c33.97-56.52,41.63-120.69,26.64-179.44c34.06,43.88,74.17,83.17,119.18,116.7
				C330.48,349.28,315.8,389.52,293.03,427.41L293.03,427.41z"/>
			<path fill-rule="evenodd" clip-rule="evenodd" fill="#006BB6" d="M722.03,434.8c-257.7,0-479.09-149.15-575.83-362.47
				l103.76-57.54C325.4,194.1,508.32,320.63,722.03,320.63c43.71,0,86.13-5.3,126.61-15.26c3.83,37.65,11.42,75.22,22.87,112.22
				C823.6,428.83,773.54,434.8,722.03,434.8L722.03,434.8z M964.78,261.53c61.38-32.06,115.13-75.9,157.96-128.36
				c-19.31,55.32-24.46,115.01-13.94,173.61c-38.31,28.82-80.19,53.46-124.89,73.2C972.32,340.94,966.02,301.16,964.78,261.53
				L964.78,261.53z"/>
			<path fill-rule="evenodd" clip-rule="evenodd" fill="#006BB6" d="M722.03,187.24c-162.33,0-300.24-100.4-350.15-240.07
				l104.13-57.75C502.98-4.11,602.89,74.94,722.03,74.94c67.95,0,129.63-25.71,175.1-67.55c-22.54,50.27-37.9,103.29-45.63,157.49
				C811.2,179.33,767.58,187.24,722.03,187.24L722.03,187.24z"/>
			<path fill-rule="evenodd" clip-rule="evenodd" fill="#73CEE1" d="M929.87,547.81C801.03,333.44,824.8,74.69,968.75-112.44
				l103.76,57.54C948.57,97.52,925.94,312.94,1032.8,490.73c21.86,36.36,47.85,69,77.06,97.69c-32.02,22.01-62.1,47.11-89.74,75.12
				C986.04,629.32,955.63,590.66,929.87,547.81L929.87,547.81z M1207.46,663.1c59.6,35.03,125.99,57.83,194.7,67.23
				c-59.52,11.6-115.92,37.16-163.48,75.21c-45.14-17.46-88.29-39.97-128.44-67.29C1139.64,709.09,1172.35,683.96,1207.46,663.1
				L1207.46,663.1z"/>
			<path fill-rule="evenodd" clip-rule="evenodd" fill="#73CEE1" d="M1153.07,424.03c-81.17-135.04-59.61-299.97,41.37-411.32
				l104.13,57.75c-82.51,75.67-103.82,198.3-44.25,297.41c33.97,56.52,88,94.98,148.46,111.89
				c-56.59,6.39-112.08,20.12-164.81,40.78C1204.78,494.25,1175.84,461.92,1153.07,424.03L1153.07,424.03z"/>
			<path fill-rule="evenodd" clip-rule="evenodd" fill="#006BB6" d="M723.54,584.57c46.67,0,84.51,36.34,84.51,81.18
				c0,44.83-37.83,81.18-84.51,81.18c-46.67,0-84.5-36.34-84.5-81.18C639.04,620.92,676.87,584.57,723.54,584.57L723.54,584.57z"/>
			<path fill-rule="evenodd" clip-rule="evenodd" fill="#00B9F2" d="M931.91,777.21c128.85-214.37,374.02-323.96,614.71-297.78
				v115.09c-199.39-26.9-404.92,61.99-511.78,239.77c-21.85,36.36-38.28,74.3-49.54,112.96c-35.86-15.64-73.52-28.11-112.6-37.09
				C886.5,864.69,906.15,820.06,931.91,777.21L931.91,777.21z M966.75,1065.78c-1.78,67.09,10.86,133.72,36.74,195.58
				c-40.22-43.72-91.46-77.86-149.55-98.4c-6.83-46.28-8.11-93.43-3.55-140.49C891.38,1032.35,930.39,1047,966.75,1065.78
				L966.75,1065.78z"/>
			<path fill-rule="evenodd" clip-rule="evenodd" fill="#00B9F2" d="M1155.1,900.99c81.17-135.04,240.64-199.57,391.52-171.24v115.5
				c-109.48-30.8-230.7,12.79-290.27,111.9c-33.97,56.52-41.63,120.69-26.64,179.44c-34.06-43.89-74.17-83.17-119.18-116.7
				C1117.64,979.13,1132.32,938.88,1155.1,900.99L1155.1,900.99z"/>
			<path fill-rule="evenodd" clip-rule="evenodd" fill="#006BB6" d="M726.1,893.6c257.7,0,479.09,149.15,575.83,362.47
				l-103.76,57.55c-75.44-179.32-258.36-305.85-472.07-305.85c-43.71,0-86.13,5.3-126.61,15.26
				c-3.83-37.65-11.42-75.22-22.86-112.22C624.53,899.57,674.58,893.6,726.1,893.6L726.1,893.6z M483.35,1066.88
				c-61.38,32.06-115.13,75.9-157.96,128.36c19.3-55.32,24.46-115.01,13.94-173.61c38.31-28.82,80.18-53.46,124.89-73.2
				C475.81,987.46,482.1,1027.24,483.35,1066.88L483.35,1066.88z"/>
		</g>
	</g>
</g>
</svg>
