<?xml version="1.0" encoding="utf-8"?>
<!-- Generator: Adobe Illustrator 27.8.0, SVG Export Plug-In . SVG Version: 6.00 Build 0)  -->
<svg version="1.1" id="Layer_1" xmlns="http://www.w3.org/2000/svg" xmlns:xlink="http://www.w3.org/1999/xlink" x="0px" y="0px"
	 viewBox="0 0 101 111" style="enable-background:new 0 0 101 111;" xml:space="preserve">
<style type="text/css">
	.st0{fill-rule:evenodd;clip-rule:evenodd;fill:#006BB6;}
	.st1{fill-rule:evenodd;clip-rule:evenodd;fill:#58595B;}
	.st2{fill:#485156;}
	.st3{fill-rule:evenodd;clip-rule:evenodd;fill:#73CEE1;}
	.st4{fill-rule:evenodd;clip-rule:evenodd;fill:#00B9F2;}
	.st5{fill-rule:evenodd;clip-rule:evenodd;fill:#FFFFFF;}
	.st6{fill:#006BB6;}
	.st7{fill:#7F1416;}
	.st8{fill-rule:evenodd;clip-rule:evenodd;fill:#7F1416;}
	.st9{fill:#616E7D;}
	.st10{fill:#AAD3C7;}
	.st11{fill:#EBF7F6;}
	.st12{opacity:0.04;clip-path:url(#SVGID_00000040570089675089708490000011891097244654126991_);}
	.st13{fill:#FFFFFF;}
	.st14{clip-path:url(#SVGID_00000171707906393550669970000005213391499674474147_);}
	.st15{opacity:0.12;clip-path:url(#SVGID_00000165218000962314695520000007282339530818614716_);}
	.st16{clip-path:url(#SVGID_00000124119561158816845130000012705330486886056327_);}
	.st17{opacity:0.12;clip-path:url(#SVGID_00000016035622947347169400000008033010351207782042_);}
	.st18{fill:none;stroke:#616E7D;stroke-width:0.6;stroke-linecap:round;stroke-linejoin:round;stroke-miterlimit:10;}
	.st19{fill:#F04B4C;}
</style>
<g>
	<defs>
		<rect id="SVGID_00000101820571218050818900000003962992380682658975_" x="-1499" y="-420.5" width="1479" height="1080.5"/>
	</defs>
	<clipPath id="SVGID_00000182512993881360290320000004392315213360819391_">
		<use xlink:href="#SVGID_00000101820571218050818900000003962992380682658975_"  style="overflow:visible;"/>
	</clipPath>
	<g style="clip-path:url(#SVGID_00000182512993881360290320000004392315213360819391_);">
		<defs>
			<rect id="SVGID_00000012443691062613047730000006651757255661396144_" x="-1939.5" y="-420.5" width="1919.5" height="1080.5"/>
		</defs>
		<clipPath id="SVGID_00000008135998248854196400000007796854805898422403_">
			<use xlink:href="#SVGID_00000012443691062613047730000006651757255661396144_"  style="overflow:visible;"/>
		</clipPath>
		<g style="opacity:0.12;clip-path:url(#SVGID_00000008135998248854196400000007796854805898422403_);">
			<path class="st4" d="M-544.42,297.32C-415.57,82.95-170.4-26.64,70.29-0.46v115.09c-199.39-26.9-404.92,61.99-511.78,239.77
				c-21.85,36.36-38.28,74.3-49.54,112.96c-35.86-15.64-73.52-28.11-112.6-37.09C-589.82,384.8-570.17,340.17-544.42,297.32
				L-544.42,297.32z M-509.57,585.89c-1.78,67.09,10.86,133.72,36.74,195.58c-40.22-43.72-91.46-77.86-149.55-98.4
				c-6.83-46.28-8.11-93.43-3.55-140.49C-584.94,552.46-545.93,567.11-509.57,585.89L-509.57,585.89z"/>
		</g>
	</g>
</g>
<g>
	<defs>
		<rect id="SVGID_00000054973905269623723010000001209093180549577627_" x="442" y="-449.5" width="1479" height="1080.5"/>
	</defs>
	<clipPath id="SVGID_00000059290128281761012950000016097757407645904784_">
		<use xlink:href="#SVGID_00000054973905269623723010000001209093180549577627_"  style="overflow:visible;"/>
	</clipPath>
	<g style="clip-path:url(#SVGID_00000059290128281761012950000016097757407645904784_);">
		<defs>
			<rect id="SVGID_00000158740999843302210100000000043934747894229910_" x="1.5" y="-449.5" width="1919.5" height="1080.5"/>
		</defs>
		<clipPath id="SVGID_00000041977206845861374720000013782831414030920832_">
			<use xlink:href="#SVGID_00000158740999843302210100000000043934747894229910_"  style="overflow:visible;"/>
		</clipPath>
	</g>
</g>
<g>
	<path class="st18" d="M74.68,55.5c0,13.35-10.82,24.18-24.17,24.18c-13.35,0-24.18-10.83-24.18-24.18
		c0-13.35,10.83-24.17,24.18-24.17C63.85,31.32,74.68,42.15,74.68,55.5z"/>
	<path class="st9" d="M58.52,52.99c0,4.43-3.59,8.02-8.02,8.02c-4.43,0-8.03-3.59-8.03-8.02c0-4.43,3.59-8.02,8.03-8.02
		C54.93,44.96,58.52,48.56,58.52,52.99z"/>
	<path class="st9" d="M50.5,79.68c5.81,0,11.14-2.05,15.31-5.47c-2.25-6.29-8.25-10.8-15.31-10.8c-7.06,0-13.06,4.51-15.31,10.8
		C39.36,77.62,44.69,79.68,50.5,79.68z"/>
</g>
</svg>
