<?xml version="1.0" encoding="utf-8"?>
<!-- Generator: Adobe Illustrator 27.8.0, SVG Export Plug-In . SVG Version: 6.00 Build 0)  -->
<svg version="1.1" id="Layer_1" xmlns="http://www.w3.org/2000/svg" xmlns:xlink="http://www.w3.org/1999/xlink" x="0px" y="0px"
	 viewBox="0 0 101 111" style="enable-background:new 0 0 101 111;" xml:space="preserve">
<style type="text/css">
	.st0{fill-rule:evenodd;clip-rule:evenodd;fill:#006BB6;}
	.st1{fill-rule:evenodd;clip-rule:evenodd;fill:#58595B;}
	.st2{fill:#485156;}
	.st3{fill-rule:evenodd;clip-rule:evenodd;fill:#73CEE1;}
	.st4{fill-rule:evenodd;clip-rule:evenodd;fill:#00B9F2;}
	.st5{fill-rule:evenodd;clip-rule:evenodd;fill:#FFFFFF;}
	.st6{fill:#006BB6;}
	.st7{fill:#7F1416;}
	.st8{fill-rule:evenodd;clip-rule:evenodd;fill:#7F1416;}
	.st9{fill:#616E7D;}
	.st10{fill:#AAD3C7;}
	.st11{fill:#EBF7F6;}
	.st12{opacity:0.04;clip-path:url(#SVGID_00000052818240410218655680000017491051073537980861_);}
	.st13{fill:#FFFFFF;}
	.st14{clip-path:url(#SVGID_00000052813549870409979930000009581980610996781231_);}
	.st15{opacity:0.12;clip-path:url(#SVGID_00000002350941204744903190000011053102274386273418_);}
	.st16{clip-path:url(#SVGID_00000129187870955244670150000016205933190174678932_);}
	.st17{opacity:0.12;clip-path:url(#SVGID_00000097501495979296537020000016702524212059328662_);}
	.st18{fill:none;stroke:#616E7D;stroke-width:0.6;stroke-linecap:round;stroke-linejoin:round;stroke-miterlimit:10;}
	.st19{fill:#F04B4C;}
</style>
<g>
	<circle class="st5" cx="50.5" cy="55.5" r="18.5"/>
	<g>
		<path class="st3" d="M47.52,57.25c1.86,3.23,1.52,7.13-0.56,9.94l-1.5-0.87c1.79-2.3,2.12-5.54,0.57-8.22
			c-0.32-0.55-0.69-1.04-1.11-1.47c0.46-0.33,0.9-0.71,1.3-1.13C46.71,56.03,47.15,56.61,47.52,57.25L47.52,57.25z M43.51,55.52
			c-0.86-0.53-1.82-0.87-2.82-1.01c0.86-0.17,1.68-0.56,2.37-1.13c0.65,0.26,1.28,0.6,1.86,1.01C44.49,54.82,44.01,55.2,43.51,55.52
			L43.51,55.52z"/>
		<path class="st3" d="M44.29,59.12c1.17,2.03,0.86,4.52-0.6,6.19l-1.51-0.87c1.19-1.14,1.5-2.99,0.64-4.48
			c-0.49-0.85-1.27-1.43-2.15-1.69c0.82-0.1,1.62-0.3,2.38-0.61C43.55,58.06,43.96,58.55,44.29,59.12L44.29,59.12z"/>
		<path class="st4" d="M47.49,53.8c-1.86,3.23-5.41,4.88-8.89,4.48v-1.73c2.88,0.41,5.86-0.93,7.4-3.61
			c0.32-0.55,0.55-1.12,0.72-1.7c0.52,0.24,1.06,0.42,1.63,0.56C48.15,52.48,47.87,53.15,47.49,53.8L47.49,53.8z M46.99,49.45
			c0.03-1.01-0.16-2.01-0.53-2.95c0.58,0.66,1.32,1.17,2.16,1.48c0.1,0.7,0.12,1.41,0.05,2.12C48.08,49.96,47.52,49.73,46.99,49.45
			L46.99,49.45z"/>
		<path class="st4" d="M44.26,51.93c-1.17,2.03-3.48,3.01-5.66,2.58v-1.74c1.58,0.46,3.34-0.19,4.2-1.69
			c0.49-0.85,0.6-1.82,0.39-2.7c0.49,0.66,1.07,1.25,1.72,1.76C44.81,50.76,44.59,51.36,44.26,51.93L44.26,51.93z"/>
		<path class="st0" d="M50.47,52.05c-3.73,0-6.93-2.25-8.33-5.46l1.5-0.87c1.09,2.7,3.74,4.61,6.83,4.61c0.63,0,1.25-0.08,1.83-0.23
			c0.06,0.57,0.17,1.13,0.33,1.69C51.94,51.96,51.22,52.05,50.47,52.05L50.47,52.05z M53.98,49.44c0.89-0.48,1.67-1.14,2.29-1.93
			c-0.28,0.83-0.35,1.73-0.2,2.61c-0.55,0.43-1.16,0.81-1.81,1.1C54.09,50.63,54,50.03,53.98,49.44L53.98,49.44z"/>
		<path class="st0" d="M50.47,48.32c-2.35,0-4.34-1.51-5.07-3.62l1.51-0.87c0.39,1.6,1.84,2.79,3.56,2.79
			c0.98,0,1.88-0.39,2.53-1.02c-0.33,0.76-0.55,1.56-0.66,2.37C51.76,48.2,51.13,48.32,50.47,48.32L50.47,48.32z"/>
		<path class="st3" d="M53.48,53.75c-1.86-3.23-1.52-7.13,0.56-9.94l1.5,0.87c-1.79,2.3-2.12,5.54-0.57,8.22
			c0.32,0.55,0.69,1.04,1.11,1.47c-0.46,0.33-0.9,0.71-1.3,1.13C54.29,54.97,53.85,54.39,53.48,53.75L53.48,53.75z M57.49,55.48
			c0.86,0.53,1.82,0.87,2.82,1.01c-0.86,0.17-1.68,0.56-2.37,1.13c-0.65-0.26-1.28-0.6-1.86-1.01
			C56.51,56.18,56.99,55.8,57.49,55.48L57.49,55.48z"/>
		<path class="st3" d="M56.71,51.88c-1.17-2.03-0.86-4.52,0.6-6.19l1.51,0.87c-1.19,1.14-1.5,2.99-0.64,4.48
			c0.49,0.85,1.27,1.43,2.15,1.69c-0.82,0.1-1.62,0.3-2.38,0.61C57.45,52.94,57.04,52.45,56.71,51.88L56.71,51.88z"/>
		<path class="st0" d="M50.49,54.3c0.68,0,1.22,0.55,1.22,1.22c0,0.68-0.55,1.22-1.22,1.22c-0.68,0-1.22-0.55-1.22-1.22
			C49.27,54.85,49.82,54.3,50.49,54.3L50.49,54.3z"/>
		<path class="st0" d="M57.41,66.4c0.59,0,1.07,0.48,1.07,1.07c0,0.59-0.48,1.07-1.07,1.07c-0.59,0-1.07-0.48-1.07-1.07
			C56.35,66.88,56.83,66.4,57.41,66.4L57.41,66.4z"/>
		<path class="st4" d="M53.51,57.2c1.86-3.23,5.41-4.88,8.89-4.48v1.73c-2.88-0.41-5.86,0.93-7.4,3.61
			c-0.32,0.55-0.55,1.12-0.72,1.7c-0.52-0.24-1.06-0.42-1.63-0.56C52.85,58.52,53.13,57.85,53.51,57.2L53.51,57.2z M54.01,61.55
			c-0.03,1.01,0.16,2.01,0.53,2.95c-0.58-0.66-1.32-1.17-2.16-1.48c-0.1-0.7-0.12-1.41-0.05-2.12
			C52.92,61.04,53.48,61.27,54.01,61.55L54.01,61.55z"/>
		<path class="st4" d="M56.74,59.07c1.17-2.03,3.48-3.01,5.66-2.58v1.74c-1.58-0.46-3.34,0.19-4.2,1.69
			c-0.49,0.85-0.6,1.82-0.39,2.7c-0.49-0.66-1.07-1.25-1.72-1.76C56.19,60.24,56.41,59.64,56.74,59.07L56.74,59.07z"/>
		<path class="st0" d="M50.53,58.95c3.73,0,6.93,2.25,8.33,5.46l-1.5,0.87c-1.09-2.7-3.74-4.61-6.83-4.61
			c-0.63,0-1.25,0.08-1.83,0.23c-0.06-0.57-0.17-1.13-0.33-1.69C49.06,59.04,49.78,58.95,50.53,58.95L50.53,58.95z M47.02,61.56
			c-0.89,0.48-1.67,1.14-2.29,1.93c0.28-0.83,0.35-1.73,0.2-2.61c0.55-0.43,1.16-0.81,1.81-1.1C46.91,60.37,47,60.97,47.02,61.56
			L47.02,61.56z"/>
		<path class="st0" d="M50.53,62.68c2.35,0,4.34,1.51,5.07,3.62l-1.51,0.87c-0.39-1.6-1.84-2.79-3.56-2.79
			c-0.98,0-1.88,0.39-2.53,1.02c0.33-0.76,0.55-1.56,0.66-2.37C49.24,62.8,49.87,62.68,50.53,62.68L50.53,62.68z M46.97,67.19
			L46.97,67.19L46.97,67.19L46.97,67.19L46.97,67.19z"/>
		<path class="st0" d="M63.4,54.96c0.29-0.51,0.95-0.69,1.46-0.39c0.51,0.29,0.69,0.95,0.39,1.46c-0.29,0.51-0.95,0.69-1.46,0.39
			C63.28,56.13,63.1,55.47,63.4,54.96L63.4,54.96z"/>
		<path class="st0" d="M56.48,44.06c-0.29-0.51-0.12-1.16,0.39-1.46c0.51-0.29,1.16-0.12,1.46,0.39c0.29,0.51,0.12,1.16-0.39,1.46
			C57.43,44.75,56.78,44.57,56.48,44.06L56.48,44.06z"/>
		<path class="st0" d="M43.59,44.6c-0.59,0-1.07-0.48-1.07-1.07c0-0.59,0.48-1.07,1.07-1.07c0.59,0,1.07,0.48,1.07,1.07
			C44.65,44.12,44.17,44.6,43.59,44.6L43.59,44.6z"/>
		<path class="st0" d="M37.6,56.04c-0.29,0.51-0.95,0.69-1.46,0.39c-0.51-0.29-0.69-0.95-0.39-1.46c0.29-0.51,0.95-0.69,1.46-0.39
			C37.72,54.87,37.9,55.53,37.6,56.04L37.6,56.04z"/>
		<path class="st0" d="M44.52,66.94c0.29,0.51,0.12,1.16-0.39,1.46c-0.51,0.29-1.16,0.12-1.46-0.39c-0.29-0.51-0.12-1.16,0.39-1.46
			C43.57,66.25,44.22,66.43,44.52,66.94L44.52,66.94z"/>
	</g>
</g>
</svg>
