<?xml version="1.0" encoding="utf-8"?>
<!-- Generator: Adobe Illustrator 27.8.0, SVG Export Plug-In . SVG Version: 6.00 Build 0)  -->
<svg version="1.1" id="Layer_1" xmlns="http://www.w3.org/2000/svg" xmlns:xlink="http://www.w3.org/1999/xlink" x="0px" y="0px"
	 viewBox="0 0 1482 1080" style="enable-background:new 0 0 1482 1080;" xml:space="preserve">
<style type="text/css">
	.st0{fill-rule:evenodd;clip-rule:evenodd;fill:#006BB6;}
	.st1{fill-rule:evenodd;clip-rule:evenodd;fill:#58595B;}
	.st2{fill:#485156;}
	.st3{fill-rule:evenodd;clip-rule:evenodd;fill:#73CEE1;}
	.st4{fill-rule:evenodd;clip-rule:evenodd;fill:#00B9F2;}
	.st5{fill-rule:evenodd;clip-rule:evenodd;fill:#FFFFFF;}
	.st6{fill:#006BB6;}
	.st7{fill:#7F1416;}
	.st8{fill-rule:evenodd;clip-rule:evenodd;fill:#7F1416;}
	.st9{fill:#616E7D;}
	.st10{fill:#AAD3C7;}
	.st11{fill:#EBF7F6;}
	.st12{opacity:0.04;clip-path:url(#SVGID_00000082346115303261467350000014957668087076923792_);}
	.st13{fill:#FFFFFF;}
	.st14{clip-path:url(#SVGID_00000016054714133949105400000018002781308143901581_);}
	.st15{opacity:0.12;clip-path:url(#SVGID_00000135688627976431461070000001677137832177426838_);}
	.st16{clip-path:url(#SVGID_00000013182350132037081000000013491251300479819679_);}
	.st17{opacity:0.12;clip-path:url(#SVGID_00000148646691867856124480000010298807750760149395_);}
	.st18{fill:none;stroke:#616E7D;stroke-width:0.6;stroke-linecap:round;stroke-linejoin:round;stroke-miterlimit:10;}
	.st19{fill:#F04B4C;}
</style>
<rect x="3" y="-0.5" class="st7" width="1479" height="1080.5"/>
<g>
	<defs>
		<rect id="SVGID_00000054973905269623723010000001209093180549577627_" x="3" y="-0.5" width="1479" height="1080.5"/>
	</defs>
	<clipPath id="SVGID_00000005984883512567602460000001611669585772646808_">
		<use xlink:href="#SVGID_00000054973905269623723010000001209093180549577627_"  style="overflow:visible;"/>
	</clipPath>
	<g style="clip-path:url(#SVGID_00000005984883512567602460000001611669585772646808_);">
		<defs>
			<rect id="SVGID_00000158740999843302210100000000043934747894229910_" x="-437.5" y="-0.5" width="1919.5" height="1080.5"/>
		</defs>
		<clipPath id="SVGID_00000019657953892159561530000000242855202156889497_">
			<use xlink:href="#SVGID_00000158740999843302210100000000043934747894229910_"  style="overflow:visible;"/>
		</clipPath>
		<g style="opacity:0.12;clip-path:url(#SVGID_00000019657953892159561530000000242855202156889497_);">
			<path class="st3" d="M543.93,720.7c128.85,214.37,105.07,473.12-38.88,660.25l-103.76-57.54
				C525.24,1170.99,547.86,955.57,441,777.79c-21.86-36.36-47.85-69-77.06-97.69c32.02-22.01,62.1-47.11,89.74-75.12
				C487.77,639.2,518.18,677.85,543.93,720.7L543.93,720.7z M266.34,605.41c-59.6-35.03-125.99-57.83-194.7-67.23
				c59.52-11.6,115.92-37.16,163.48-75.21c45.14,17.46,88.29,39.97,128.44,67.29C334.17,559.42,301.45,584.55,266.34,605.41
				L266.34,605.41z"/>
			<path class="st3" d="M320.74,844.48c81.17,135.04,59.61,299.97-41.37,411.32l-104.13-57.75
				c82.51-75.67,103.82-198.3,44.25-297.41c-33.97-56.52-88-94.98-148.46-111.89c56.59-6.39,112.08-20.12,164.81-40.78
				C269.03,774.26,297.97,806.59,320.74,844.48L320.74,844.48z"/>
			<path class="st4" d="M541.9,491.3C413.05,705.67,167.88,815.27-72.81,789.08V673.99c199.39,26.9,404.92-61.99,511.78-239.78
				c21.85-36.36,38.28-74.3,49.54-112.95c35.86,15.64,73.52,28.11,112.6,37.09C587.31,403.82,567.65,448.45,541.9,491.3L541.9,491.3
				z M507.05,202.73c1.78-67.09-10.86-133.72-36.74-195.58c40.22,43.72,91.46,77.85,149.55,98.4c6.83,46.28,8.1,93.43,3.55,140.49
				C582.42,236.16,543.41,221.51,507.05,202.73L507.05,202.73z"/>
			<path class="st4" d="M318.71,367.52C237.54,502.56,78.07,567.09-72.81,538.77v-115.5c109.48,30.8,230.7-12.78,290.27-111.9
				c33.97-56.52,41.63-120.69,26.64-179.44c34.06,43.88,74.17,83.17,119.18,116.7C356.16,289.39,341.48,329.63,318.71,367.52
				L318.71,367.52z"/>
			<path class="st0" d="M747.71,374.91c-257.7,0-479.09-149.15-575.83-362.47l103.76-57.54C351.08,134.21,534,260.74,747.71,260.74
				c43.71,0,86.13-5.3,126.61-15.26c3.83,37.65,11.42,75.22,22.87,112.22C849.28,368.94,799.22,374.91,747.71,374.91L747.71,374.91z
				 M990.45,201.64c61.38-32.06,115.13-75.9,157.96-128.36c-19.31,55.32-24.46,115.01-13.94,173.61
				c-38.31,28.82-80.19,53.46-124.89,73.2C998,281.05,991.7,241.27,990.45,201.64L990.45,201.64z"/>
			<path class="st0" d="M747.71,127.35c-162.33,0-300.24-100.4-350.15-240.07l104.13-57.75C528.66-64,628.57,15.05,747.71,15.05
				c67.95,0,129.63-25.71,175.1-67.55c-22.54,50.27-37.9,103.29-45.63,157.49C836.88,119.44,793.26,127.35,747.71,127.35
				L747.71,127.35z"/>
			<path class="st3" d="M955.55,487.92C826.7,273.55,850.48,14.8,994.43-172.33l103.76,57.54
				c-123.95,152.41-146.57,367.84-39.72,545.63c21.86,36.36,47.85,69,77.06,97.69c-32.02,22.01-62.1,47.11-89.74,75.12
				C1011.72,569.43,981.31,530.77,955.55,487.92L955.55,487.92z M1233.14,603.21c59.6,35.03,125.99,57.83,194.69,67.23
				c-59.52,11.6-115.92,37.16-163.48,75.21c-45.14-17.46-88.29-39.97-128.44-67.29C1165.32,649.2,1198.03,624.07,1233.14,603.21
				L1233.14,603.21z"/>
			<path class="st3" d="M1178.74,364.14c-81.17-135.04-59.61-299.97,41.37-411.32l104.13,57.75
				c-82.51,75.67-103.82,198.3-44.25,297.41c33.97,56.52,88,94.98,148.46,111.89c-56.59,6.39-112.08,20.12-164.81,40.78
				C1230.46,434.36,1201.52,402.03,1178.74,364.14L1178.74,364.14z"/>
			<path class="st0" d="M749.22,524.68c46.67,0,84.51,36.34,84.51,81.18c0,44.83-37.83,81.18-84.51,81.18
				c-46.67,0-84.5-36.34-84.5-81.18C664.72,561.03,702.55,524.68,749.22,524.68L749.22,524.68z"/>
			<path class="st4" d="M957.58,717.32c128.85-214.37,374.02-323.96,614.71-297.78v115.09c-199.39-26.9-404.92,61.99-511.78,239.77
				c-21.85,36.36-38.28,74.3-49.54,112.96c-35.86-15.64-73.52-28.11-112.6-37.09C912.18,804.8,931.83,760.17,957.58,717.32
				L957.58,717.32z M992.43,1005.89c-1.78,67.09,10.86,133.72,36.74,195.58c-40.22-43.72-91.46-77.86-149.55-98.4
				c-6.83-46.28-8.11-93.43-3.55-140.49C917.06,972.46,956.07,987.11,992.43,1005.89L992.43,1005.89z"/>
			<path class="st4" d="M1180.78,841.1c81.17-135.04,240.64-199.57,391.52-171.24v115.5c-109.48-30.8-230.7,12.79-290.27,111.9
				c-33.97,56.52-41.63,120.69-26.64,179.44c-34.06-43.89-74.17-83.17-119.18-116.7C1143.32,919.24,1158,878.99,1180.78,841.1
				L1180.78,841.1z"/>
			<path class="st0" d="M751.77,833.71c257.7,0,479.09,149.15,575.83,362.47l-103.76,57.55
				c-75.44-179.32-258.36-305.85-472.07-305.85c-43.71,0-86.13,5.3-126.61,15.26c-3.83-37.65-11.42-75.22-22.86-112.22
				C650.2,839.68,700.26,833.71,751.77,833.71L751.77,833.71z M509.03,1006.99c-61.38,32.06-115.13,75.9-157.96,128.36
				c19.3-55.32,24.46-115.01,13.94-173.61c38.31-28.82,80.18-53.46,124.89-73.2C501.49,927.57,507.78,967.35,509.03,1006.99
				L509.03,1006.99z"/>
		</g>
	</g>
</g>
</svg>
