<?xml version="1.0" encoding="utf-8"?>
<!-- Generator: Adobe Illustrator 27.8.0, SVG Export Plug-In . SVG Version: 6.00 Build 0)  -->
<svg version="1.1" id="Layer_1" xmlns="http://www.w3.org/2000/svg" xmlns:xlink="http://www.w3.org/1999/xlink" x="0px" y="0px"
	 viewBox="0 0 101 111" style="enable-background:new 0 0 101 111;" xml:space="preserve">
<style type="text/css">
	.st0{fill-rule:evenodd;clip-rule:evenodd;fill:#006BB6;}
	.st1{fill-rule:evenodd;clip-rule:evenodd;fill:#58595B;}
	.st2{fill:#485156;}
	.st3{fill-rule:evenodd;clip-rule:evenodd;fill:#73CEE1;}
	.st4{fill-rule:evenodd;clip-rule:evenodd;fill:#00B9F2;}
	.st5{fill-rule:evenodd;clip-rule:evenodd;fill:#FFFFFF;}
	.st6{fill:#006BB6;}
	.st7{fill:#7F1416;}
	.st8{fill-rule:evenodd;clip-rule:evenodd;fill:#7F1416;}
	.st9{fill:#616E7D;}
	.st10{fill:#AAD3C7;}
	.st11{fill:#EBF7F6;}
	.st12{opacity:0.04;clip-path:url(#SVGID_00000074430623571657889160000007069781311926108288_);}
	.st13{fill:#FFFFFF;}
	.st14{clip-path:url(#SVGID_00000174590250225165979220000010514622289044331945_);}
	.st15{opacity:0.12;clip-path:url(#SVGID_00000116946883074362011110000002923114753346239133_);}
	.st16{clip-path:url(#SVGID_00000032613557123339139180000017072942642868039852_);}
	.st17{opacity:0.12;clip-path:url(#SVGID_00000044162744824708628590000012557742960364361139_);}
	.st18{fill:none;stroke:#616E7D;stroke-width:0.6;stroke-linecap:round;stroke-linejoin:round;stroke-miterlimit:10;}
	.st19{fill:#F04B4C;}
</style>
<g>
	<path class="st9" d="M50.01,63.43c-0.05,0.04-0.09,0.08-0.14,0.12c-0.1,0.08-0.2,0.15-0.3,0.23l-2.08,5.17h-2.08l-2.36-5.39
		c-0.11-0.09-0.21-0.18-0.32-0.27l-0.04,0.04c-2.3,1.99-2.91,5.06-3.07,6.67h13.44c-0.44-4.72-2.41-6.34-2.92-6.69
		C50.1,63.35,50.05,63.39,50.01,63.43z"/>
	<path class="st9" d="M41.35,59.28c0,2.81,2.28,5.1,5.09,5.1c2.81,0,5.1-2.29,5.1-5.1c0-2.81-2.29-5.1-5.1-5.1
		C43.64,54.19,41.35,56.48,41.35,59.28z"/>
	<path class="st9" d="M61.15,65.89l0.02-0.1c-0.44-1.08-0.66-2.36-0.88-3.6c-0.13-0.76-0.26-1.5-0.43-2.15
		c-0.06-0.29-0.14-0.56-0.26-0.82c-0.12-0.32-0.27-0.62-0.45-0.87c-0.19-0.27-0.71-1-1.89-1.24c-0.38-0.12-0.78-0.19-1.2-0.19
		c-0.84,0-1.58,0.28-2.18,0.74c-0.57,0.36-1,0.91-1.32,1.7c-0.21,0.45-0.36,0.93-0.44,1.44c-0.02,0.14-0.04,0.27-0.05,0.41
		c-0.03,0.17-0.06,0.34-0.08,0.51c-0.12,0.83-0.03,1.92,0.13,2.95c0.67,1.08,1.35,2.77,1.58,5.33h7.69
		c-0.06-0.71-0.23-1.91-0.78-3.11c0.26-0.13,0.42-0.23,0.43-0.24l0.04-0.09l-0.06-0.08c-0.01-0.01-0.86-0.45-1.09-1.04
		c0.3,0.29,0.65,0.42,1.12,0.5L61.15,65.89z"/>
	<path class="st9" d="M48.75,51.02h6.32c0.74,0,1.34-0.6,1.34-1.34v-7.33c0-0.74-0.6-1.34-1.34-1.34H41.45
		c-0.74,0-1.34,0.6-1.34,1.34v7.33c0,0.74,0.6,1.34,1.34,1.34h5.47l-0.18,2.3L48.75,51.02z"/>
	<path class="st9" d="M60.95,53.35v-5.02c0-0.46-0.38-0.84-0.84-0.84h-3.1v2.65c0,0.8-0.65,1.45-1.45,1.45h-4.09v1.76
		c0,0.46,0.38,0.84,0.84,0.84h4.15l1.25,1.44l-0.11-1.44h2.5C60.58,54.19,60.95,53.82,60.95,53.35z"/>
	<polygon class="st10" points="45.41,68.95 47.49,68.95 46.97,65.57 46.95,65.57 47.46,64.64 45.44,64.64 45.94,65.57 45.92,65.57 	
		"/>
</g>
</svg>
