<?xml version="1.0" encoding="utf-8"?>
<!-- Generator: Adobe Illustrator 27.8.0, SVG Export Plug-In . SVG Version: 6.00 Build 0)  -->
<svg version="1.1" id="Layer_1" xmlns="http://www.w3.org/2000/svg" xmlns:xlink="http://www.w3.org/1999/xlink" x="0px" y="0px"
	 viewBox="0 0 442 1081" enable-background="new 0 0 442 1081" xml:space="preserve">
<g>
	<rect x="0.65" fill="#EBF7F6" width="439" height="1081"/>
	<g>
		<defs>
			<rect id="SVGID_1_" x="0.65" width="441.35" height="1081"/>
		</defs>
		<clipPath id="SVGID_00000179630413763725726630000004909888049097517702_">
			<use xlink:href="#SVGID_1_"  overflow="visible"/>
		</clipPath>
		<g opacity="0.04" clip-path="url(#SVGID_00000179630413763725726630000004909888049097517702_)">
			<path fill-rule="evenodd" clip-rule="evenodd" fill="#73CEE1" d="M157.35,1037.59c40.72,67.74,33.21,149.52-12.29,208.65
				l-32.79-18.18c39.17-48.17,46.32-116.25,12.55-172.43c-6.91-11.49-15.12-21.81-24.35-30.87c10.12-6.96,19.63-14.89,28.36-23.74
				C139.6,1011.84,149.21,1024.05,157.35,1037.59L157.35,1037.59z M69.62,1001.16c-18.83-11.07-39.82-18.27-61.53-21.25
				c18.81-3.67,36.63-11.74,51.66-23.77c14.26,5.52,27.9,12.63,40.59,21.27C91.06,986.62,80.72,994.57,69.62,1001.16L69.62,1001.16z
				"/>
			<path fill-rule="evenodd" clip-rule="evenodd" fill="#73CEE1" d="M86.82,1076.71c25.65,42.68,18.84,94.8-13.07,129.98
				l-32.91-18.25c26.07-23.91,32.81-62.67,13.98-93.99c-10.74-17.86-27.81-30.01-46.92-35.36c17.89-2.02,35.42-6.36,52.08-12.89
				C70.47,1054.52,79.62,1064.74,86.82,1076.71L86.82,1076.71z"/>
			<path fill-rule="evenodd" clip-rule="evenodd" fill="#00B9F2" d="M156.71,965.1c-40.72,67.74-118.2,102.38-194.26,94.11v-36.37
				c63.01,8.5,127.97-19.59,161.74-75.77c6.91-11.49,12.1-23.48,15.66-35.7c11.33,4.94,23.24,8.88,35.58,11.72
				C171.06,937.45,164.85,951.56,156.71,965.1L156.71,965.1z M145.69,873.9c0.56-21.2-3.43-42.26-11.61-61.81
				c12.71,13.82,28.9,24.6,47.26,31.1c2.16,14.62,2.56,29.53,1.12,44.4C169.51,884.47,157.18,879.84,145.69,873.9L145.69,873.9z"/>
			<path fill-rule="evenodd" clip-rule="evenodd" fill="#00B9F2" d="M86.17,925.98c-25.65,42.68-76.05,63.07-123.73,54.12v-36.5
				c34.6,9.73,72.91-4.04,91.73-35.36c10.74-17.86,13.16-38.14,8.42-56.71c10.76,13.87,23.44,26.28,37.66,36.88
				C98.01,901.29,93.37,914.01,86.17,925.98L86.17,925.98z"/>
			<path fill-rule="evenodd" clip-rule="evenodd" fill="#006BB6" d="M221.75,928.31c-81.44,0-151.4-47.14-181.97-114.55l32.79-18.18
				c23.84,56.67,81.65,96.66,149.18,96.66c13.81,0,27.22-1.68,40.01-4.82c1.21,11.9,3.61,23.77,7.23,35.46
				C253.85,926.43,238.03,928.31,221.75,928.31L221.75,928.31z M298.46,873.56c19.4-10.13,36.38-23.99,49.92-40.56
				c-6.1,17.48-7.73,36.35-4.4,54.86c-12.11,9.11-25.34,16.89-39.47,23.13C300.84,898.65,298.85,886.08,298.46,873.56L298.46,873.56
				z"/>
			<path fill-rule="evenodd" clip-rule="evenodd" fill="#006BB6" d="M221.75,850.08c-51.3,0-94.88-31.73-110.65-75.87L144,755.96
				c8.52,33.65,40.09,58.63,77.75,58.63c21.47,0,40.96-8.13,55.34-21.35c-7.12,15.89-11.98,32.64-14.42,49.77
				C249.93,847.58,236.14,850.08,221.75,850.08L221.75,850.08z"/>
			<path fill-rule="evenodd" clip-rule="evenodd" fill="#73CEE1" d="M287.43,964.03c-40.72-67.75-33.21-149.52,12.29-208.65
				l32.79,18.18c-39.17,48.17-46.32,116.25-12.55,172.43c6.91,11.49,15.12,21.81,24.35,30.87c-10.12,6.96-19.63,14.89-28.36,23.74
				C305.18,989.79,295.57,977.57,287.43,964.03L287.43,964.03z M375.15,1000.46c18.83,11.07,39.82,18.27,61.53,21.25
				c-18.81,3.67-36.63,11.74-51.66,23.77c-14.26-5.52-27.9-12.63-40.59-21.27C353.72,1015,364.06,1007.06,375.15,1000.46
				L375.15,1000.46z"/>
			<path fill-rule="evenodd" clip-rule="evenodd" fill="#73CEE1" d="M357.96,924.91c-25.65-42.68-18.84-94.8,13.07-129.98
				l32.91,18.25c-26.07,23.91-32.81,62.67-13.98,93.99c10.74,17.86,27.81,30.01,46.92,35.36c-17.89,2.02-35.42,6.36-52.08,12.89
				C374.31,947.1,365.16,936.89,357.96,924.91L357.96,924.91z"/>
			<path fill-rule="evenodd" clip-rule="evenodd" fill="#006BB6" d="M222.22,975.65c14.75,0,26.71,11.48,26.71,25.65
				c0,14.17-11.96,25.65-26.71,25.65c-14.75,0-26.71-11.49-26.71-25.65C195.52,987.13,207.48,975.65,222.22,975.65L222.22,975.65z"
				/>
			<path fill-rule="evenodd" clip-rule="evenodd" fill="#00B9F2" d="M288.07,1036.52c40.72-67.75,118.2-102.38,194.26-94.11v36.37
				c-63.01-8.5-127.97,19.59-161.73,75.77c-6.91,11.49-12.1,23.48-15.66,35.7c-11.33-4.94-23.24-8.88-35.58-11.72
				C273.72,1064.17,279.93,1050.07,288.07,1036.52L288.07,1036.52z M299.08,1127.72c-0.56,21.2,3.43,42.26,11.61,61.81
				c-12.71-13.82-28.9-24.6-47.26-31.1c-2.16-14.62-2.56-29.53-1.12-44.4C275.27,1117.16,287.59,1121.78,299.08,1127.72
				L299.08,1127.72z"/>
			<path fill-rule="evenodd" clip-rule="evenodd" fill="#00B9F2" d="M358.61,1075.64c25.65-42.68,76.05-63.07,123.73-54.12v36.5
				c-34.6-9.73-72.91,4.04-91.73,35.36c-10.74,17.86-13.16,38.14-8.42,56.71c-10.76-13.87-23.44-26.28-37.66-36.88
				C346.77,1100.33,351.41,1087.62,358.61,1075.64L358.61,1075.64z"/>
			<path fill-rule="evenodd" clip-rule="evenodd" fill="#006BB6" d="M223.03,1073.31c81.44,0,151.4,47.14,181.97,114.55
				l-32.79,18.19c-23.84-56.67-81.65-96.66-149.18-96.66c-13.81,0-27.22,1.68-40.01,4.82c-1.21-11.9-3.61-23.77-7.23-35.46
				C190.93,1075.19,206.75,1073.31,223.03,1073.31L223.03,1073.31z M146.32,1128.07c-19.4,10.13-36.38,23.99-49.92,40.56
				c6.1-17.48,7.73-36.35,4.4-54.86c12.11-9.11,25.34-16.89,39.47-23.13C143.93,1102.97,145.92,1115.54,146.32,1128.07
				L146.32,1128.07z"/>
			<path fill-rule="evenodd" clip-rule="evenodd" fill="#006BB6" d="M353.11,760.78c-6.44-10.71-2.62-24.4,8.53-30.58
				c11.15-6.18,25.4-2.51,31.84,8.19c6.44,10.71,2.62,24.4-8.53,30.58C373.79,775.15,359.54,771.49,353.11,760.78L353.11,760.78z"/>
			<path fill-rule="evenodd" clip-rule="evenodd" fill="#006BB6" d="M71.34,772.05c-12.87,0-23.31-10.02-23.31-22.39
				s10.43-22.39,23.31-22.39c12.87,0,23.3,10.02,23.3,22.39S84.21,772.05,71.34,772.05L71.34,772.05z"/>
		</g>
	</g>
</g>
</svg>
