<?xml version="1.0" encoding="utf-8"?>
<!-- Generator: Adobe Illustrator 27.8.0, SVG Export Plug-In . SVG Version: 6.00 Build 0)  -->
<svg version="1.1" id="Layer_1" xmlns="http://www.w3.org/2000/svg" xmlns:xlink="http://www.w3.org/1999/xlink" x="0px" y="0px"
	 viewBox="0 0 101 111" style="enable-background:new 0 0 101 111;" xml:space="preserve">
<style type="text/css">
	.st0{fill-rule:evenodd;clip-rule:evenodd;fill:#006BB6;}
	.st1{fill-rule:evenodd;clip-rule:evenodd;fill:#58595B;}
	.st2{fill:#485156;}
	.st3{fill-rule:evenodd;clip-rule:evenodd;fill:#73CEE1;}
	.st4{fill-rule:evenodd;clip-rule:evenodd;fill:#00B9F2;}
	.st5{fill-rule:evenodd;clip-rule:evenodd;fill:#FFFFFF;}
	.st6{fill:#006BB6;}
	.st7{fill:#7F1416;}
	.st8{fill-rule:evenodd;clip-rule:evenodd;fill:#7F1416;}
	.st9{fill:#616E7D;}
	.st10{fill:#AAD3C7;}
	.st11{fill:#EBF7F6;}
	.st12{opacity:0.04;clip-path:url(#SVGID_00000041287129795124509730000012235272877687818124_);}
	.st13{fill:#FFFFFF;}
	.st14{clip-path:url(#SVGID_00000091005717524314184690000013495046042921963699_);}
	.st15{opacity:0.12;clip-path:url(#SVGID_00000033354454122843817240000012202192814373303473_);}
	.st16{clip-path:url(#SVGID_00000046323478902443478220000002058372639444877712_);}
	.st17{opacity:0.12;clip-path:url(#SVGID_00000139276114139906802280000010417435689448285600_);}
	.st18{fill:none;stroke:#616E7D;stroke-width:0.6;stroke-linecap:round;stroke-linejoin:round;stroke-miterlimit:10;}
	.st19{fill:#F04B4C;}
</style>
<g>
	<g id="_x38_35_x2C__Gift_x2C__Auction_x2C__Hammer_x2C__Judge_00000047751750614922639510000008832024923826437030_">
		<g>
			<g>
				<rect x="60.42" y="58.56" class="st7" width="6.85" height="2.1"/>
				<rect x="60.42" y="47.9" class="st7" width="6.85" height="9.73"/>
				<rect x="48.75" y="47.9" class="st7" width="6.85" height="9.73"/>
				<path class="st7" d="M69.61,46.89v-2.96c-1.17,0-22.18,0-23.35,0v2.96C47.11,46.89,63.85,46.89,69.61,46.89z"/>
				<path class="st7" d="M64.31,70.24c-1.09,0-1.95,0.86-1.95,1.95s0.86,1.95,1.95,1.95c1.09,0,1.95-0.86,1.95-1.95
					S65.33,70.24,64.31,70.24z"/>
				<path class="st7" d="M37.54,41.59c1.87,0,3.43-1.56,3.43-3.42s-1.56-3.42-3.43-3.42c-1.87,0-3.43,1.56-3.43,3.42
					S35.67,41.59,37.54,41.59z"/>
				<path class="st7" d="M55.75,42.99h1.71v-2.65c0-1.25-1.01-2.18-2.18-2.18s-2.18,1.01-2.18,2.18
					C53.1,41.83,54.27,42.99,55.75,42.99z"/>
				<rect x="48.75" y="58.56" class="st7" width="6.85" height="2.1"/>
				<path class="st7" d="M62.83,40.35c0-1.25-1.01-2.18-2.18-2.18s-2.18,1.01-2.18,2.18v2.65h1.71
					C61.59,42.99,62.83,41.83,62.83,40.35z"/>
				<rect x="56.53" y="47.9" class="st7" width="2.96" height="12.77"/>
				<path class="st7" d="M31.85,58.25h0.39c1.48,0,10.12,0,12.07,0c0.31,0,0.62-0.31,0.62-0.62v-0.7c0-0.31-0.31-0.62-0.62-0.62
					h-0.39c-1.48,0-10.12,0-12.07,0c-0.31,0-0.62,0.31-0.62,0.62v0.7C31.23,57.94,31.54,58.25,31.85,58.25z"/>
				<path class="st7" d="M43.45,67.98c0-1.17,0-7.78,0-8.8H32.71v8.8H43.45z"/>
				<path class="st7" d="M70.62,63.54c0-1.09-0.86-1.95-1.95-1.95c-2.41,0-21.72,0-24.29,0v3.89h24.29
					C69.76,65.49,70.62,64.63,70.62,63.54z"/>
				<path class="st7" d="M43.45,53.81c0-0.47-0.39-0.93-0.93-0.93h-8.87c-0.47,0-0.93,0.39-0.93,0.93v1.56h10.74V53.81L43.45,53.81z
					"/>
				<path class="st7" d="M32.71,73.35c0,0.47,0.39,0.93,0.93,0.93h8.87c0.47,0,0.93-0.39,0.93-0.93V71.8H32.71
					C32.71,71.87,32.71,73.35,32.71,73.35z"/>
				<path class="st7" d="M44.31,68.92h-0.39c-1.48,0-10.12,0-12.07,0c-0.31,0-0.62,0.31-0.62,0.62v0.7c0,0.31,0.31,0.62,0.62,0.62
					c3.11,0,9.57,0,12.38,0c0.31,0,0.62-0.31,0.62-0.62v-0.7C44.85,69.23,44.62,68.92,44.31,68.92z"/>
				<path class="st7" d="M69.37,36.69c0.39,0,0.7,0.31,0.7,0.7s-0.31,0.7-0.7,0.7s-0.7-0.31-0.7-0.7S68.99,36.69,69.37,36.69z"/>
				<path class="st7" d="M72.33,52.02c0.39,0,0.7,0.31,0.7,0.7s-0.31,0.7-0.7,0.7c-0.39,0-0.7-0.31-0.7-0.7S71.94,52.02,72.33,52.02
					z"/>
				<path class="st7" d="M51.39,32.8c0.39,0,0.7,0.31,0.7,0.7c0,0.39-0.31,0.7-0.7,0.7s-0.7-0.31-0.7-0.7
					C50.69,33.11,51,32.8,51.39,32.8z"/>
				<path class="st7" d="M45.09,39.18c0.39,0,0.7,0.31,0.7,0.7s-0.31,0.7-0.7,0.7s-0.7-0.31-0.7-0.7S44.7,39.18,45.09,39.18z"/>
				<path class="st7" d="M33.88,45.25c0.39,0,0.7,0.31,0.7,0.7s-0.31,0.7-0.7,0.7c-0.39,0-0.7-0.31-0.7-0.7S33.49,45.25,33.88,45.25
					z"/>
				<path class="st7" d="M70.39,69.31c0.39,0,0.7,0.31,0.7,0.7c0,0.39-0.31,0.7-0.7,0.7c-0.39,0-0.7-0.31-0.7-0.7
					C69.68,69.62,70,69.31,70.39,69.31z"/>
				<path class="st7" d="M57.7,68.84c0.39,0,0.7,0.31,0.7,0.7c0,0.39-0.31,0.7-0.7,0.7s-0.7-0.31-0.7-0.7
					C57,69.15,57.31,68.84,57.7,68.84z"/>
				<path class="st7" d="M48.43,72.73c0.39,0,0.7,0.31,0.7,0.7c0,0.39-0.31,0.7-0.7,0.7c-0.39,0-0.7-0.31-0.7-0.7
					C47.73,73.04,48.05,72.73,48.43,72.73z"/>
			</g>
		</g>
	</g>
</g>
</svg>
