<?xml version="1.0" encoding="utf-8"?>
<!-- Generator: Adobe Illustrator 27.8.0, SVG Export Plug-In . SVG Version: 6.00 Build 0)  -->
<svg version="1.1" id="Layer_1" xmlns="http://www.w3.org/2000/svg" xmlns:xlink="http://www.w3.org/1999/xlink" x="0px" y="0px"
	 viewBox="0 0 101 111" style="enable-background:new 0 0 101 111;" xml:space="preserve">
<style type="text/css">
	.st0{fill-rule:evenodd;clip-rule:evenodd;fill:#006BB6;}
	.st1{fill-rule:evenodd;clip-rule:evenodd;fill:#58595B;}
	.st2{fill:#485156;}
	.st3{fill-rule:evenodd;clip-rule:evenodd;fill:#73CEE1;}
	.st4{fill-rule:evenodd;clip-rule:evenodd;fill:#00B9F2;}
	.st5{fill-rule:evenodd;clip-rule:evenodd;fill:#FFFFFF;}
	.st6{fill:#006BB6;}
	.st7{fill:#7F1416;}
	.st8{fill-rule:evenodd;clip-rule:evenodd;fill:#7F1416;}
	.st9{fill:#616E7D;}
	.st10{fill:#AAD3C7;}
	.st11{fill:#EBF7F6;}
	.st12{opacity:0.04;clip-path:url(#SVGID_00000124850655849323120650000015448459089547502224_);}
	.st13{fill:#FFFFFF;}
	.st14{clip-path:url(#SVGID_00000050634502973508288070000013955187502767178167_);}
	.st15{opacity:0.12;clip-path:url(#SVGID_00000018204744034361119920000010433276053053534381_);}
	.st16{clip-path:url(#SVGID_00000049187489978417681960000016117322213790048138_);}
	.st17{opacity:0.12;clip-path:url(#SVGID_00000086694115268922927480000011548715920448474797_);}
	.st18{fill:none;stroke:#616E7D;stroke-width:0.6;stroke-linecap:round;stroke-linejoin:round;stroke-miterlimit:10;}
	.st19{fill:#F04B4C;}
</style>
<g id="_x32_2734_-_Missing_Person">
	<g>
		<g>
			<polygon class="st7" points="45.03,58.24 46.59,59.82 47.83,59.07 46.07,57.89 			"/>
			<polygon class="st7" points="52.01,58.23 50.96,57.89 49.2,59.07 50.43,59.82 			"/>
			<path class="st7" d="M50.45,57.34l-0.31-0.96c-0.51,0.19-1.06,0.29-1.63,0.29s-1.12-0.1-1.63-0.29l-0.31,0.96l1.95,1.31
				L50.45,57.34z"/>
			<path class="st7" d="M46.78,48.22l0.21-0.43c0.07-0.14,0.22-0.22,0.37-0.2c0.16,0.02,0.28,0.13,0.32,0.28
				c0.19,0.77,0.88,1.31,1.67,1.31h3.15v-2.01c0-0.45-0.36-0.82-0.82-0.82c-0.21,0-0.37-0.16-0.37-0.37c0-0.45-0.36-0.82-0.82-0.82
				h-4.36c-0.89,0-1.61,0.72-1.61,1.61v2.41h0.72C45.89,49.17,46.48,48.81,46.78,48.22z"/>
			<path class="st7" d="M48.51,55.92c2.2,0,3.99-1.79,3.99-3.99v-2.01h-3.15c-0.85,0-1.62-0.43-2.06-1.11
				c-0.45,0.69-1.22,1.11-2.06,1.11h-0.72v2.01C44.52,54.13,46.31,55.92,48.51,55.92z"/>
			<path class="st7" d="M54.73,59.12l-1.94-0.63l-2.04,2.05c-0.07,0.08-0.17,0.11-0.26,0.11c-0.06,0-0.13-0.02-0.19-0.05l-1.79-1.07
				l-1.8,1.07c-0.06,0.04-0.13,0.05-0.19,0.05c-0.09,0-0.19-0.04-0.26-0.11l-2.02-2.04l-3.56,1.18c-0.01,0-0.01,0-0.01,0.01
				c-0.78,0.23-1.33,0.97-1.33,1.78v4.36h2.43v-3.99c0-0.21,0.17-0.37,0.37-0.37c0.21,0,0.37,0.16,0.37,0.37v3.99h11.95v-3.99
				c0-0.21,0.16-0.37,0.37-0.37s0.37,0.16,0.37,0.37v3.99h2.45v-3.16C56.03,62.29,54.8,60.85,54.73,59.12z"/>
			<path class="st7" d="M58.56,55.87c-1.67,0-3.02,1.32-3.08,2.97l0,0l0,0l0,0c0,0.01,0,0.03,0,0.04l0,0c0,0.03,0,0.04,0,0.07
				c0,1.54,1.14,2.82,2.61,3.05h0.01c0.15,0.03,0.31,0.04,0.47,0.04c1.7,0,3.09-1.38,3.09-3.09C61.64,57.25,60.25,55.87,58.56,55.87
				z M58.93,61.37c0,0.21-0.17,0.37-0.37,0.37c-0.21,0-0.37-0.16-0.37-0.37v-0.34c0-0.21,0.16-0.37,0.37-0.37s0.37,0.16,0.37,0.37
				V61.37z M59.39,59.05c-0.3,0.22-0.47,0.57-0.47,0.94c0,0.21-0.17,0.37-0.37,0.37c-0.21,0-0.37-0.16-0.37-0.37
				c0-0.6,0.29-1.18,0.77-1.54c0.18-0.13,0.28-0.35,0.27-0.58c-0.02-0.33-0.3-0.6-0.62-0.62c-0.19-0.01-0.36,0.05-0.5,0.18
				c-0.13,0.13-0.21,0.3-0.21,0.48c0,0.21-0.17,0.37-0.37,0.37c-0.21,0-0.37-0.16-0.37-0.37c0-0.39,0.16-0.76,0.45-1.02
				c0.28-0.27,0.66-0.4,1.06-0.38c0.7,0.04,1.27,0.61,1.31,1.31C59.99,58.31,59.77,58.76,59.39,59.05z"/>
		</g>
	</g>
</g>
</svg>
