<?xml version="1.0" encoding="utf-8"?>
<!-- Generator: Adobe Illustrator 27.8.0, SVG Export Plug-In . SVG Version: 6.00 Build 0)  -->
<svg version="1.1" id="Layer_1" xmlns="http://www.w3.org/2000/svg" xmlns:xlink="http://www.w3.org/1999/xlink" x="0px" y="0px"
	 viewBox="0 0 1921 1080" style="enable-background:new 0 0 1921 1080;" xml:space="preserve">
<style type="text/css">
	.st0{fill-rule:evenodd;clip-rule:evenodd;fill:#006BB6;}
	.st1{fill-rule:evenodd;clip-rule:evenodd;fill:#58595B;}
	.st2{fill:#485156;}
	.st3{fill-rule:evenodd;clip-rule:evenodd;fill:#73CEE1;}
	.st4{fill-rule:evenodd;clip-rule:evenodd;fill:#00B9F2;}
	.st5{fill-rule:evenodd;clip-rule:evenodd;fill:#FFFFFF;}
	.st6{fill:#006BB6;}
	.st7{fill:#7F1416;}
	.st8{fill-rule:evenodd;clip-rule:evenodd;fill:#7F1416;}
	.st9{fill:#616E7D;}
	.st10{fill:#AAD3C7;}
	.st11{fill:#EBF7F6;}
	.st12{opacity:0.04;clip-path:url(#SVGID_00000030447726766662711420000007004371175595888790_);}
	.st13{fill:#FFFFFF;}
	.st14{clip-path:url(#SVGID_00000033351727287048093840000016604980882648042168_);}
	.st15{opacity:0.12;clip-path:url(#SVGID_00000089554288751486260350000016808141454499218356_);}
	.st16{clip-path:url(#SVGID_00000157292432774122850070000003105921169465599924_);}
	.st17{opacity:0.12;clip-path:url(#SVGID_00000178190422936775037430000014454726809422090150_);}
	.st18{fill:none;stroke:#616E7D;stroke-width:0.6;stroke-linecap:round;stroke-linejoin:round;stroke-miterlimit:10;}
	.st19{fill:#F04B4C;}
</style>
<g>
	<g>
		<defs>
			<rect id="SVGID_1_" x="-544.68" y="-29" width="441.35" height="1081"/>
		</defs>
		<clipPath id="SVGID_00000116936230734167570490000005881666451484416936_">
			<use xlink:href="#SVGID_1_"  style="overflow:visible;"/>
		</clipPath>
		<g style="opacity:0.04;clip-path:url(#SVGID_00000116936230734167570490000005881666451484416936_);">
			<path class="st0" d="M-41.17,960.53c6.44-10.71,20.69-14.38,31.84-8.19c11.15,6.18,14.97,19.87,8.53,30.58
				c-6.44,10.71-20.69,14.38-31.84,8.19C-43.78,984.93-47.6,971.24-41.17,960.53L-41.17,960.53z"/>
		</g>
	</g>
</g>
<rect x="442" y="-0.5" class="st7" width="1479" height="1080.5"/>
<g>
	<defs>
		<rect id="SVGID_00000101820571218050818900000003962992380682658975_" x="442" y="-0.5" width="1479" height="1080.5"/>
	</defs>
	<clipPath id="SVGID_00000171691845257997751400000003623578841532500871_">
		<use xlink:href="#SVGID_00000101820571218050818900000003962992380682658975_"  style="overflow:visible;"/>
	</clipPath>
	<g style="clip-path:url(#SVGID_00000171691845257997751400000003623578841532500871_);">
		<defs>
			<rect id="SVGID_00000012443691062613047730000006651757255661396144_" x="1.5" y="-0.5" width="1919.5" height="1080.5"/>
		</defs>
		<clipPath id="SVGID_00000134241133839951156410000008168042894556562081_">
			<use xlink:href="#SVGID_00000012443691062613047730000006651757255661396144_"  style="overflow:visible;"/>
		</clipPath>
		<g style="opacity:0.12;clip-path:url(#SVGID_00000134241133839951156410000008168042894556562081_);">
			<path class="st3" d="M982.93,720.7c128.85,214.37,105.07,473.12-38.88,660.25l-103.76-57.54
				C964.24,1170.99,986.86,955.57,880,777.79c-21.86-36.36-47.85-69-77.06-97.69c32.02-22.01,62.1-47.11,89.74-75.12
				C926.77,639.2,957.18,677.85,982.93,720.7L982.93,720.7z M705.34,605.41c-59.6-35.03-125.99-57.83-194.7-67.23
				c59.52-11.6,115.92-37.16,163.48-75.21c45.14,17.46,88.29,39.97,128.44,67.29C773.17,559.42,740.45,584.55,705.34,605.41
				L705.34,605.41z"/>
			<path class="st3" d="M759.74,844.48c81.17,135.04,59.61,299.97-41.37,411.32l-104.13-57.75
				c82.51-75.67,103.82-198.3,44.25-297.41c-33.97-56.52-88-94.98-148.46-111.89c56.59-6.39,112.08-20.12,164.81-40.78
				C708.03,774.26,736.97,806.59,759.74,844.48L759.74,844.48z"/>
			<path class="st4" d="M980.9,491.3C852.05,705.67,606.88,815.27,366.19,789.08V673.99c199.39,26.9,404.92-61.99,511.78-239.78
				c21.85-36.36,38.28-74.3,49.54-112.95c35.86,15.64,73.52,28.11,112.6,37.09C1026.31,403.82,1006.65,448.45,980.9,491.3
				L980.9,491.3z M946.05,202.73c1.78-67.09-10.86-133.72-36.74-195.58c40.22,43.72,91.46,77.85,149.55,98.4
				c6.83,46.28,8.1,93.43,3.55,140.49C1021.42,236.16,982.41,221.51,946.05,202.73L946.05,202.73z"/>
			<path class="st4" d="M757.71,367.52c-81.17,135.04-240.64,199.57-391.52,171.24v-115.5c109.48,30.8,230.7-12.78,290.27-111.9
				c33.97-56.52,41.63-120.69,26.64-179.44c34.06,43.88,74.17,83.17,119.18,116.7C795.16,289.39,780.48,329.63,757.71,367.52
				L757.71,367.52z"/>
			<path class="st0" d="M1186.71,374.91c-257.7,0-479.09-149.15-575.83-362.47l103.76-57.54
				C790.08,134.21,973,260.74,1186.71,260.74c43.71,0,86.13-5.3,126.61-15.26c3.83,37.65,11.42,75.22,22.87,112.22
				C1288.28,368.94,1238.22,374.91,1186.71,374.91L1186.71,374.91z M1429.45,201.64c61.38-32.06,115.13-75.9,157.96-128.36
				c-19.31,55.32-24.46,115.01-13.94,173.61c-38.31,28.82-80.19,53.46-124.89,73.2C1437,281.05,1430.7,241.27,1429.45,201.64
				L1429.45,201.64z"/>
			<path class="st0" d="M1186.71,127.35c-162.33,0-300.24-100.4-350.15-240.07l104.13-57.75C967.66-64,1067.57,15.05,1186.71,15.05
				c67.95,0,129.63-25.71,175.1-67.55c-22.54,50.27-37.9,103.29-45.63,157.49C1275.88,119.44,1232.26,127.35,1186.71,127.35
				L1186.71,127.35z"/>
			<path class="st3" d="M1394.55,487.92c-128.85-214.37-105.08-473.12,38.88-660.25l103.76,57.54
				c-123.95,152.41-146.57,367.84-39.72,545.63c21.86,36.36,47.85,69,77.06,97.69c-32.02,22.01-62.1,47.11-89.74,75.12
				C1450.72,569.43,1420.31,530.77,1394.55,487.92L1394.55,487.92z M1672.14,603.21c59.6,35.03,125.99,57.83,194.69,67.23
				c-59.52,11.6-115.92,37.16-163.48,75.21c-45.14-17.46-88.29-39.97-128.44-67.29C1604.32,649.2,1637.03,624.07,1672.14,603.21
				L1672.14,603.21z"/>
			<path class="st3" d="M1617.74,364.14c-81.17-135.04-59.61-299.97,41.37-411.32l104.13,57.75
				c-82.51,75.67-103.82,198.3-44.25,297.41c33.97,56.52,88,94.98,148.46,111.89c-56.59,6.39-112.08,20.12-164.81,40.78
				C1669.46,434.36,1640.52,402.03,1617.74,364.14L1617.74,364.14z"/>
			<path class="st0" d="M1188.22,524.68c46.67,0,84.51,36.34,84.51,81.18c0,44.83-37.83,81.18-84.51,81.18
				c-46.67,0-84.5-36.34-84.5-81.18C1103.72,561.03,1141.55,524.68,1188.22,524.68L1188.22,524.68z"/>
			<path class="st4" d="M1396.58,717.32c128.85-214.37,374.02-323.96,614.71-297.78v115.09c-199.39-26.9-404.92,61.99-511.78,239.77
				c-21.85,36.36-38.28,74.3-49.54,112.96c-35.86-15.64-73.52-28.11-112.6-37.09C1351.18,804.8,1370.83,760.17,1396.58,717.32
				L1396.58,717.32z M1431.43,1005.89c-1.78,67.09,10.86,133.72,36.74,195.58c-40.22-43.72-91.46-77.86-149.55-98.4
				c-6.83-46.28-8.11-93.43-3.55-140.49C1356.06,972.46,1395.07,987.11,1431.43,1005.89L1431.43,1005.89z"/>
			<path class="st4" d="M1619.78,841.1c81.17-135.04,240.64-199.57,391.52-171.24v115.5c-109.48-30.8-230.7,12.79-290.27,111.9
				c-33.97,56.52-41.63,120.69-26.64,179.44c-34.06-43.89-74.17-83.17-119.18-116.7C1582.32,919.24,1597,878.99,1619.78,841.1
				L1619.78,841.1z"/>
			<path class="st0" d="M1190.77,833.71c257.7,0,479.09,149.15,575.83,362.47l-103.76,57.55
				c-75.44-179.32-258.36-305.85-472.07-305.85c-43.71,0-86.13,5.3-126.61,15.26c-3.83-37.65-11.42-75.22-22.86-112.22
				C1089.2,839.68,1139.26,833.71,1190.77,833.71L1190.77,833.71z M948.03,1006.99c-61.38,32.06-115.13,75.9-157.96,128.36
				c19.3-55.32,24.46-115.01,13.94-173.61c38.31-28.82,80.18-53.46,124.89-73.2C940.49,927.57,946.78,967.35,948.03,1006.99
				L948.03,1006.99z"/>
			<path class="st0" d="M297.14,640c-20.36,33.88-65.46,45.49-100.74,25.93c-35.27-19.56-47.36-62.88-26.99-96.76
				c20.36-33.88,65.46-45.49,100.74-25.93C305.41,562.79,317.5,606.12,297.14,640L297.14,640z"/>
		</g>
	</g>
</g>
</svg>
