<?xml version="1.0" encoding="utf-8"?>
<!-- Generator: Adobe Illustrator 27.8.0, SVG Export Plug-In . SVG Version: 6.00 Build 0)  -->
<svg version="1.1" id="Layer_1" xmlns="http://www.w3.org/2000/svg" xmlns:xlink="http://www.w3.org/1999/xlink" x="0px" y="0px"
	 viewBox="0 0 101 111" style="enable-background:new 0 0 101 111;" xml:space="preserve">
<style type="text/css">
	.st0{fill-rule:evenodd;clip-rule:evenodd;fill:#006BB6;}
	.st1{fill-rule:evenodd;clip-rule:evenodd;fill:#58595B;}
	.st2{fill:#485156;}
	.st3{fill-rule:evenodd;clip-rule:evenodd;fill:#73CEE1;}
	.st4{fill-rule:evenodd;clip-rule:evenodd;fill:#00B9F2;}
	.st5{fill-rule:evenodd;clip-rule:evenodd;fill:#FFFFFF;}
	.st6{fill:#006BB6;}
	.st7{fill:#7F1416;}
	.st8{fill-rule:evenodd;clip-rule:evenodd;fill:#7F1416;}
	.st9{fill:#616E7D;}
	.st10{fill:#AAD3C7;}
	.st11{fill:#EBF7F6;}
	.st12{opacity:0.04;clip-path:url(#SVGID_00000119806750892607503260000014437938638698707840_);}
	.st13{fill:#FFFFFF;}
	.st14{clip-path:url(#SVGID_00000101078210815723870620000005309862706359250589_);}
	.st15{opacity:0.12;clip-path:url(#SVGID_00000182528846181952834770000009703282159395139733_);}
	.st16{clip-path:url(#SVGID_00000106111827519010723880000005301819944856793261_);}
	.st17{opacity:0.12;clip-path:url(#SVGID_00000075857595798089133000000015199227388750174863_);}
	.st18{fill:none;stroke:#616E7D;stroke-width:0.6;stroke-linecap:round;stroke-linejoin:round;stroke-miterlimit:10;}
	.st19{fill:#F04B4C;}
</style>
<g>
	
		<g id="B_-_118_x2C__Profile_x2C__Abilities_x2C__business_x2C__employee_x2C__job_x2C__man_x2C__resume_x2C__skills_00000036244872729199303260000006921841974453564840_">
		<g>
			<path class="st8" d="M51.64,42.25h-2.22v2.22h2.22V42.25z M49.22,41.78h2.68c0.1,0,0.21,0.1,0.21,0.21v2.68
				c0,0.1-0.1,0.21-0.21,0.21h-2.68c-0.15,0-0.21-0.1-0.21-0.21v-2.68C48.96,41.94,49.06,41.78,49.22,41.78z M51.64,47.35h-2.22
				v2.22h2.22v-0.98l-0.82,0.46c-0.1,0.05-0.26,0.05-0.31-0.05l-0.46-0.67c-0.05-0.1-0.05-0.26,0.05-0.31
				c0.1-0.05,0.26-0.05,0.31,0.05l0.36,0.52l0.88-0.52C51.64,48.02,51.64,47.35,51.64,47.35z M49.22,46.89h2.68
				c0.1,0,0.21,0.1,0.21,0.21v0.67l0.15-0.1c0.1-0.05,0.26-0.05,0.31,0.1c0.05,0.15,0.05,0.26-0.1,0.31l-0.41,0.21v1.5
				c0,0.15-0.1,0.21-0.21,0.21h-2.68c-0.15,0-0.21-0.1-0.21-0.21v-2.68C48.96,46.99,49.06,46.89,49.22,46.89z M51.64,52.41h-2.22
				v2.22h2.22V52.41z M49.22,51.94h2.68c0.1,0,0.21,0.1,0.21,0.21v2.68c0,0.16-0.1,0.26-0.21,0.26h-2.68c-0.15,0-0.21-0.1-0.21-0.26
				v-2.68C48.96,52.05,49.06,51.94,49.22,51.94z M51.64,57.46h-2.22v2.22h2.22v-1.24l-0.82,0.52c-0.1,0.05-0.26,0.05-0.31-0.05
				l-0.46-0.67c-0.05-0.1-0.05-0.26,0.05-0.31c0.1-0.05,0.26-0.05,0.31,0.05l0.36,0.52l0.88-0.52
				C51.64,57.92,51.64,57.46,51.64,57.46z M49.22,57h2.68c0.1,0,0.21,0.1,0.21,0.21v0.41l0.15-0.1c0.1-0.05,0.26-0.05,0.31,0.1
				c0.05,0.1,0.05,0.26-0.1,0.31l-0.41,0.21v1.75c0,0.1-0.1,0.21-0.21,0.21h-2.68c-0.15,0-0.21-0.1-0.21-0.21V57.2
				C48.96,57.1,49.06,57,49.22,57z M53.08,43.12c-0.15,0-0.26-0.1-0.26-0.26c0-0.1,0.1-0.21,0.26-0.21h7.01
				c0.15,0,0.26,0.1,0.26,0.21c0,0.15-0.1,0.26-0.26,0.26H53.08z M53.08,44.1c-0.15,0-0.26-0.1-0.26-0.21c0-0.15,0.1-0.21,0.26-0.21
				h4.44c0.15,0,0.21,0.1,0.21,0.21c0,0.1-0.1,0.21-0.21,0.21H53.08z M53.08,48.23c-0.15,0-0.26-0.1-0.26-0.21
				c0-0.15,0.1-0.21,0.26-0.21h7.01c0.15,0,0.26,0.1,0.26,0.21c0,0.1-0.1,0.21-0.26,0.21H53.08z M53.08,49.16
				c-0.15,0-0.26-0.1-0.26-0.21c0-0.15,0.1-0.21,0.26-0.21h4.44c0.15,0,0.21,0.1,0.21,0.21c0,0.15-0.1,0.21-0.21,0.21H53.08z
				 M53.08,53.28c-0.15,0-0.26-0.1-0.26-0.21c0-0.15,0.1-0.21,0.26-0.21h7.01c0.15,0,0.26,0.1,0.26,0.21c0,0.15-0.1,0.21-0.26,0.21
				H53.08z M53.08,54.21c-0.15,0-0.26-0.1-0.26-0.21c0-0.15,0.1-0.26,0.26-0.26h4.44c0.15,0,0.21,0.1,0.21,0.26
				c0,0.1-0.1,0.21-0.21,0.21H53.08z M53.08,58.34c-0.15,0-0.26-0.1-0.26-0.21c0-0.15,0.1-0.26,0.26-0.26h5.78
				c0.15,0,0.26,0.1,0.26,0.26c0,0.1-0.1,0.21-0.26,0.21H53.08z M53.08,59.27c-0.15,0-0.26-0.1-0.26-0.21c0-0.15,0.1-0.21,0.26-0.21
				h4.13c0.15,0,0.26,0.1,0.26,0.21c0,0.15-0.1,0.21-0.26,0.21H53.08z M66.65,59.68l0.93,0.88l2.11-3.46l-0.67-0.62L66.65,59.68z
				 M62.93,57.1l2.01,3.66l1.08-1.08l-2.37-3.25L62.93,57.1z M65.72,55.76c-1.03-0.21-1.86-0.93-2.53-1.91
				c-0.98-1.44-1.55-3.4-1.55-4.74c0-1.29,0.52-2.48,1.39-3.35c0.72-0.72,1.65-1.19,2.68-1.34v-5H47.36v23h9.7
				c0-1.19,0.1-1.86,0.41-2.42c0.41-0.67,1.19-1.08,2.73-1.91c0.62-0.36,1.39-0.72,2.37-1.29l0.98-0.93c0.1-0.1,0.26-0.1,0.31,0
				l1.91,2.58L65.72,55.76L65.72,55.76z M67.89,62.82c-0.1,0-0.26-0.1-0.26-0.21s0.1-0.21,0.26-0.21h2.06c0.15,0,0.26,0.1,0.26,0.21
				c0,0.15-0.1,0.21-0.26,0.21H67.89z M67.89,64.11c-0.1,0-0.26-0.1-0.26-0.21c0-0.15,0.1-0.21,0.26-0.21h2.06
				c0.15,0,0.26,0.1,0.26,0.21c0,0.15-0.1,0.21-0.26,0.21H67.89z M63.4,46.17c0.72-0.77,1.75-1.24,2.89-1.24
				c1.13,0,2.17,0.46,2.89,1.24c0.72,0.77,1.19,1.81,1.19,2.99c0,1.24-0.46,2.99-1.34,4.28c-0.67,1.03-1.6,1.75-2.79,1.75
				s-2.11-0.72-2.78-1.75c-0.88-1.29-1.34-3.04-1.34-4.28C62.16,48.02,62.62,46.94,63.4,46.17z M72.17,58.54
				c-0.62-0.31-1.29-0.72-2.11-1.19l-2.22,3.66c0,0,0,0.05-0.05,0.05c-0.1,0.1-0.26,0.1-0.31,0l-1.13-1.08l-1.29,1.24l0,0l0,0l0,0
				l0,0l0,0l0,0l0,0l0,0l0,0l0,0l0,0l0,0l0,0l0,0l0,0l0,0l0,0l0,0l0,0l0,0l0,0l0,0l0,0l0,0l0,0l0,0l0,0l0,0l0,0l0,0l0,0l0,0l0,0l0,0
				l0,0l0,0l0,0l0,0l0,0l0,0l0,0l0,0l0,0l0,0l0,0l0,0l0,0l0,0l0,0l0,0l0,0l0,0l0,0l0,0l0,0l0,0l0,0l0,0l0,0l0,0l0,0l0,0l0,0l0,0l0,0
				l0,0l0,0l0,0l0,0l0,0l0,0l0,0l0,0l0,0l0,0l0,0l0,0l0,0l0,0l0,0l0,0l0,0l0,0l0,0l0,0l0,0l0,0l0,0l0,0l0,0l0,0l0,0l0,0l0,0l0,0l0,0
				l0,0l0,0l0,0l0,0l0,0l0,0l0,0l0,0l0,0l0,0l0,0l0,0l0,0l0,0l0,0l0,0l0,0l0,0l0,0l-2.11-3.87c-0.83,0.46-1.55,0.88-2.17,1.19
				c-1.44,0.77-2.17,1.13-2.53,1.75c-0.41,0.62-0.36,1.55-0.36,3.51c0,0.57,0,1.19,0,1.81c2.94,0.67,5.88,0.98,8.77,0.98
				c2.94,0,5.88-0.36,8.77-0.98c0-0.57,0-1.19,0-1.75c0-1.96,0.05-2.94-0.36-3.56C74.38,59.73,73.66,59.32,72.17,58.54z"/>
		</g>
	</g>
</g>
</svg>
